<svg width="201" height="56" viewBox="0 0 201 56" fill="none" xmlns="http://www.w3.org/2000/svg">
<path d="M84.3682 0H0.368164V56H84.3682V0Z" fill="#003399"/>
<path d="M41.272 10.3955L39.4987 9.10049H41.692L42.3687 7.00049L43.0453 9.10049H45.2387L43.4653 10.3955L44.142 12.5072L42.3687 11.2005L40.5953 12.5072L41.272 10.3955ZM43.4653 46.9005L44.142 49.0005L42.3687 47.7055L40.5953 49.0005L41.272 46.9005L39.4987 45.6055H41.692L42.3687 43.4938L43.0453 45.6055H45.2387L43.4653 46.9005ZM24.2387 29.4005L22.4653 30.7072L23.142 28.6072L21.3687 27.3472H23.562L24.2387 25.2472L24.9153 27.3472H27.1203L25.3353 28.6538L26.012 30.7538L24.2387 29.4472V29.4005ZM34.4003 12.8338L35.077 14.9338L33.3037 13.6505L31.5303 14.9455L32.207 12.8455L30.4337 11.5505H32.627L33.3037 9.45049L33.9803 11.5505H36.1737L34.4003 12.8338ZM26.0353 18.2238L26.712 16.1238L27.4003 18.2238H29.5353L27.762 19.5305L28.4387 21.6305L26.6537 20.3238L24.8687 21.6305L25.5453 19.5305L23.772 18.2238H26.0353ZM23.7953 36.4705H26.0353L26.712 34.3705L27.4003 36.4705H29.5353L27.762 37.7772L28.4387 39.8772L26.6537 38.5822L24.8687 39.8772L25.5453 37.7772L23.772 36.4705H23.7953ZM32.207 44.4505L30.4337 43.1672H32.627L33.3037 41.0672L33.9803 43.1672H36.1737L34.4003 44.4505L35.077 46.5505L33.3037 45.2555L31.5303 46.5505L32.207 44.4505ZM61.5953 28.6538L62.272 30.7538L60.4987 29.4472L58.702 30.7538L59.3787 28.6538L57.5937 27.3472H59.8687L60.5453 25.2472L61.222 27.3472H63.3687L61.5953 28.6538ZM50.337 12.8338L48.5637 11.5505H50.757L51.4337 9.45049L52.1103 11.5505H54.3036L52.5303 12.8338L53.207 14.9338L51.4337 13.6505L49.6603 14.9455L50.337 12.8455V12.8338ZM57.337 18.2122L58.0253 16.1122L58.702 18.2122H60.8953L59.1687 19.5305L59.8453 21.6305L58.072 20.3238L56.287 21.6305L56.9636 19.5305L55.202 18.2238L57.337 18.2122ZM58.702 36.4705H60.8953L59.1687 37.7772L59.8453 39.8772L58.072 38.5822L56.287 39.8772L56.9636 37.7772L55.202 36.4705H57.3953L58.0837 34.3705L58.7603 36.4705H58.702ZM54.3036 43.1672L52.5303 44.4505L53.207 46.5505L51.4337 45.2555L49.6603 46.5505L50.337 44.4505L48.5637 43.1672H50.757L51.4337 41.0672L52.1103 43.1672H54.3036Z" fill="#FFCC00"/>
<path d="M98.3686 32.3052H101.74V41.3468C101.714 42.2821 101.757 43.2179 101.869 44.1468C101.999 44.8019 102.364 45.3869 102.895 45.7918C103.551 46.2347 104.333 46.4518 105.124 46.4102C105.891 46.4595 106.654 46.2545 107.294 45.8268C107.769 45.459 108.09 44.9261 108.192 44.3335C108.306 43.3931 108.353 42.4456 108.332 41.4985V32.3052H111.715V41.0785C111.759 42.4998 111.666 43.922 111.435 45.3252C111.28 46.0974 110.935 46.819 110.432 47.4252C109.892 48.0295 109.216 48.4972 108.46 48.7902C107.431 49.1559 106.343 49.326 105.252 49.2918C104.018 49.351 102.785 49.1646 101.624 48.7435C100.868 48.4238 100.197 47.9325 99.6636 47.3085C99.219 46.7828 98.8963 46.1653 98.7186 45.5002C98.4502 44.0894 98.3328 42.6541 98.3686 41.2185V32.3052Z" fill="#515560"/>
<path d="M125.551 49.0004H122.343V42.817C122.384 41.9682 122.318 41.1174 122.145 40.2854C122.02 39.925 121.788 39.6115 121.48 39.387C121.133 39.1625 120.725 39.0523 120.313 39.072C119.78 39.0665 119.259 39.2254 118.82 39.527C118.402 39.8088 118.087 40.2181 117.921 40.6937C117.716 41.6041 117.633 42.538 117.676 43.4704V49.0004H114.515V36.902H117.49V38.687C118.406 37.3935 119.895 36.6273 121.48 36.6337C122.145 36.6249 122.805 36.7561 123.416 37.0187C123.935 37.2232 124.392 37.5565 124.746 37.987C125.04 38.3883 125.251 38.8446 125.365 39.3287C125.51 40.0385 125.573 40.7628 125.551 41.487V49.0004Z" fill="#515560"/>
<path d="M128.211 35.2685V32.3052H131.408V35.2685H128.211ZM128.211 49.0118V36.9018H131.408V49.0002L128.211 49.0118Z" fill="#515560"/>
<path d="M133.369 42.7812C133.374 41.7048 133.647 40.6465 134.162 39.7012C134.642 38.7128 135.416 37.8975 136.379 37.3679C137.371 36.845 138.477 36.5764 139.599 36.5862C141.283 36.5272 142.915 37.1743 144.102 38.3712C145.274 39.5714 145.906 41.1978 145.852 42.8746C145.908 44.5677 145.272 46.2105 144.09 47.4246C142.918 48.6234 141.298 49.2788 139.622 49.2329C138.52 49.2372 137.433 48.9814 136.449 48.4862C135.454 48.0217 134.635 47.2483 134.115 46.2812C133.581 45.1941 133.325 43.9916 133.369 42.7812ZM136.647 42.9562C136.58 43.9497 136.888 44.9322 137.51 45.7096C138.04 46.3157 138.805 46.6636 139.61 46.6636C140.415 46.6636 141.181 46.3157 141.71 45.7096C142.331 44.9228 142.635 43.9323 142.562 42.9329C142.63 41.9484 142.326 40.9743 141.71 40.2029C141.181 39.5967 140.415 39.2489 139.61 39.2489C138.805 39.2489 138.04 39.5967 137.51 40.2029C136.888 40.9803 136.58 41.9627 136.647 42.9562Z" fill="#515560"/>
<path d="M158.791 49.0004H155.536V42.817C155.577 41.9682 155.511 41.1174 155.337 40.2854C155.213 39.925 154.981 39.6115 154.672 39.387C154.326 39.1625 153.918 39.0523 153.506 39.072C152.973 39.0665 152.451 39.2254 152.012 39.527C151.595 39.8088 151.28 40.2181 151.114 40.6937C150.908 41.6041 150.826 42.538 150.869 43.4704V49.0004H147.661V36.902H150.636V38.687C151.552 37.3935 153.041 36.6273 154.626 36.6337C155.291 36.6249 155.951 36.7561 156.562 37.0187C157.081 37.2232 157.538 37.5565 157.892 37.987C158.185 38.3904 158.399 38.8457 158.522 39.3287C158.657 40.0399 158.716 40.7634 158.697 41.487L158.791 49.0004Z" fill="#515560"/>
<path d="M98.3672 23.7188V7.00049H110.792V9.83549H101.774V13.5455H110.162V16.3338H101.774V20.8722H111.107V23.6955L98.3672 23.7188Z" fill="#515560"/>
<path d="M121.585 23.7201V21.9001C121.143 22.5475 120.546 23.0731 119.847 23.4285C119.128 23.8056 118.326 23.9981 117.514 23.9885C116.748 24.0024 115.993 23.8175 115.32 23.4518C114.697 23.1222 114.204 22.5919 113.92 21.9468C113.616 21.0906 113.485 20.1824 113.535 19.2751V11.6685H116.744V17.2335C116.697 18.2789 116.755 19.3265 116.919 20.3601C117.021 20.7284 117.248 21.0499 117.56 21.2701C117.905 21.5014 118.312 21.6197 118.727 21.6085C119.249 21.6137 119.759 21.4545 120.185 21.1535C120.598 20.8924 120.914 20.503 121.084 20.0451C121.293 18.9697 121.372 17.8728 121.317 16.7785V11.6685H124.525V23.7201H121.585Z" fill="#515560"/>
<path d="M130.579 23.7193H127.383V11.6676H130.358V13.3943C130.7 12.7682 131.169 12.2199 131.734 11.7843C132.146 11.5245 132.625 11.3907 133.111 11.3993C133.858 11.4012 134.589 11.6113 135.223 12.006L134.231 14.7943C133.791 14.4766 133.268 14.2941 132.726 14.2693C132.306 14.2552 131.894 14.3871 131.559 14.6426C131.186 15.0065 130.93 15.4738 130.824 15.9843C130.592 17.3205 130.502 18.6775 130.556 20.0326L130.579 23.7193Z" fill="#515560"/>
<path d="M135.515 17.501C135.517 16.4255 135.785 15.3672 136.297 14.421C136.785 13.4344 137.562 12.6203 138.525 12.0877C139.514 11.5567 140.623 11.2877 141.745 11.306C143.418 11.2707 145.032 11.9295 146.202 13.126C147.374 14.3262 148.006 15.9526 147.952 17.6294C148.006 19.3166 147.375 20.9538 146.202 22.1677C145.034 23.3659 143.418 24.0215 141.745 23.976C140.643 23.9804 139.556 23.7245 138.572 23.2294C137.581 22.7593 136.764 21.9874 136.238 21.0244C135.709 19.928 135.461 18.7173 135.515 17.501ZM138.793 17.676C138.722 18.6681 139.026 19.6508 139.645 20.4294C140.177 21.0361 140.944 21.384 141.751 21.384C142.558 21.384 143.325 21.0361 143.857 20.4294C144.477 19.6426 144.781 18.6521 144.708 17.6527C144.776 16.6682 144.472 15.6941 143.857 14.9227C143.325 14.316 142.558 13.9681 141.751 13.9681C140.944 13.9681 140.177 14.316 139.645 14.9227C139.029 15.6982 138.725 16.6762 138.793 17.6644V17.676Z" fill="#515560"/>
<path d="M150.016 11.6677H153.003V13.4527C153.395 12.8349 153.937 12.3254 154.578 11.9711C155.244 11.5853 156.002 11.3877 156.771 11.3994C158.153 11.385 159.469 11.9934 160.353 13.0561C161.399 14.3513 161.923 15.9908 161.823 17.6527C161.907 19.3359 161.381 20.9929 160.341 22.3194C159.44 23.3943 158.103 24.0069 156.701 23.9877C156.072 23.9975 155.449 23.8618 154.881 23.5911C154.248 23.2343 153.68 22.7728 153.201 22.2261V28.3161H150.004L150.016 11.6677ZM153.201 17.5011C153.117 18.5723 153.406 19.6396 154.018 20.5227C154.488 21.1357 155.217 21.4939 155.989 21.4911C156.712 21.4986 157.397 21.1711 157.844 20.6044C158.41 19.7335 158.668 18.6989 158.579 17.6644C158.661 16.6639 158.393 15.6662 157.821 14.8411C157.373 14.2513 156.672 13.9093 155.931 13.9194C155.179 13.9069 154.462 14.2376 153.983 14.8177C153.414 15.592 153.137 16.5424 153.201 17.5011Z" fill="#515560"/>
<path d="M171.133 19.835L174.318 20.36C173.983 21.439 173.302 22.3779 172.381 23.0316C171.395 23.6768 170.233 23.999 169.056 23.9533C167.253 24.0873 165.502 23.3127 164.389 21.8883C163.566 20.66 163.157 19.2005 163.223 17.7233C163.133 16.0238 163.697 14.3545 164.798 13.0566C165.813 11.9382 167.265 11.3165 168.776 11.3533C170.39 11.2731 171.954 11.9245 173.034 13.1266C174.189 14.6996 174.721 16.6446 174.528 18.5866H166.513C166.484 19.3957 166.758 20.1864 167.283 20.8033C167.754 21.3213 168.426 21.6105 169.126 21.5966C169.584 21.6079 170.032 21.464 170.398 21.1883C170.775 20.8226 171.031 20.3504 171.133 19.835ZM171.319 16.5916C171.349 15.8222 171.092 15.0692 170.596 14.48C170.172 14.0132 169.569 13.7499 168.939 13.7566C168.276 13.7412 167.64 14.0186 167.201 14.515C166.722 15.0969 166.484 15.8399 166.536 16.5916H171.319Z" fill="#515560"/>
<path d="M179.498 15.3084L176.593 14.7834C176.832 13.7464 177.426 12.8258 178.273 12.1817C179.331 11.5622 180.549 11.2699 181.773 11.3417C182.858 11.2858 183.943 11.4566 184.958 11.8434C185.577 12.1065 186.096 12.5601 186.44 13.1384C186.793 14.0476 186.941 15.0238 186.872 15.9967V19.7417C186.85 20.5225 186.901 21.3036 187.023 22.0751C187.146 22.6411 187.338 23.1897 187.595 23.7084H184.433C184.356 23.4906 184.251 23.1756 184.118 22.7634C184.118 22.5651 184.025 22.4484 184.013 22.3784C183.504 22.8736 182.906 23.2693 182.252 23.5451C181.621 23.8137 180.942 23.9488 180.257 23.9417C179.181 24.0032 178.125 23.6385 177.317 22.9267C176.146 21.768 175.906 19.9645 176.733 18.5401C177.06 18.0054 177.534 17.5762 178.098 17.3034C178.913 16.952 179.767 16.7013 180.642 16.5567C181.702 16.3949 182.745 16.1332 183.757 15.7751V15.4484C183.804 14.9671 183.638 14.4892 183.302 14.1417C182.791 13.8196 182.187 13.6798 181.587 13.7451C181.116 13.7196 180.648 13.8376 180.245 14.0834C179.874 14.4032 179.612 14.8318 179.498 15.3084ZM183.78 17.9101C183.372 18.0384 182.718 18.2017 181.832 18.4001C181.228 18.4932 180.641 18.6781 180.093 18.9484C179.694 19.2007 179.455 19.6429 179.463 20.1151C179.459 20.5571 179.641 20.9805 179.965 21.2817C180.305 21.6102 180.764 21.7869 181.237 21.7717C181.836 21.7617 182.416 21.5615 182.893 21.2001C183.258 20.9412 183.525 20.5673 183.652 20.1384C183.759 19.6246 183.802 19.0995 183.78 18.5751V17.9101Z" fill="#515560"/>
<path d="M200.941 23.7193H197.744V17.5009C197.79 16.6514 197.719 15.7996 197.534 14.9693C197.418 14.6044 197.184 14.2884 196.869 14.0709C196.524 13.8426 196.115 13.7321 195.702 13.7559C195.17 13.7504 194.648 13.9093 194.209 14.2109C193.785 14.4861 193.469 14.8977 193.311 15.3776C193.105 16.288 193.023 17.2219 193.066 18.1543V23.6376H189.857V11.6676H192.867V13.4526C193.782 12.1575 195.272 11.3908 196.857 11.3993C197.523 11.3915 198.182 11.5226 198.794 11.7843C199.313 11.9887 199.77 12.322 200.124 12.7526C200.418 13.1538 200.628 13.6101 200.742 14.0943C200.878 14.8054 200.936 15.529 200.917 16.2526L200.941 23.7193Z" fill="#515560"/>
</svg>
