<svg width="32" height="32" viewBox="0 0 32 32" fill="none" xmlns="http://www.w3.org/2000/svg">
<path d="M16.0003 2.72021C8.66699 2.72021 2.66699 8.70688 2.66699 16.0802C2.66699 22.7469 7.54699 28.2802 13.9203 29.2802V19.9469H10.5337V16.0802H13.9203V13.1335C13.9203 9.78688 15.907 7.94688 18.9603 7.94688C20.4137 7.94688 21.9337 8.20022 21.9337 8.20022V11.4935H20.2537C18.6003 11.4935 18.0803 12.5202 18.0803 13.5735V16.0802H21.787L21.187 19.9469H18.0803V29.2802C21.2222 28.784 24.0833 27.1809 26.1469 24.7603C28.2105 22.3397 29.3408 19.2611 29.3337 16.0802C29.3337 8.70688 23.3337 2.72021 16.0003 2.72021Z" fill="white"/>
</svg>
