<svg width="31" height="11" viewBox="0 0 31 11" fill="none" xmlns="http://www.w3.org/2000/svg">
<path d="M0.4375 10C0.483073 9.1569 0.65625 8.42318 0.957031 7.79883C1.26237 7.17448 1.85482 6.6071 2.73438 6.09668L4.04688 5.33789C4.63477 4.99609 5.0472 4.70443 5.28418 4.46289C5.65788 4.08464 5.84473 3.65169 5.84473 3.16406C5.84473 2.5944 5.67383 2.14323 5.33203 1.81055C4.99023 1.47331 4.53451 1.30469 3.96484 1.30469C3.12174 1.30469 2.53841 1.6237 2.21484 2.26172C2.04167 2.60352 1.94596 3.07747 1.92773 3.68359H0.676758C0.69043 2.83138 0.847656 2.13639 1.14844 1.59863C1.68164 0.650716 2.62272 0.176758 3.97168 0.176758C5.09277 0.176758 5.91081 0.479818 6.42578 1.08594C6.94531 1.69206 7.20508 2.36654 7.20508 3.10938C7.20508 3.89323 6.92936 4.56315 6.37793 5.11914C6.05892 5.44271 5.48698 5.83464 4.66211 6.29492L3.72559 6.81445C3.27897 7.06055 2.92806 7.29525 2.67285 7.51855C2.21712 7.91504 1.93001 8.35482 1.81152 8.83789H7.15723V10H0.4375ZM11.5801 0.210938C12.847 0.210938 13.763 0.732747 14.3281 1.77637C14.7656 2.58301 14.9844 3.68815 14.9844 5.0918C14.9844 6.42253 14.7861 7.52311 14.3896 8.39355C13.8154 9.64225 12.8766 10.2666 11.5732 10.2666C10.3975 10.2666 9.52246 9.75618 8.94824 8.73535C8.46973 7.88314 8.23047 6.73926 8.23047 5.30371C8.23047 4.19173 8.37402 3.23698 8.66113 2.43945C9.19889 0.953776 10.1719 0.210938 11.5801 0.210938ZM11.5664 9.14551C12.2044 9.14551 12.7126 8.86296 13.0908 8.29785C13.4691 7.73275 13.6582 6.68001 13.6582 5.13965C13.6582 4.02767 13.5215 3.11393 13.248 2.39844C12.9746 1.67839 12.4437 1.31836 11.6553 1.31836C10.9307 1.31836 10.3997 1.66016 10.0625 2.34375C9.72982 3.02279 9.56348 4.02539 9.56348 5.35156C9.56348 6.34961 9.67057 7.15169 9.88477 7.75781C10.2129 8.68294 10.7734 9.14551 11.5664 9.14551ZM16.0234 10C16.069 9.1569 16.2422 8.42318 16.543 7.79883C16.8483 7.17448 17.4408 6.6071 18.3203 6.09668L19.6328 5.33789C20.2207 4.99609 20.6331 4.70443 20.8701 4.46289C21.2438 4.08464 21.4307 3.65169 21.4307 3.16406C21.4307 2.5944 21.2598 2.14323 20.918 1.81055C20.5762 1.47331 20.1204 1.30469 19.5508 1.30469C18.7077 1.30469 18.1243 1.6237 17.8008 2.26172C17.6276 2.60352 17.5319 3.07747 17.5137 3.68359H16.2627C16.2764 2.83138 16.4336 2.13639 16.7344 1.59863C17.2676 0.650716 18.2087 0.176758 19.5576 0.176758C20.6787 0.176758 21.4967 0.479818 22.0117 1.08594C22.5312 1.69206 22.791 2.36654 22.791 3.10938C22.791 3.89323 22.5153 4.56315 21.9639 5.11914C21.6449 5.44271 21.0729 5.83464 20.248 6.29492L19.3115 6.81445C18.8649 7.06055 18.514 7.29525 18.2588 7.51855C17.8031 7.91504 17.516 8.35482 17.3975 8.83789H22.7432V10H16.0234ZM28.0068 6.53418V2.09766L24.8691 6.53418H28.0068ZM28.0273 10V7.60742H23.7344V6.4043L28.2188 0.183594H29.2578V6.53418H30.7002V7.60742H29.2578V10H28.0273Z" fill="black"/>
</svg>
