<svg width="30" height="30" viewBox="0 0 30 30" fill="none" xmlns="http://www.w3.org/2000/svg">
<path d="M15 30C23.2843 30 30 23.2843 30 15C30 6.71573 23.2843 0 15 0C6.71573 0 0 6.71573 0 15C0 23.2843 6.71573 30 15 30Z" fill="#E20102"/>
<path d="M9.00716 10.0022C9.21401 9.78741 9.49453 9.66675 9.78702 9.66675C10.0795 9.66675 10.36 9.78741 10.5669 10.0022L14.4672 14.0536L18.3676 10.0022C18.5757 9.7935 18.8543 9.67802 19.1435 9.68063C19.4327 9.68324 19.7094 9.80373 19.9139 10.0162C20.1184 10.2286 20.2344 10.516 20.2369 10.8164C20.2394 11.1168 20.1283 11.4062 19.9273 11.6223L16.027 15.6737L19.9273 19.725C20.1283 19.9411 20.2394 20.2305 20.2369 20.531C20.2344 20.8314 20.1184 21.1187 19.9139 21.3312C19.7094 21.5436 19.4327 21.6641 19.1435 21.6667C18.8543 21.6693 18.5757 21.5538 18.3676 21.3451L14.4672 17.2938L10.5669 21.3451C10.3588 21.5538 10.0802 21.6693 9.79099 21.6667C9.50177 21.6641 9.22511 21.5436 9.0206 21.3312C8.81608 21.1187 8.70008 20.8314 8.69756 20.531C8.69505 20.2305 8.80623 19.9411 9.00716 19.725L12.9075 15.6737L9.00716 11.6223C8.80037 11.4074 8.6842 11.1161 8.6842 10.8123C8.6842 10.5084 8.80037 10.2171 9.00716 10.0022Z" fill="white"/>
</svg>
