<svg width="100" height="120" viewBox="0 0 114 142" fill="none" xmlns="http://www.w3.org/2000/svg">
<path d="M1 40.494L6.1576 31.0041L7.87682 31.4777L8.21693 35.7964L9.61495 35.8911L12.1276 39.6985L13.4312 40.3425L15.7739 39.7174L25.1634 29.5077L36.4611 22.1961L48.1366 8.14115L52.7464 6.41743L56.7894 2.43961L63.0428 1L67.6526 2.42065L69.7496 5.48929L69.504 6.49321L74.6805 18.8244L80.1404 25.17L86.904 30.398L92.4205 33.2771L96.388 31.8944L100.563 27.8976L105.872 28.5606L108.744 30.7389L111.426 34.7925L113.127 45.4379L108.819 57.5986L105.437 58.2805L93.2518 57.2387L96.0479 66.5203L96.7658 72.7521L97.9938 74.9305L97.9749 85.9547L92.7984 97.5282L92.7606 99.8581L94.801 101.885L95.9723 106.715L97.8427 119.293L96.3313 122.57L91.287 127.741L91.5704 132.741L93.0818 138.272L91.8538 141L90.4746 140.867L86.4883 136.113L85.0336 135.943L81.274 132.722L74.416 134.636L73.7926 131.87L69.9196 129.332L64.7998 128.82L55.6748 130.506L54.5412 129.048L52.9731 128.726L53.0487 127.703L50.9327 126.301L48.8924 126.131L45.7562 127.949L41.2409 125.297L39.805 123.441L39.465 120.581L35.9132 113.402L36.5745 109.329L34.0618 108.136L32.9471 103.249L31.7947 103.002L28.224 105.143L26.8638 103.741L27.8084 100.673L27.0338 98.0775L28.583 97.5282L29.1497 95.7098L26.6748 92.2056L24.1432 85.3107L21.4605 81.9011L14.1869 79.7039L13.4501 78.681L14.2625 74.2296L15.4338 72.6574L14.9804 70.839L18.4755 66.1414L21.6683 63.982L23.0853 61.9363L25.4468 55.4013L24.7667 53.9049L17.7198 50.6848L13.8468 50.5333L9.23708 47.8624L2.0013 48.1087L1.83127 41.2517L1 40.494Z" fill="#F9E5E5" stroke="#77121A" stroke-width="0.5"/>
</svg>
