<svg width="30" height="30" viewBox="0 0 30 30" fill="none" xmlns="http://www.w3.org/2000/svg">
<g clip-path="url(#clip0_72_9036)">
<path d="M4.33545 12.2812C4.33545 12.723 4.58467 13.3404 5.304 13.9975C7.87549 12.6268 11.4099 11.8281 15.2104 11.8281C19.011 11.8281 22.5454 12.6268 25.1169 13.9975C25.8362 13.3404 26.0854 12.723 26.0854 12.2812C26.0854 11.5846 25.4737 10.4687 23.3724 9.41523C21.3786 8.41836 18.4956 7.75 15.2104 7.75C11.9253 7.75 9.04228 8.41836 7.04854 9.41523C4.94717 10.4687 4.33545 11.5846 4.33545 12.2812ZM15.2104 14.5469C12.5483 14.5469 10.1524 14.9773 8.24932 15.6627C10.1298 16.3707 12.537 16.8125 15.2104 16.8125C17.8839 16.8125 20.2911 16.3707 22.1716 15.6627C20.2685 14.9773 17.8726 14.5469 15.2104 14.5469ZM0.710449 12.2812C0.710449 9.47188 2.94209 7.42148 5.42861 6.17539C8.02275 4.87832 11.4892 4.125 15.2104 4.125C18.9317 4.125 22.3981 4.87832 24.9923 6.17539C27.4788 7.42148 29.7104 9.47188 29.7104 12.2812V17.7188C29.7104 20.5281 27.4788 22.5785 24.9923 23.8246C22.3981 25.1217 18.9317 25.875 15.2104 25.875C11.4892 25.875 8.02275 25.1217 5.42861 23.8246C2.94209 22.5785 0.710449 20.5281 0.710449 17.7188V12.2812Z" fill="#00DF71"/>
</g>
<defs>
<clipPath id="clip0_72_9036">
<rect width="29" height="29" fill="white" transform="translate(0.710449 0.5)"/>
</clipPath>
</defs>
</svg>
