<svg width="27" height="27" viewBox="0 0 27 27" fill="none" xmlns="http://www.w3.org/2000/svg">
<path d="M12.6579 23.8518C14.1701 23.9648 15.4876 22.8305 15.6007 21.3183C15.7137 19.8061 14.5794 18.4886 13.0672 18.3756C11.555 18.2625 10.2375 19.3968 10.1244 20.909C10.0114 22.4212 11.1457 23.7387 12.6579 23.8518Z" fill="url(#paint0_radial_2381_20100)"/>
<path d="M12.6579 23.8518C14.1701 23.9648 15.4876 22.8305 15.6007 21.3183C15.7137 19.8061 14.5794 18.4886 13.0672 18.3756C11.555 18.2625 10.2375 19.3968 10.1244 20.909C10.0114 22.4212 11.1457 23.7387 12.6579 23.8518Z" fill="url(#paint1_linear_2381_20100)"/>
<path d="M12.6579 23.8518C14.1701 23.9648 15.4876 22.8305 15.6007 21.3183C15.7137 19.8061 14.5794 18.4886 13.0672 18.3756C11.555 18.2625 10.2375 19.3968 10.1244 20.909C10.0114 22.4212 11.1457 23.7387 12.6579 23.8518Z" fill="url(#paint2_radial_2381_20100)"/>
<g filter="url(#filter0_i_2381_20100)">
<path d="M15.0471 3.97748C15.0843 3.48015 14.7113 3.04686 14.214 3.00969C13.7166 2.97252 13.2833 3.34555 13.2462 3.84287L13.137 5.30355C13.0998 5.80087 13.4729 6.23417 13.9702 6.27134C14.4675 6.30851 14.9008 5.93548 14.938 5.43816L15.0471 3.97748Z" fill="url(#paint3_radial_2381_20100)"/>
</g>
<g filter="url(#filter1_iii_2381_20100)">
<path d="M7.733 9.00338C8.1026 7.67673 8.91733 6.5176 10.0404 5.72057C11.1635 4.92353 12.5266 4.53712 13.9009 4.62618L14.2846 4.65486C15.6567 4.77124 16.947 5.35606 17.939 6.31116C18.931 7.26627 19.5643 8.53352 19.7325 9.90025L20.6029 16.9718C20.6656 17.4804 20.8575 17.9644 21.1604 18.3778L22.0067 19.5323C22.4285 20.1087 22.6308 20.8167 22.5772 21.5289L22.5031 22.5206C22.492 22.6694 22.4222 22.8076 22.3092 22.905C22.1961 23.0023 22.049 23.0507 21.9002 23.0396L3.63617 21.6745C3.4874 21.6634 3.34915 21.5936 3.25181 21.4806C3.15448 21.3675 3.10605 21.2204 3.11716 21.0717L3.19129 20.0799C3.2442 19.3677 3.54949 18.6976 4.05227 18.1903L5.06074 17.1752C5.42155 16.8111 5.68307 16.3607 5.82037 15.8669L7.733 9.00338Z" fill="url(#paint4_linear_2381_20100)"/>
</g>
<path d="M7.733 9.00338C8.1026 7.67673 8.91733 6.5176 10.0404 5.72057C11.1635 4.92353 12.5266 4.53712 13.9009 4.62618L14.2846 4.65486C15.6567 4.77124 16.947 5.35606 17.939 6.31116C18.931 7.26627 19.5643 8.53352 19.7325 9.90025L20.6029 16.9718C20.6656 17.4804 20.8575 17.9644 21.1604 18.3778L22.0067 19.5323C22.4285 20.1087 22.6308 20.8167 22.5772 21.5289L22.5031 22.5206C22.492 22.6694 22.4222 22.8076 22.3092 22.905C22.1961 23.0023 22.049 23.0507 21.9002 23.0396L3.63617 21.6745C3.4874 21.6634 3.34915 21.5936 3.25181 21.4806C3.15448 21.3675 3.10605 21.2204 3.11716 21.0717L3.19129 20.0799C3.2442 19.3677 3.54949 18.6976 4.05227 18.1903L5.06074 17.1752C5.42155 16.8111 5.68307 16.3607 5.82037 15.8669L7.733 9.00338Z" fill="url(#paint5_linear_2381_20100)"/>
<path d="M7.733 9.00338C8.1026 7.67673 8.91733 6.5176 10.0404 5.72057C11.1635 4.92353 12.5266 4.53712 13.9009 4.62618L14.2846 4.65486C15.6567 4.77124 16.947 5.35606 17.939 6.31116C18.931 7.26627 19.5643 8.53352 19.7325 9.90025L20.6029 16.9718C20.6656 17.4804 20.8575 17.9644 21.1604 18.3778L22.0067 19.5323C22.4285 20.1087 22.6308 20.8167 22.5772 21.5289L22.5031 22.5206C22.492 22.6694 22.4222 22.8076 22.3092 22.905C22.1961 23.0023 22.049 23.0507 21.9002 23.0396L3.63617 21.6745C3.4874 21.6634 3.34915 21.5936 3.25181 21.4806C3.15448 21.3675 3.10605 21.2204 3.11716 21.0717L3.19129 20.0799C3.2442 19.3677 3.54949 18.6976 4.05227 18.1903L5.06074 17.1752C5.42155 16.8111 5.68307 16.3607 5.82037 15.8669L7.733 9.00338Z" fill="url(#paint6_radial_2381_20100)"/>
<g filter="url(#filter2_f_2381_20100)">
<path d="M6.76567 16.9331L5.47789 18.435L21.1841 19.6089L20.0411 17.9253L6.76567 16.9331Z" fill="url(#paint7_linear_2381_20100)"/>
</g>
<g filter="url(#filter3_f_2381_20100)">
<path d="M14.3998 8.48783C14.4309 8.07364 14.6127 7.6852 14.9108 7.396C15.2089 7.1068 15.6027 6.9369 16.0176 6.91844C16.4326 6.89998 16.8399 7.03425 17.1625 7.29584C17.4851 7.55742 17.7007 7.92819 17.7684 8.33798L19.3392 17.8716L13.7298 17.4523L14.3998 8.48783Z" fill="url(#paint8_linear_2381_20100)"/>
</g>
<defs>
<filter id="filter0_i_2381_20100" x="13.1348" y="3.00684" width="2.11504" height="3.2666" filterUnits="userSpaceOnUse" color-interpolation-filters="sRGB">
<feFlood flood-opacity="0" result="BackgroundImageFix"/>
<feBlend mode="normal" in="SourceGraphic" in2="BackgroundImageFix" result="shape"/>
<feColorMatrix in="SourceAlpha" type="matrix" values="0 0 0 0 0 0 0 0 0 0 0 0 0 0 0 0 0 0 127 0" result="hardAlpha"/>
<feOffset dx="0.2"/>
<feGaussianBlur stdDeviation="0.25"/>
<feComposite in2="hardAlpha" operator="arithmetic" k2="-1" k3="1"/>
<feColorMatrix type="matrix" values="0 0 0 0 0.87451 0 0 0 0 0.564706 0 0 0 0 0.341176 0 0 0 1 0"/>
<feBlend mode="normal" in2="shape" result="effect1_innerShadow_2381_20100"/>
</filter>
<filter id="filter1_iii_2381_20100" x="-0.884766" y="4.61328" width="24.4707" height="18.4277" filterUnits="userSpaceOnUse" color-interpolation-filters="sRGB">
<feFlood flood-opacity="0" result="BackgroundImageFix"/>
<feBlend mode="normal" in="SourceGraphic" in2="BackgroundImageFix" result="shape"/>
<feColorMatrix in="SourceAlpha" type="matrix" values="0 0 0 0 0 0 0 0 0 0 0 0 0 0 0 0 0 0 127 0" result="hardAlpha"/>
<feOffset dx="-4"/>
<feGaussianBlur stdDeviation="2"/>
<feComposite in2="hardAlpha" operator="arithmetic" k2="-1" k3="1"/>
<feColorMatrix type="matrix" values="0 0 0 0 1 0 0 0 0 0.905882 0 0 0 0 0.392157 0 0 0 1 0"/>
<feBlend mode="normal" in2="shape" result="effect1_innerShadow_2381_20100"/>
<feColorMatrix in="SourceAlpha" type="matrix" values="0 0 0 0 0 0 0 0 0 0 0 0 0 0 0 0 0 0 127 0" result="hardAlpha"/>
<feOffset dx="-0.5"/>
<feGaussianBlur stdDeviation="0.5"/>
<feComposite in2="hardAlpha" operator="arithmetic" k2="-1" k3="1"/>
<feColorMatrix type="matrix" values="0 0 0 0 0.996078 0 0 0 0 0.866667 0 0 0 0 0.462745 0 0 0 1 0"/>
<feBlend mode="normal" in2="effect1_innerShadow_2381_20100" result="effect2_innerShadow_2381_20100"/>
<feColorMatrix in="SourceAlpha" type="matrix" values="0 0 0 0 0 0 0 0 0 0 0 0 0 0 0 0 0 0 127 0" result="hardAlpha"/>
<feOffset dx="1"/>
<feGaussianBlur stdDeviation="1"/>
<feComposite in2="hardAlpha" operator="arithmetic" k2="-1" k3="1"/>
<feColorMatrix type="matrix" values="0 0 0 0 0.917647 0 0 0 0 0.572549 0 0 0 0 0.32549 0 0 0 1 0"/>
<feBlend mode="normal" in2="effect2_innerShadow_2381_20100" result="effect3_innerShadow_2381_20100"/>
</filter>
<filter id="filter2_f_2381_20100" x="3.47754" y="14.9326" width="19.7061" height="6.67676" filterUnits="userSpaceOnUse" color-interpolation-filters="sRGB">
<feFlood flood-opacity="0" result="BackgroundImageFix"/>
<feBlend mode="normal" in="SourceGraphic" in2="BackgroundImageFix" result="shape"/>
<feGaussianBlur stdDeviation="1" result="effect1_foregroundBlur_2381_20100"/>
</filter>
<filter id="filter3_f_2381_20100" x="11.7295" y="4.91699" width="9.60938" height="14.9541" filterUnits="userSpaceOnUse" color-interpolation-filters="sRGB">
<feFlood flood-opacity="0" result="BackgroundImageFix"/>
<feBlend mode="normal" in="SourceGraphic" in2="BackgroundImageFix" result="shape"/>
<feGaussianBlur stdDeviation="1" result="effect1_foregroundBlur_2381_20100"/>
</filter>
<radialGradient id="paint0_radial_2381_20100" cx="0" cy="0" r="1" gradientUnits="userSpaceOnUse" gradientTransform="translate(13.9923 23.6777) rotate(-122.238) scale(2.21622 3.06071)">
<stop stop-color="#FFC26D"/>
<stop offset="1" stop-color="#F68D61"/>
</radialGradient>
<linearGradient id="paint1_linear_2381_20100" x1="12.2579" y1="21.7378" x2="12.3452" y2="23.0846" gradientUnits="userSpaceOnUse">
<stop offset="0.186" stop-color="#E57356"/>
<stop offset="1" stop-color="#E57356" stop-opacity="0"/>
</linearGradient>
<radialGradient id="paint2_radial_2381_20100" cx="0" cy="0" r="1" gradientUnits="userSpaceOnUse" gradientTransform="translate(13.4977 21.5011) rotate(139.274) scale(3.0494 5.03179)">
<stop offset="0.441" stop-color="#EA8059" stop-opacity="0"/>
<stop offset="1" stop-color="#C27068"/>
</radialGradient>
<radialGradient id="paint3_radial_2381_20100" cx="0" cy="0" r="1" gradientUnits="userSpaceOnUse" gradientTransform="translate(14.6837 4.68436) rotate(-85.7255) scale(1.63549 0.984375)">
<stop stop-color="#FFE957"/>
<stop offset="1" stop-color="#F7A630"/>
</radialGradient>
<linearGradient id="paint4_linear_2381_20100" x1="14.7159" y1="21.1218" x2="4.6034" y2="20.366" gradientUnits="userSpaceOnUse">
<stop stop-color="#FCB949"/>
<stop offset="1" stop-color="#E28C37"/>
</linearGradient>
<linearGradient id="paint5_linear_2381_20100" x1="14.3273" y1="22.6684" x2="14.495" y2="20.4247" gradientUnits="userSpaceOnUse">
<stop stop-color="#D7737D"/>
<stop offset="0.302" stop-color="#FCA162" stop-opacity="0"/>
</linearGradient>
<radialGradient id="paint6_radial_2381_20100" cx="0" cy="0" r="1" gradientUnits="userSpaceOnUse" gradientTransform="translate(18.0301 12.7445) rotate(150.413) scale(17.1622 16.4638)">
<stop offset="0.67" stop-color="#E69136" stop-opacity="0"/>
<stop offset="0.977" stop-color="#CF7D44"/>
</radialGradient>
<linearGradient id="paint7_linear_2381_20100" x1="5.71199" y1="18.4525" x2="20.7166" y2="19.574" gradientUnits="userSpaceOnUse">
<stop offset="0.277" stop-color="#F5A43C"/>
<stop offset="1" stop-color="#FFE154"/>
</linearGradient>
<linearGradient id="paint8_linear_2381_20100" x1="20.1527" y1="15.8717" x2="12.9481" y2="15.3332" gradientUnits="userSpaceOnUse">
<stop offset="0.118" stop-color="#FFEF6D"/>
<stop offset="1" stop-color="#FFEF6D" stop-opacity="0"/>
</linearGradient>
</defs>
</svg>
