<svg width="28" height="28" viewBox="0 0 28 28" fill="none" xmlns="http://www.w3.org/2000/svg">
<path d="M17.2932 22.7072C17.1057 22.5197 17.0004 22.2654 17.0004 22.0002C17.0004 21.735 17.1057 21.4807 17.2932 21.2932L21.5862 17.0002H13.0002C7.47721 17.0002 3.00021 12.5232 3.00021 7.00021C3.00021 6.735 3.10557 6.48064 3.29311 6.29311C3.48064 6.10557 3.735 6.00021 4.00021 6.00021C4.26543 6.00021 4.51978 6.10557 4.70732 6.29311C4.89486 6.48064 5.00021 6.735 5.00021 7.00021C5.00021 9.12195 5.84307 11.1568 7.34336 12.6571C8.84365 14.1574 10.8785 15.0002 13.0002 15.0002H21.5862L17.2932 10.7072C17.1111 10.5186 17.0103 10.266 17.0125 10.0038C17.0148 9.74162 17.12 9.4908 17.3054 9.3054C17.4908 9.11999 17.7416 9.01482 18.0038 9.01254C18.266 9.01026 18.5186 9.11105 18.7072 9.29321L24.7072 15.2932C24.8947 15.4807 25 15.735 25 16.0002C25 16.2654 24.8947 16.5197 24.7072 16.7072L18.7072 22.7072C18.5197 22.8947 18.2654 23 18.0002 23C17.735 23 17.4807 22.8947 17.2932 22.7072Z" fill="black"/>
</svg>
