<svg width="1584" height="269" viewBox="0 0 1584 269" fill="none" xmlns="http://www.w3.org/2000/svg">
<path fill-rule="evenodd" clip-rule="evenodd" d="M56.9269 31.4998L44.8025 10.4998L20.5538 10.4998L8.42946 31.4998L12.4954 38.5422L36.6706 52.4998L44.8025 52.4998L56.9269 31.4998Z" fill="#0C1821"/>
<path fill-rule="evenodd" clip-rule="evenodd" d="M56.9261 31.5L44.8018 10.5L20.5531 10.5L16.0605 18.2814L40.6366 17.9134L52.493 39.1784L56.9261 31.5Z" fill="#0F202C"/>
<path fill-rule="evenodd" clip-rule="evenodd" d="M49.2113 44.8638L37.0869 23.8638L12.8382 23.8638L8.34562 31.6452L32.9217 31.2771L44.7781 52.5422L49.2113 44.8638Z" fill="#0F202C"/>
<path fill-rule="evenodd" clip-rule="evenodd" d="M40.8656 59.3184L28.7412 38.3184L4.49251 38.3184L-8.10623e-05 46.0998L24.576 45.7317L36.4324 66.9968L40.8656 59.3184Z" fill="#0F202C"/>
<path fill-rule="evenodd" clip-rule="evenodd" d="M110.988 12.1243L89.9883 -3.90649e-05L68.9883 12.1243L68.9883 36.373L76.0307 40.439L103.946 40.439L110.988 36.373L110.988 12.1243Z" fill="#0C1821"/>
<path fill-rule="evenodd" clip-rule="evenodd" d="M110.988 12.1244L89.9883 -2.04429e-07L68.9883 12.1244L68.9883 21.1096L90.0878 8.50278L110.988 20.9906L110.988 12.1244Z" fill="#0F202C"/>
<path fill-rule="evenodd" clip-rule="evenodd" d="M110.988 27.5555L89.9883 15.4312L68.9883 27.5555L68.9883 36.5407L90.0878 23.9339L110.988 36.4218L110.988 27.5555Z" fill="#0F202C"/>
<path fill-rule="evenodd" clip-rule="evenodd" d="M110.988 44.2464L89.9883 32.1221L68.9883 44.2464L68.9883 53.2316L90.0878 40.6249L110.988 53.1127L110.988 44.2464Z" fill="#0F202C"/>
<path fill-rule="evenodd" clip-rule="evenodd" d="M173.915 31.4998L161.791 10.4998L137.542 10.4998L125.418 31.4998L129.484 38.5422L153.659 52.4998L161.791 52.4998L173.915 31.4998Z" fill="#0C1821"/>
<path fill-rule="evenodd" clip-rule="evenodd" d="M173.914 31.5L161.79 10.5L137.541 10.5L133.049 18.2814L157.625 17.9134L169.481 39.1784L173.914 31.5Z" fill="#0F202C"/>
<path fill-rule="evenodd" clip-rule="evenodd" d="M166.2 44.8638L154.075 23.8638L129.826 23.8638L125.334 31.6452L149.91 31.2771L161.766 52.5422L166.2 44.8638Z" fill="#0F202C"/>
<path fill-rule="evenodd" clip-rule="evenodd" d="M157.854 59.3184L145.729 38.3184L121.481 38.3184L116.988 46.0998L141.564 45.7317L153.421 66.9968L157.854 59.3184Z" fill="#0F202C"/>
<path fill-rule="evenodd" clip-rule="evenodd" d="M227.978 12.1243L206.978 -3.90649e-05L185.978 12.1243L185.978 36.373L193.02 40.439L220.935 40.439L227.978 36.373L227.978 12.1243Z" fill="#0C1821"/>
<path fill-rule="evenodd" clip-rule="evenodd" d="M227.978 12.1244L206.978 -2.04429e-07L185.978 12.1244L185.978 21.1096L207.077 8.50278L227.978 20.9906L227.978 12.1244Z" fill="#0F202C"/>
<path fill-rule="evenodd" clip-rule="evenodd" d="M227.978 27.5555L206.978 15.4312L185.978 27.5555L185.978 36.5407L207.077 23.9339L227.978 36.4218L227.978 27.5555Z" fill="#0F202C"/>
<path fill-rule="evenodd" clip-rule="evenodd" d="M227.978 44.2464L206.978 32.1221L185.978 44.2464L185.978 53.2316L207.077 40.6249L227.978 53.1127L227.978 44.2464Z" fill="#0F202C"/>
<path fill-rule="evenodd" clip-rule="evenodd" d="M290.904 31.4998L278.78 10.4998L254.531 10.4998L242.407 31.4998L246.473 38.5422L270.648 52.4998L278.78 52.4998L290.904 31.4998Z" fill="#0C1821"/>
<path fill-rule="evenodd" clip-rule="evenodd" d="M290.904 31.5L278.78 10.5L254.531 10.5L250.038 18.2814L274.615 17.9134L286.471 39.1784L290.904 31.5Z" fill="#0F202C"/>
<path fill-rule="evenodd" clip-rule="evenodd" d="M283.189 44.8638L271.064 23.8638L246.816 23.8638L242.323 31.6452L266.899 31.2771L278.756 52.5422L283.189 44.8638Z" fill="#0F202C"/>
<path fill-rule="evenodd" clip-rule="evenodd" d="M274.843 59.3184L262.719 38.3184L238.47 38.3184L233.977 46.0998L258.554 45.7317L270.41 66.9968L274.843 59.3184Z" fill="#0F202C"/>
<path fill-rule="evenodd" clip-rule="evenodd" d="M359.892 31.4998L347.768 10.4998L323.519 10.4998L311.395 31.4998L315.461 38.5422L339.636 52.4998L347.768 52.4998L359.892 31.4998Z" fill="#0C1821"/>
<path fill-rule="evenodd" clip-rule="evenodd" d="M359.892 31.5L347.768 10.5L323.519 10.5L319.027 18.2814L343.603 17.9134L355.459 39.1784L359.892 31.5Z" fill="#0F202C"/>
<path fill-rule="evenodd" clip-rule="evenodd" d="M352.177 44.8638L340.052 23.8638L315.804 23.8638L311.311 31.6452L335.887 31.2771L347.743 52.5422L352.177 44.8638Z" fill="#0F202C"/>
<path fill-rule="evenodd" clip-rule="evenodd" d="M343.831 59.3184L331.707 38.3184L307.458 38.3184L302.966 46.0998L327.542 45.7317L339.398 66.9968L343.831 59.3184Z" fill="#0F202C"/>
<path fill-rule="evenodd" clip-rule="evenodd" d="M413.955 12.1243L392.955 -3.90649e-05L371.955 12.1243L371.955 36.373L378.997 40.439L406.912 40.439L413.955 36.373L413.955 12.1243Z" fill="#0C1821"/>
<path fill-rule="evenodd" clip-rule="evenodd" d="M413.955 12.1244L392.955 -2.04429e-07L371.955 12.1244L371.955 21.1096L393.054 8.50278L413.955 20.9906L413.955 12.1244Z" fill="#0F202C"/>
<path fill-rule="evenodd" clip-rule="evenodd" d="M413.955 27.5555L392.955 15.4312L371.955 27.5555L371.955 36.5407L393.054 23.9339L413.955 36.4218L413.955 27.5555Z" fill="#0F202C"/>
<path fill-rule="evenodd" clip-rule="evenodd" d="M413.955 44.2464L392.955 32.1221L371.955 44.2464L371.955 53.2316L393.054 40.6249L413.955 53.1127L413.955 44.2464Z" fill="#0F202C"/>
<path fill-rule="evenodd" clip-rule="evenodd" d="M476.881 31.4998L464.757 10.4998L440.508 10.4998L428.384 31.4998L432.449 38.5422L456.625 52.4998L464.757 52.4998L476.881 31.4998Z" fill="#0C1821"/>
<path fill-rule="evenodd" clip-rule="evenodd" d="M476.881 31.5L464.757 10.5L440.508 10.5L436.016 18.2814L460.592 17.9134L472.448 39.1784L476.881 31.5Z" fill="#0F202C"/>
<path fill-rule="evenodd" clip-rule="evenodd" d="M469.165 44.8638L457.041 23.8638L432.792 23.8638L428.3 31.6452L452.876 31.2771L464.732 52.5422L469.165 44.8638Z" fill="#0F202C"/>
<path fill-rule="evenodd" clip-rule="evenodd" d="M460.82 59.3184L448.696 38.3184L424.447 38.3184L419.955 46.0998L444.531 45.7317L456.387 66.9968L460.82 59.3184Z" fill="#0F202C"/>
<path fill-rule="evenodd" clip-rule="evenodd" d="M530.943 12.1243L509.943 -3.90649e-05L488.943 12.1243L488.943 36.373L495.986 40.439L523.901 40.439L530.943 36.373L530.943 12.1243Z" fill="#0C1821"/>
<path fill-rule="evenodd" clip-rule="evenodd" d="M530.943 12.1244L509.943 -2.04429e-07L488.943 12.1244L488.943 21.1096L510.043 8.50278L530.943 20.9906L530.943 12.1244Z" fill="#0F202C"/>
<path fill-rule="evenodd" clip-rule="evenodd" d="M530.943 27.5555L509.943 15.4312L488.943 27.5555L488.943 36.5407L510.043 23.9339L530.943 36.4218L530.943 27.5555Z" fill="#0F202C"/>
<path fill-rule="evenodd" clip-rule="evenodd" d="M530.943 44.2464L509.943 32.1221L488.943 44.2464L488.943 53.2316L510.043 40.6249L530.943 53.1127L530.943 44.2464Z" fill="#0F202C"/>
<path fill-rule="evenodd" clip-rule="evenodd" d="M593.87 31.4998L581.745 10.4998L557.497 10.4998L545.372 31.4998L549.438 38.5422L573.614 52.4998L581.745 52.4998L593.87 31.4998Z" fill="#0C1821"/>
<path fill-rule="evenodd" clip-rule="evenodd" d="M593.87 31.5L581.746 10.5L557.497 10.5L553.004 18.2814L577.58 17.9134L589.437 39.1784L593.87 31.5Z" fill="#0F202C"/>
<path fill-rule="evenodd" clip-rule="evenodd" d="M586.154 44.8638L574.03 23.8638L549.781 23.8638L545.288 31.6452L569.865 31.2771L581.721 52.5422L586.154 44.8638Z" fill="#0F202C"/>
<path fill-rule="evenodd" clip-rule="evenodd" d="M577.809 59.3184L565.685 38.3184L541.436 38.3184L536.943 46.0998L561.519 45.7317L573.376 66.9968L577.809 59.3184Z" fill="#0F202C"/>
<path fill-rule="evenodd" clip-rule="evenodd" d="M647.932 12.1243L626.932 -3.90649e-05L605.932 12.1243L605.932 36.373L612.975 40.439L640.89 40.439L647.932 36.373L647.932 12.1243Z" fill="#0C1821"/>
<path fill-rule="evenodd" clip-rule="evenodd" d="M647.932 12.1244L626.932 -2.04429e-07L605.932 12.1244L605.932 21.1096L627.032 8.50278L647.932 20.9906L647.932 12.1244Z" fill="#0F202C"/>
<path fill-rule="evenodd" clip-rule="evenodd" d="M647.932 27.5555L626.932 15.4312L605.932 27.5555L605.932 36.5407L627.032 23.9339L647.932 36.4218L647.932 27.5555Z" fill="#0F202C"/>
<path fill-rule="evenodd" clip-rule="evenodd" d="M647.932 44.2464L626.932 32.1221L605.932 44.2464L605.932 53.2316L627.032 40.6249L647.932 53.1127L647.932 44.2464Z" fill="#0F202C"/>
<path fill-rule="evenodd" clip-rule="evenodd" d="M710.859 31.4998L698.734 10.4998L674.485 10.4998L662.361 31.4998L666.427 38.5422L690.602 52.4998L698.734 52.4998L710.859 31.4998Z" fill="#0C1821"/>
<path fill-rule="evenodd" clip-rule="evenodd" d="M710.859 31.5L698.734 10.5L674.486 10.5L669.993 18.2814L694.569 17.9134L706.426 39.1784L710.859 31.5Z" fill="#0F202C"/>
<path fill-rule="evenodd" clip-rule="evenodd" d="M703.143 44.8638L691.019 23.8638L666.77 23.8638L662.277 31.6452L686.853 31.2771L698.71 52.5422L703.143 44.8638Z" fill="#0F202C"/>
<path fill-rule="evenodd" clip-rule="evenodd" d="M694.798 59.3184L682.673 38.3184L658.425 38.3184L653.932 46.0998L678.508 45.7317L690.365 66.9968L694.798 59.3184Z" fill="#0F202C"/>
<path fill-rule="evenodd" clip-rule="evenodd" d="M764.921 12.1243L743.921 -3.90649e-05L722.921 12.1243L722.921 36.373L729.963 40.439L757.878 40.439L764.921 36.373L764.921 12.1243Z" fill="#0C1821"/>
<path fill-rule="evenodd" clip-rule="evenodd" d="M764.921 12.1244L743.921 -2.04429e-07L722.921 12.1244L722.921 21.1096L744.02 8.50278L764.921 20.9906L764.921 12.1244Z" fill="#0F202C"/>
<path fill-rule="evenodd" clip-rule="evenodd" d="M764.921 27.5555L743.921 15.4312L722.921 27.5555L722.921 36.5407L744.02 23.9339L764.921 36.4218L764.921 27.5555Z" fill="#0F202C"/>
<path fill-rule="evenodd" clip-rule="evenodd" d="M764.921 44.2464L743.921 32.1221L722.921 44.2464L722.921 53.2316L744.02 40.6249L764.921 53.1127L764.921 44.2464Z" fill="#0F202C"/>
<path fill-rule="evenodd" clip-rule="evenodd" d="M827.847 31.4998L815.723 10.4998L791.474 10.4998L779.35 31.4998L783.416 38.5422L807.591 52.4998L815.723 52.4998L827.847 31.4998Z" fill="#0C1821"/>
<path fill-rule="evenodd" clip-rule="evenodd" d="M827.848 31.5L815.723 10.5L791.474 10.5L786.982 18.2814L811.558 17.9134L823.414 39.1784L827.848 31.5Z" fill="#0F202C"/>
<path fill-rule="evenodd" clip-rule="evenodd" d="M820.132 44.8638L808.007 23.8638L783.759 23.8638L779.266 31.6452L803.842 31.2771L815.699 52.5422L820.132 44.8638Z" fill="#0F202C"/>
<path fill-rule="evenodd" clip-rule="evenodd" d="M811.786 59.3184L799.662 38.3184L775.413 38.3184L770.921 46.0998L795.497 45.7317L807.353 66.9968L811.786 59.3184Z" fill="#0F202C"/>
<path fill-rule="evenodd" clip-rule="evenodd" d="M881.909 12.1243L860.909 -3.90649e-05L839.909 12.1243L839.909 36.373L846.952 40.439L874.867 40.439L881.909 36.373L881.909 12.1243Z" fill="#0C1821"/>
<path fill-rule="evenodd" clip-rule="evenodd" d="M881.909 12.1244L860.909 -2.04429e-07L839.909 12.1244L839.909 21.1096L861.009 8.50278L881.909 20.9906L881.909 12.1244Z" fill="#0F202C"/>
<path fill-rule="evenodd" clip-rule="evenodd" d="M881.909 27.5555L860.909 15.4312L839.909 27.5555L839.909 36.5407L861.009 23.9339L881.909 36.4218L881.909 27.5555Z" fill="#0F202C"/>
<path fill-rule="evenodd" clip-rule="evenodd" d="M881.909 44.2464L860.909 32.1221L839.909 44.2464L839.909 53.2316L861.009 40.6249L881.909 53.1127L881.909 44.2464Z" fill="#0F202C"/>
<path fill-rule="evenodd" clip-rule="evenodd" d="M944.836 31.4998L932.711 10.4998L908.462 10.4998L896.338 31.4998L900.404 38.5422L924.579 52.4998L932.711 52.4998L944.836 31.4998Z" fill="#0C1821"/>
<path fill-rule="evenodd" clip-rule="evenodd" d="M944.836 31.5L932.711 10.5L908.463 10.5L903.97 18.2814L928.546 17.9134L940.403 39.1784L944.836 31.5Z" fill="#0F202C"/>
<path fill-rule="evenodd" clip-rule="evenodd" d="M937.12 44.8638L924.996 23.8638L900.747 23.8638L896.254 31.6452L920.83 31.2771L932.687 52.5422L937.12 44.8638Z" fill="#0F202C"/>
<path fill-rule="evenodd" clip-rule="evenodd" d="M928.775 59.3184L916.65 38.3184L892.402 38.3184L887.909 46.0998L912.485 45.7317L924.342 66.9968L928.775 59.3184Z" fill="#0F202C"/>
<path fill-rule="evenodd" clip-rule="evenodd" d="M998.898 12.1243L977.898 -3.90649e-05L956.898 12.1243L956.898 36.373L963.94 40.439L991.856 40.439L998.898 36.373L998.898 12.1243Z" fill="#0C1821"/>
<path fill-rule="evenodd" clip-rule="evenodd" d="M998.898 12.1244L977.898 -2.04429e-07L956.898 12.1244L956.898 21.1096L977.997 8.50278L998.898 20.9906L998.898 12.1244Z" fill="#0F202C"/>
<path fill-rule="evenodd" clip-rule="evenodd" d="M998.898 27.5555L977.898 15.4312L956.898 27.5555L956.898 36.5407L977.997 23.9339L998.898 36.4218L998.898 27.5555Z" fill="#0F202C"/>
<path fill-rule="evenodd" clip-rule="evenodd" d="M998.898 44.2464L977.898 32.1221L956.898 44.2464L956.898 53.2316L977.997 40.6249L998.898 53.1127L998.898 44.2464Z" fill="#0F202C"/>
<path fill-rule="evenodd" clip-rule="evenodd" d="M1061.82 31.4998L1049.7 10.4998L1025.45 10.4998L1013.33 31.4998L1017.39 38.5422L1041.57 52.4998L1049.7 52.4998L1061.82 31.4998Z" fill="#0C1821"/>
<path fill-rule="evenodd" clip-rule="evenodd" d="M1061.82 31.5L1049.7 10.5L1025.45 10.5L1020.96 18.2814L1045.54 17.9134L1057.39 39.1784L1061.82 31.5Z" fill="#0F202C"/>
<path fill-rule="evenodd" clip-rule="evenodd" d="M1054.11 44.8638L1041.98 23.8638L1017.74 23.8638L1013.24 31.6452L1037.82 31.2771L1049.68 52.5422L1054.11 44.8638Z" fill="#0F202C"/>
<path fill-rule="evenodd" clip-rule="evenodd" d="M1045.76 59.3184L1033.64 38.3184L1009.39 38.3184L1004.9 46.0998L1029.47 45.7317L1041.33 66.9968L1045.76 59.3184Z" fill="#0F202C"/>
<path fill-rule="evenodd" clip-rule="evenodd" d="M1115.89 12.1243L1094.89 -3.90649e-05L1073.89 12.1243L1073.89 36.373L1080.93 40.439L1108.84 40.439L1115.89 36.373L1115.89 12.1243Z" fill="#0C1821"/>
<path fill-rule="evenodd" clip-rule="evenodd" d="M1115.89 12.1244L1094.89 -2.04429e-07L1073.89 12.1244L1073.89 21.1096L1094.99 8.50278L1115.89 20.9906L1115.89 12.1244Z" fill="#0F202C"/>
<path fill-rule="evenodd" clip-rule="evenodd" d="M1115.89 27.5555L1094.89 15.4312L1073.89 27.5555L1073.89 36.5407L1094.99 23.9339L1115.89 36.4218L1115.89 27.5555Z" fill="#0F202C"/>
<path fill-rule="evenodd" clip-rule="evenodd" d="M1115.89 44.2464L1094.89 32.1221L1073.89 44.2464L1073.89 53.2316L1094.99 40.6249L1115.89 53.1127L1115.89 44.2464Z" fill="#0F202C"/>
<path fill-rule="evenodd" clip-rule="evenodd" d="M1178.81 31.4998L1166.69 10.4998L1142.44 10.4998L1130.32 31.4998L1134.38 38.5422L1158.56 52.4998L1166.69 52.4998L1178.81 31.4998Z" fill="#0C1821"/>
<path fill-rule="evenodd" clip-rule="evenodd" d="M1178.81 31.5L1166.69 10.5L1142.44 10.5L1137.95 18.2814L1162.52 17.9134L1174.38 39.1784L1178.81 31.5Z" fill="#0F202C"/>
<path fill-rule="evenodd" clip-rule="evenodd" d="M1171.1 44.8638L1158.97 23.8638L1134.72 23.8638L1130.23 31.6452L1154.81 31.2771L1166.66 52.5422L1171.1 44.8638Z" fill="#0F202C"/>
<path fill-rule="evenodd" clip-rule="evenodd" d="M1162.75 59.3184L1150.63 38.3184L1126.38 38.3184L1121.89 46.0998L1146.46 45.7317L1158.32 66.9968L1162.75 59.3184Z" fill="#0F202C"/>
<path fill-rule="evenodd" clip-rule="evenodd" d="M1232.88 12.1243L1211.88 -3.90649e-05L1190.88 12.1243L1190.88 36.373L1197.92 40.439L1225.83 40.439L1232.88 36.373L1232.88 12.1243Z" fill="#0C1821"/>
<path fill-rule="evenodd" clip-rule="evenodd" d="M1232.88 12.1244L1211.88 -2.04429e-07L1190.88 12.1244L1190.88 21.1096L1211.98 8.50278L1232.88 20.9906L1232.88 12.1244Z" fill="#0F202C"/>
<path fill-rule="evenodd" clip-rule="evenodd" d="M1232.88 27.5555L1211.88 15.4312L1190.88 27.5555L1190.88 36.5407L1211.97 23.9339L1232.88 36.4218L1232.88 27.5555Z" fill="#0F202C"/>
<path fill-rule="evenodd" clip-rule="evenodd" d="M1232.88 44.2464L1211.88 32.1221L1190.88 44.2464L1190.88 53.2316L1211.97 40.6249L1232.88 53.1127L1232.88 44.2464Z" fill="#0F202C"/>
<path fill-rule="evenodd" clip-rule="evenodd" d="M1295.8 31.4998L1283.68 10.4998L1259.43 10.4998L1247.3 31.4998L1251.37 38.5422L1275.55 52.4998L1283.68 52.4998L1295.8 31.4998Z" fill="#0C1821"/>
<path fill-rule="evenodd" clip-rule="evenodd" d="M1295.8 31.5L1283.68 10.5L1259.43 10.5L1254.94 18.2814L1279.51 17.9134L1291.37 39.1784L1295.8 31.5Z" fill="#0F202C"/>
<path fill-rule="evenodd" clip-rule="evenodd" d="M1288.09 44.8638L1275.96 23.8638L1251.71 23.8638L1247.22 31.6452L1271.8 31.2771L1283.65 52.5422L1288.09 44.8638Z" fill="#0F202C"/>
<path fill-rule="evenodd" clip-rule="evenodd" d="M1279.74 59.3184L1267.62 38.3184L1243.37 38.3184L1238.88 46.0998L1263.45 45.7317L1275.31 66.9968L1279.74 59.3184Z" fill="#0F202C"/>
<path fill-rule="evenodd" clip-rule="evenodd" d="M1349.86 12.1243L1328.86 -3.90649e-05L1307.86 12.1243L1307.86 36.373L1314.91 40.439L1342.82 40.439L1349.86 36.373L1349.86 12.1243Z" fill="#0C1821"/>
<path fill-rule="evenodd" clip-rule="evenodd" d="M1349.86 12.1244L1328.86 -2.04429e-07L1307.86 12.1244L1307.86 21.1096L1328.96 8.50278L1349.86 20.9906L1349.86 12.1244Z" fill="#0F202C"/>
<path fill-rule="evenodd" clip-rule="evenodd" d="M1349.86 27.5555L1328.86 15.4312L1307.86 27.5555L1307.86 36.5407L1328.96 23.9339L1349.86 36.4218L1349.86 27.5555Z" fill="#0F202C"/>
<path fill-rule="evenodd" clip-rule="evenodd" d="M1349.86 44.2464L1328.86 32.1221L1307.86 44.2464L1307.86 53.2316L1328.96 40.6249L1349.86 53.1127L1349.86 44.2464Z" fill="#0F202C"/>
<path fill-rule="evenodd" clip-rule="evenodd" d="M1412.79 31.4998L1400.67 10.4998L1376.42 10.4998L1364.29 31.4998L1368.36 38.5422L1392.53 52.4998L1400.67 52.4998L1412.79 31.4998Z" fill="#0C1821"/>
<path fill-rule="evenodd" clip-rule="evenodd" d="M1412.79 31.5L1400.67 10.5L1376.42 10.5L1371.93 18.2814L1396.5 17.9134L1408.36 39.1784L1412.79 31.5Z" fill="#0F202C"/>
<path fill-rule="evenodd" clip-rule="evenodd" d="M1405.08 44.8638L1392.95 23.8638L1368.7 23.8638L1364.21 31.6452L1388.79 31.2771L1400.64 52.5422L1405.08 44.8638Z" fill="#0F202C"/>
<path fill-rule="evenodd" clip-rule="evenodd" d="M1396.73 59.3184L1384.61 38.3184L1360.36 38.3184L1355.86 46.0998L1380.44 45.7317L1392.3 66.9968L1396.73 59.3184Z" fill="#0F202C"/>
<path fill-rule="evenodd" clip-rule="evenodd" d="M1466.85 12.1243L1445.85 -3.90649e-05L1424.85 12.1243L1424.85 36.373L1431.89 40.439L1459.81 40.439L1466.85 36.373L1466.85 12.1243Z" fill="#0C1821"/>
<path fill-rule="evenodd" clip-rule="evenodd" d="M1466.85 12.1244L1445.85 -2.04429e-07L1424.85 12.1244L1424.85 21.1096L1445.95 8.50278L1466.85 20.9906L1466.85 12.1244Z" fill="#0F202C"/>
<path fill-rule="evenodd" clip-rule="evenodd" d="M1466.85 27.5555L1445.85 15.4312L1424.85 27.5555L1424.85 36.5407L1445.95 23.9339L1466.85 36.4218L1466.85 27.5555Z" fill="#0F202C"/>
<path fill-rule="evenodd" clip-rule="evenodd" d="M1466.85 44.2464L1445.85 32.1221L1424.85 44.2464L1424.85 53.2316L1445.95 40.6249L1466.85 53.1127L1466.85 44.2464Z" fill="#0F202C"/>
<path fill-rule="evenodd" clip-rule="evenodd" d="M1529.78 31.4998L1517.65 10.4998L1493.41 10.4998L1481.28 31.4998L1485.35 38.5422L1509.52 52.4998L1517.65 52.4998L1529.78 31.4998Z" fill="#0C1821"/>
<path fill-rule="evenodd" clip-rule="evenodd" d="M1529.78 31.5L1517.65 10.5L1493.41 10.5L1488.91 18.2814L1513.49 17.9134L1525.35 39.1784L1529.78 31.5Z" fill="#0F202C"/>
<path fill-rule="evenodd" clip-rule="evenodd" d="M1522.06 44.8638L1509.94 23.8638L1485.69 23.8638L1481.2 31.6452L1505.77 31.2771L1517.63 52.5422L1522.06 44.8638Z" fill="#0F202C"/>
<path fill-rule="evenodd" clip-rule="evenodd" d="M1513.72 59.3184L1501.59 38.3184L1477.35 38.3184L1472.85 46.0998L1497.43 45.7317L1509.28 66.9968L1513.72 59.3184Z" fill="#0F202C"/>
<path fill-rule="evenodd" clip-rule="evenodd" d="M1583.84 12.1243L1562.84 -3.90649e-05L1541.84 12.1243L1541.84 36.373L1548.88 40.439L1576.8 40.439L1583.84 36.373L1583.84 12.1243Z" fill="#0C1821"/>
<path fill-rule="evenodd" clip-rule="evenodd" d="M1583.84 12.1244L1562.84 -2.04429e-07L1541.84 12.1244L1541.84 21.1096L1562.94 8.50278L1583.84 20.9906L1583.84 12.1244Z" fill="#0F202C"/>
<path fill-rule="evenodd" clip-rule="evenodd" d="M1583.84 27.5555L1562.84 15.4312L1541.84 27.5555L1541.84 36.5407L1562.94 23.9339L1583.84 36.4218L1583.84 27.5555Z" fill="#0F202C"/>
<path fill-rule="evenodd" clip-rule="evenodd" d="M1583.84 44.2464L1562.84 32.1221L1541.84 44.2464L1541.84 53.2316L1562.94 40.6249L1583.84 53.1127L1583.84 44.2464Z" fill="#0F202C"/>
<path fill-rule="evenodd" clip-rule="evenodd" d="M56.9269 98.5994L44.8025 77.5994L20.5538 77.5994L8.42946 98.5994L12.4954 105.642L36.6706 119.599L44.8025 119.599L56.9269 98.5994Z" fill="#0C1821"/>
<path fill-rule="evenodd" clip-rule="evenodd" d="M56.9261 98.5996L44.8018 77.5996L20.5531 77.5996L16.0605 85.381L40.6366 85.013L52.493 106.278L56.9261 98.5996Z" fill="#0F202C"/>
<path fill-rule="evenodd" clip-rule="evenodd" d="M49.2113 111.963L37.0869 90.9634L12.8382 90.9634L8.34562 98.7448L32.9217 98.3768L44.7781 119.642L49.2113 111.963Z" fill="#0F202C"/>
<path fill-rule="evenodd" clip-rule="evenodd" d="M40.8656 126.418L28.7412 105.418L4.49251 105.418L-7.82013e-05 113.199L24.576 112.831L36.4324 134.096L40.8656 126.418Z" fill="#0F202C"/>
<path fill-rule="evenodd" clip-rule="evenodd" d="M110.988 79.2239L89.9883 67.0996L68.9883 79.2239L68.9883 103.473L76.0307 107.539L103.946 107.539L110.988 103.473L110.988 79.2239Z" fill="#0C1821"/>
<path fill-rule="evenodd" clip-rule="evenodd" d="M110.988 79.224L89.9883 67.0996L68.9883 79.224L68.9883 88.2092L90.0878 75.6024L110.988 88.0902L110.988 79.224Z" fill="#0F202C"/>
<path fill-rule="evenodd" clip-rule="evenodd" d="M110.988 94.6551L89.9883 82.5308L68.9883 94.6551L68.9883 103.64L90.0878 91.0335L110.988 103.521L110.988 94.6551Z" fill="#0F202C"/>
<path fill-rule="evenodd" clip-rule="evenodd" d="M110.988 111.346L89.9883 99.2217L68.9883 111.346L68.9883 120.331L90.0878 107.724L110.988 120.212L110.988 111.346Z" fill="#0F202C"/>
<path fill-rule="evenodd" clip-rule="evenodd" d="M173.915 98.5994L161.791 77.5994L137.542 77.5994L125.418 98.5994L129.484 105.642L153.659 119.599L161.791 119.599L173.915 98.5994Z" fill="#0C1821"/>
<path fill-rule="evenodd" clip-rule="evenodd" d="M173.914 98.5996L161.79 77.5996L137.541 77.5996L133.049 85.381L157.625 85.013L169.481 106.278L173.914 98.5996Z" fill="#0F202C"/>
<path fill-rule="evenodd" clip-rule="evenodd" d="M166.2 111.963L154.075 90.9634L129.826 90.9634L125.334 98.7448L149.91 98.3768L161.766 119.642L166.2 111.963Z" fill="#0F202C"/>
<path fill-rule="evenodd" clip-rule="evenodd" d="M157.854 126.418L145.729 105.418L121.481 105.418L116.988 113.199L141.564 112.831L153.421 134.096L157.854 126.418Z" fill="#0F202C"/>
<path fill-rule="evenodd" clip-rule="evenodd" d="M227.978 79.2239L206.978 67.0996L185.978 79.2239L185.978 103.473L193.02 107.539L220.935 107.539L227.978 103.473L227.978 79.2239Z" fill="#0C1821"/>
<path fill-rule="evenodd" clip-rule="evenodd" d="M227.978 79.224L206.978 67.0996L185.978 79.224L185.978 88.2092L207.077 75.6024L227.978 88.0902L227.978 79.224Z" fill="#0F202C"/>
<path fill-rule="evenodd" clip-rule="evenodd" d="M227.978 94.6551L206.978 82.5308L185.978 94.6551L185.978 103.64L207.077 91.0335L227.978 103.521L227.978 94.6551Z" fill="#0F202C"/>
<path fill-rule="evenodd" clip-rule="evenodd" d="M227.978 111.346L206.978 99.2217L185.978 111.346L185.978 120.331L207.077 107.724L227.978 120.212L227.978 111.346Z" fill="#0F202C"/>
<path fill-rule="evenodd" clip-rule="evenodd" d="M290.904 98.5994L278.78 77.5994L254.531 77.5994L242.407 98.5994L246.473 105.642L270.648 119.599L278.78 119.599L290.904 98.5994Z" fill="#0C1821"/>
<path fill-rule="evenodd" clip-rule="evenodd" d="M290.904 98.5996L278.78 77.5996L254.531 77.5996L250.038 85.381L274.615 85.013L286.471 106.278L290.904 98.5996Z" fill="#0F202C"/>
<path fill-rule="evenodd" clip-rule="evenodd" d="M283.189 111.963L271.064 90.9634L246.816 90.9634L242.323 98.7448L266.899 98.3768L278.756 119.642L283.189 111.963Z" fill="#0F202C"/>
<path fill-rule="evenodd" clip-rule="evenodd" d="M274.843 126.418L262.719 105.418L238.47 105.418L233.977 113.199L258.554 112.831L270.41 134.096L274.843 126.418Z" fill="#0F202C"/>
<path fill-rule="evenodd" clip-rule="evenodd" d="M359.892 98.5994L347.768 77.5994L323.519 77.5994L311.395 98.5994L315.461 105.642L339.636 119.599L347.768 119.599L359.892 98.5994Z" fill="#0C1821"/>
<path fill-rule="evenodd" clip-rule="evenodd" d="M359.892 98.5996L347.768 77.5996L323.519 77.5996L319.027 85.381L343.603 85.013L355.459 106.278L359.892 98.5996Z" fill="#0F202C"/>
<path fill-rule="evenodd" clip-rule="evenodd" d="M352.177 111.963L340.052 90.9634L315.804 90.9634L311.311 98.7448L335.887 98.3768L347.743 119.642L352.177 111.963Z" fill="#0F202C"/>
<path fill-rule="evenodd" clip-rule="evenodd" d="M343.831 126.418L331.707 105.418L307.458 105.418L302.966 113.199L327.542 112.831L339.398 134.096L343.831 126.418Z" fill="#0F202C"/>
<path fill-rule="evenodd" clip-rule="evenodd" d="M413.955 79.2239L392.955 67.0996L371.955 79.2239L371.955 103.473L378.997 107.539L406.912 107.539L413.955 103.473L413.955 79.2239Z" fill="#0C1821"/>
<path fill-rule="evenodd" clip-rule="evenodd" d="M413.955 79.224L392.955 67.0996L371.955 79.224L371.955 88.2092L393.054 75.6024L413.955 88.0902L413.955 79.224Z" fill="#0F202C"/>
<path fill-rule="evenodd" clip-rule="evenodd" d="M413.955 94.6551L392.955 82.5308L371.955 94.6551L371.955 103.64L393.054 91.0335L413.955 103.521L413.955 94.6551Z" fill="#0F202C"/>
<path fill-rule="evenodd" clip-rule="evenodd" d="M413.955 111.346L392.955 99.2217L371.955 111.346L371.955 120.331L393.054 107.724L413.955 120.212L413.955 111.346Z" fill="#0F202C"/>
<path fill-rule="evenodd" clip-rule="evenodd" d="M476.881 98.5994L464.757 77.5994L440.508 77.5994L428.384 98.5994L432.449 105.642L456.625 119.599L464.757 119.599L476.881 98.5994Z" fill="#0C1821"/>
<path fill-rule="evenodd" clip-rule="evenodd" d="M476.881 98.5996L464.757 77.5996L440.508 77.5996L436.016 85.381L460.592 85.013L472.448 106.278L476.881 98.5996Z" fill="#0F202C"/>
<path fill-rule="evenodd" clip-rule="evenodd" d="M469.165 111.963L457.041 90.9634L432.792 90.9634L428.3 98.7448L452.876 98.3768L464.732 119.642L469.165 111.963Z" fill="#0F202C"/>
<path fill-rule="evenodd" clip-rule="evenodd" d="M460.82 126.418L448.696 105.418L424.447 105.418L419.955 113.199L444.531 112.831L456.387 134.096L460.82 126.418Z" fill="#0F202C"/>
<path fill-rule="evenodd" clip-rule="evenodd" d="M530.943 79.2239L509.943 67.0996L488.943 79.2239L488.943 103.473L495.986 107.539L523.901 107.539L530.943 103.473L530.943 79.2239Z" fill="#0C1821"/>
<path fill-rule="evenodd" clip-rule="evenodd" d="M530.943 79.224L509.943 67.0996L488.943 79.224L488.943 88.2092L510.043 75.6024L530.943 88.0902L530.943 79.224Z" fill="#0F202C"/>
<path fill-rule="evenodd" clip-rule="evenodd" d="M530.943 94.6551L509.943 82.5308L488.943 94.6551L488.943 103.64L510.043 91.0335L530.943 103.521L530.943 94.6551Z" fill="#0F202C"/>
<path fill-rule="evenodd" clip-rule="evenodd" d="M530.943 111.346L509.943 99.2217L488.943 111.346L488.943 120.331L510.043 107.724L530.943 120.212L530.943 111.346Z" fill="#0F202C"/>
<path fill-rule="evenodd" clip-rule="evenodd" d="M593.87 98.5994L581.745 77.5994L557.497 77.5994L545.372 98.5994L549.438 105.642L573.614 119.599L581.745 119.599L593.87 98.5994Z" fill="#0C1821"/>
<path fill-rule="evenodd" clip-rule="evenodd" d="M593.87 98.5996L581.746 77.5996L557.497 77.5996L553.004 85.381L577.58 85.013L589.437 106.278L593.87 98.5996Z" fill="#0F202C"/>
<path fill-rule="evenodd" clip-rule="evenodd" d="M586.154 111.963L574.03 90.9634L549.781 90.9634L545.288 98.7448L569.865 98.3768L581.721 119.642L586.154 111.963Z" fill="#0F202C"/>
<path fill-rule="evenodd" clip-rule="evenodd" d="M577.809 126.418L565.685 105.418L541.436 105.418L536.943 113.199L561.519 112.831L573.376 134.096L577.809 126.418Z" fill="#0F202C"/>
<path fill-rule="evenodd" clip-rule="evenodd" d="M647.932 79.2239L626.932 67.0996L605.932 79.2239L605.932 103.473L612.975 107.539L640.89 107.539L647.932 103.473L647.932 79.2239Z" fill="#0C1821"/>
<path fill-rule="evenodd" clip-rule="evenodd" d="M647.932 79.224L626.932 67.0996L605.932 79.224L605.932 88.2092L627.032 75.6024L647.932 88.0902L647.932 79.224Z" fill="#0F202C"/>
<path fill-rule="evenodd" clip-rule="evenodd" d="M647.932 94.6551L626.932 82.5308L605.932 94.6551L605.932 103.64L627.032 91.0335L647.932 103.521L647.932 94.6551Z" fill="#0F202C"/>
<path fill-rule="evenodd" clip-rule="evenodd" d="M647.932 111.346L626.932 99.2217L605.932 111.346L605.932 120.331L627.032 107.724L647.932 120.212L647.932 111.346Z" fill="#0F202C"/>
<path fill-rule="evenodd" clip-rule="evenodd" d="M710.859 98.5994L698.734 77.5994L674.485 77.5994L662.361 98.5994L666.427 105.642L690.602 119.599L698.734 119.599L710.859 98.5994Z" fill="#0C1821"/>
<path fill-rule="evenodd" clip-rule="evenodd" d="M710.859 98.5996L698.734 77.5996L674.486 77.5996L669.993 85.381L694.569 85.013L706.426 106.278L710.859 98.5996Z" fill="#0F202C"/>
<path fill-rule="evenodd" clip-rule="evenodd" d="M703.143 111.963L691.019 90.9634L666.77 90.9634L662.277 98.7448L686.853 98.3768L698.71 119.642L703.143 111.963Z" fill="#0F202C"/>
<path fill-rule="evenodd" clip-rule="evenodd" d="M694.798 126.418L682.673 105.418L658.425 105.418L653.932 113.199L678.508 112.831L690.365 134.096L694.798 126.418Z" fill="#0F202C"/>
<path fill-rule="evenodd" clip-rule="evenodd" d="M764.921 79.2239L743.921 67.0996L722.921 79.2239L722.921 103.473L729.963 107.539L757.878 107.539L764.921 103.473L764.921 79.2239Z" fill="#0C1821"/>
<path fill-rule="evenodd" clip-rule="evenodd" d="M764.921 79.224L743.921 67.0996L722.921 79.224L722.921 88.2092L744.02 75.6024L764.921 88.0902L764.921 79.224Z" fill="#0F202C"/>
<path fill-rule="evenodd" clip-rule="evenodd" d="M764.921 94.6551L743.921 82.5308L722.921 94.6551L722.921 103.64L744.02 91.0335L764.921 103.521L764.921 94.6551Z" fill="#0F202C"/>
<path fill-rule="evenodd" clip-rule="evenodd" d="M764.921 111.346L743.921 99.2217L722.921 111.346L722.921 120.331L744.02 107.724L764.921 120.212L764.921 111.346Z" fill="#0F202C"/>
<path fill-rule="evenodd" clip-rule="evenodd" d="M827.847 98.5994L815.723 77.5994L791.474 77.5994L779.35 98.5994L783.416 105.642L807.591 119.599L815.723 119.599L827.847 98.5994Z" fill="#0C1821"/>
<path fill-rule="evenodd" clip-rule="evenodd" d="M827.848 98.5996L815.723 77.5996L791.474 77.5996L786.982 85.381L811.558 85.013L823.414 106.278L827.848 98.5996Z" fill="#0F202C"/>
<path fill-rule="evenodd" clip-rule="evenodd" d="M820.132 111.963L808.007 90.9634L783.759 90.9634L779.266 98.7448L803.842 98.3768L815.699 119.642L820.132 111.963Z" fill="#0F202C"/>
<path fill-rule="evenodd" clip-rule="evenodd" d="M811.786 126.418L799.662 105.418L775.413 105.418L770.921 113.199L795.497 112.831L807.353 134.096L811.786 126.418Z" fill="#0F202C"/>
<path fill-rule="evenodd" clip-rule="evenodd" d="M881.909 79.2239L860.909 67.0996L839.909 79.2239L839.909 103.473L846.952 107.539L874.867 107.539L881.909 103.473L881.909 79.2239Z" fill="#0C1821"/>
<path fill-rule="evenodd" clip-rule="evenodd" d="M881.909 79.224L860.909 67.0996L839.909 79.224L839.909 88.2092L861.009 75.6024L881.909 88.0902L881.909 79.224Z" fill="#0F202C"/>
<path fill-rule="evenodd" clip-rule="evenodd" d="M881.909 94.6551L860.909 82.5308L839.909 94.6551L839.909 103.64L861.009 91.0335L881.909 103.521L881.909 94.6551Z" fill="#0F202C"/>
<path fill-rule="evenodd" clip-rule="evenodd" d="M881.909 111.346L860.909 99.2217L839.909 111.346L839.909 120.331L861.009 107.724L881.909 120.212L881.909 111.346Z" fill="#0F202C"/>
<path fill-rule="evenodd" clip-rule="evenodd" d="M944.836 98.5994L932.711 77.5994L908.462 77.5994L896.338 98.5994L900.404 105.642L924.579 119.599L932.711 119.599L944.836 98.5994Z" fill="#0C1821"/>
<path fill-rule="evenodd" clip-rule="evenodd" d="M944.836 98.5996L932.711 77.5996L908.463 77.5996L903.97 85.381L928.546 85.013L940.403 106.278L944.836 98.5996Z" fill="#0F202C"/>
<path fill-rule="evenodd" clip-rule="evenodd" d="M937.12 111.963L924.996 90.9634L900.747 90.9634L896.254 98.7448L920.83 98.3768L932.687 119.642L937.12 111.963Z" fill="#0F202C"/>
<path fill-rule="evenodd" clip-rule="evenodd" d="M928.775 126.418L916.65 105.418L892.402 105.418L887.909 113.199L912.485 112.831L924.342 134.096L928.775 126.418Z" fill="#0F202C"/>
<path fill-rule="evenodd" clip-rule="evenodd" d="M998.898 79.2239L977.898 67.0996L956.898 79.2239L956.898 103.473L963.94 107.539L991.856 107.539L998.898 103.473L998.898 79.2239Z" fill="#0C1821"/>
<path fill-rule="evenodd" clip-rule="evenodd" d="M998.898 79.224L977.898 67.0996L956.898 79.224L956.898 88.2092L977.997 75.6024L998.898 88.0902L998.898 79.224Z" fill="#0F202C"/>
<path fill-rule="evenodd" clip-rule="evenodd" d="M998.898 94.6551L977.898 82.5308L956.898 94.6551L956.898 103.64L977.997 91.0335L998.898 103.521L998.898 94.6551Z" fill="#0F202C"/>
<path fill-rule="evenodd" clip-rule="evenodd" d="M998.898 111.346L977.898 99.2217L956.898 111.346L956.898 120.331L977.997 107.724L998.898 120.212L998.898 111.346Z" fill="#0F202C"/>
<path fill-rule="evenodd" clip-rule="evenodd" d="M1061.82 98.5994L1049.7 77.5994L1025.45 77.5994L1013.33 98.5994L1017.39 105.642L1041.57 119.599L1049.7 119.599L1061.82 98.5994Z" fill="#0C1821"/>
<path fill-rule="evenodd" clip-rule="evenodd" d="M1061.82 98.5996L1049.7 77.5996L1025.45 77.5996L1020.96 85.381L1045.54 85.013L1057.39 106.278L1061.82 98.5996Z" fill="#0F202C"/>
<path fill-rule="evenodd" clip-rule="evenodd" d="M1054.11 111.963L1041.98 90.9634L1017.74 90.9634L1013.24 98.7448L1037.82 98.3768L1049.68 119.642L1054.11 111.963Z" fill="#0F202C"/>
<path fill-rule="evenodd" clip-rule="evenodd" d="M1045.76 126.418L1033.64 105.418L1009.39 105.418L1004.9 113.199L1029.47 112.831L1041.33 134.096L1045.76 126.418Z" fill="#0F202C"/>
<path fill-rule="evenodd" clip-rule="evenodd" d="M1115.89 79.2239L1094.89 67.0996L1073.89 79.2239L1073.89 103.473L1080.93 107.539L1108.84 107.539L1115.89 103.473L1115.89 79.2239Z" fill="#0C1821"/>
<path fill-rule="evenodd" clip-rule="evenodd" d="M1115.89 79.224L1094.89 67.0996L1073.89 79.224L1073.89 88.2092L1094.99 75.6024L1115.89 88.0902L1115.89 79.224Z" fill="#0F202C"/>
<path fill-rule="evenodd" clip-rule="evenodd" d="M1115.89 94.6551L1094.89 82.5308L1073.89 94.6551L1073.89 103.64L1094.99 91.0335L1115.89 103.521L1115.89 94.6551Z" fill="#0F202C"/>
<path fill-rule="evenodd" clip-rule="evenodd" d="M1115.89 111.346L1094.89 99.2217L1073.89 111.346L1073.89 120.331L1094.99 107.724L1115.89 120.212L1115.89 111.346Z" fill="#0F202C"/>
<path fill-rule="evenodd" clip-rule="evenodd" d="M1178.81 98.5994L1166.69 77.5994L1142.44 77.5994L1130.32 98.5994L1134.38 105.642L1158.56 119.599L1166.69 119.599L1178.81 98.5994Z" fill="#0C1821"/>
<path fill-rule="evenodd" clip-rule="evenodd" d="M1178.81 98.5996L1166.69 77.5996L1142.44 77.5996L1137.95 85.381L1162.52 85.013L1174.38 106.278L1178.81 98.5996Z" fill="#0F202C"/>
<path fill-rule="evenodd" clip-rule="evenodd" d="M1171.1 111.963L1158.97 90.9634L1134.72 90.9634L1130.23 98.7448L1154.81 98.3768L1166.66 119.642L1171.1 111.963Z" fill="#0F202C"/>
<path fill-rule="evenodd" clip-rule="evenodd" d="M1162.75 126.418L1150.63 105.418L1126.38 105.418L1121.89 113.199L1146.46 112.831L1158.32 134.096L1162.75 126.418Z" fill="#0F202C"/>
<path fill-rule="evenodd" clip-rule="evenodd" d="M1232.88 79.2239L1211.88 67.0996L1190.88 79.2239L1190.88 103.473L1197.92 107.539L1225.83 107.539L1232.88 103.473L1232.88 79.2239Z" fill="#0C1821"/>
<path fill-rule="evenodd" clip-rule="evenodd" d="M1232.88 79.224L1211.88 67.0996L1190.88 79.224L1190.88 88.2092L1211.98 75.6024L1232.88 88.0902L1232.88 79.224Z" fill="#0F202C"/>
<path fill-rule="evenodd" clip-rule="evenodd" d="M1232.88 94.6551L1211.88 82.5308L1190.88 94.6551L1190.88 103.64L1211.97 91.0335L1232.88 103.521L1232.88 94.6551Z" fill="#0F202C"/>
<path fill-rule="evenodd" clip-rule="evenodd" d="M1232.88 111.346L1211.88 99.2217L1190.88 111.346L1190.88 120.331L1211.97 107.724L1232.88 120.212L1232.88 111.346Z" fill="#0F202C"/>
<path fill-rule="evenodd" clip-rule="evenodd" d="M1295.8 98.5994L1283.68 77.5994L1259.43 77.5994L1247.3 98.5994L1251.37 105.642L1275.55 119.599L1283.68 119.599L1295.8 98.5994Z" fill="#0C1821"/>
<path fill-rule="evenodd" clip-rule="evenodd" d="M1295.8 98.5996L1283.68 77.5996L1259.43 77.5996L1254.94 85.381L1279.51 85.013L1291.37 106.278L1295.8 98.5996Z" fill="#0F202C"/>
<path fill-rule="evenodd" clip-rule="evenodd" d="M1288.09 111.963L1275.96 90.9634L1251.71 90.9634L1247.22 98.7448L1271.8 98.3768L1283.65 119.642L1288.09 111.963Z" fill="#0F202C"/>
<path fill-rule="evenodd" clip-rule="evenodd" d="M1279.74 126.418L1267.62 105.418L1243.37 105.418L1238.88 113.199L1263.45 112.831L1275.31 134.096L1279.74 126.418Z" fill="#0F202C"/>
<path fill-rule="evenodd" clip-rule="evenodd" d="M1349.86 79.2239L1328.86 67.0996L1307.86 79.2239L1307.86 103.473L1314.91 107.539L1342.82 107.539L1349.86 103.473L1349.86 79.2239Z" fill="#0C1821"/>
<path fill-rule="evenodd" clip-rule="evenodd" d="M1349.86 79.224L1328.86 67.0996L1307.86 79.224L1307.86 88.2092L1328.96 75.6024L1349.86 88.0902L1349.86 79.224Z" fill="#0F202C"/>
<path fill-rule="evenodd" clip-rule="evenodd" d="M1349.86 94.6551L1328.86 82.5308L1307.86 94.6551L1307.86 103.64L1328.96 91.0335L1349.86 103.521L1349.86 94.6551Z" fill="#0F202C"/>
<path fill-rule="evenodd" clip-rule="evenodd" d="M1349.86 111.346L1328.86 99.2217L1307.86 111.346L1307.86 120.331L1328.96 107.724L1349.86 120.212L1349.86 111.346Z" fill="#0F202C"/>
<path fill-rule="evenodd" clip-rule="evenodd" d="M1412.79 98.5994L1400.67 77.5994L1376.42 77.5994L1364.29 98.5994L1368.36 105.642L1392.53 119.599L1400.67 119.599L1412.79 98.5994Z" fill="#0C1821"/>
<path fill-rule="evenodd" clip-rule="evenodd" d="M1412.79 98.5996L1400.67 77.5996L1376.42 77.5996L1371.93 85.381L1396.5 85.013L1408.36 106.278L1412.79 98.5996Z" fill="#0F202C"/>
<path fill-rule="evenodd" clip-rule="evenodd" d="M1405.08 111.963L1392.95 90.9634L1368.7 90.9634L1364.21 98.7448L1388.79 98.3768L1400.64 119.642L1405.08 111.963Z" fill="#0F202C"/>
<path fill-rule="evenodd" clip-rule="evenodd" d="M1396.73 126.418L1384.61 105.418L1360.36 105.418L1355.86 113.199L1380.44 112.831L1392.3 134.096L1396.73 126.418Z" fill="#0F202C"/>
<path fill-rule="evenodd" clip-rule="evenodd" d="M1466.85 79.2239L1445.85 67.0996L1424.85 79.2239L1424.85 103.473L1431.89 107.539L1459.81 107.539L1466.85 103.473L1466.85 79.2239Z" fill="#0C1821"/>
<path fill-rule="evenodd" clip-rule="evenodd" d="M1466.85 79.224L1445.85 67.0996L1424.85 79.224L1424.85 88.2092L1445.95 75.6024L1466.85 88.0902L1466.85 79.224Z" fill="#0F202C"/>
<path fill-rule="evenodd" clip-rule="evenodd" d="M1466.85 94.6551L1445.85 82.5308L1424.85 94.6551L1424.85 103.64L1445.95 91.0335L1466.85 103.521L1466.85 94.6551Z" fill="#0F202C"/>
<path fill-rule="evenodd" clip-rule="evenodd" d="M1466.85 111.346L1445.85 99.2217L1424.85 111.346L1424.85 120.331L1445.95 107.724L1466.85 120.212L1466.85 111.346Z" fill="#0F202C"/>
<path fill-rule="evenodd" clip-rule="evenodd" d="M1529.78 98.5994L1517.65 77.5994L1493.41 77.5994L1481.28 98.5994L1485.35 105.642L1509.52 119.599L1517.65 119.599L1529.78 98.5994Z" fill="#0C1821"/>
<path fill-rule="evenodd" clip-rule="evenodd" d="M1529.78 98.5996L1517.65 77.5996L1493.41 77.5996L1488.91 85.381L1513.49 85.013L1525.35 106.278L1529.78 98.5996Z" fill="#0F202C"/>
<path fill-rule="evenodd" clip-rule="evenodd" d="M1522.06 111.963L1509.94 90.9634L1485.69 90.9634L1481.2 98.7448L1505.77 98.3768L1517.63 119.642L1522.06 111.963Z" fill="#0F202C"/>
<path fill-rule="evenodd" clip-rule="evenodd" d="M1513.72 126.418L1501.59 105.418L1477.35 105.418L1472.85 113.199L1497.43 112.831L1509.28 134.096L1513.72 126.418Z" fill="#0F202C"/>
<path fill-rule="evenodd" clip-rule="evenodd" d="M1583.84 79.2239L1562.84 67.0996L1541.84 79.2239L1541.84 103.473L1548.88 107.539L1576.8 107.539L1583.84 103.473L1583.84 79.2239Z" fill="#0C1821"/>
<path fill-rule="evenodd" clip-rule="evenodd" d="M1583.84 79.224L1562.84 67.0996L1541.84 79.224L1541.84 88.2092L1562.94 75.6024L1583.84 88.0902L1583.84 79.224Z" fill="#0F202C"/>
<path fill-rule="evenodd" clip-rule="evenodd" d="M1583.84 94.6551L1562.84 82.5308L1541.84 94.6551L1541.84 103.64L1562.94 91.0335L1583.84 103.521L1583.84 94.6551Z" fill="#0F202C"/>
<path fill-rule="evenodd" clip-rule="evenodd" d="M1583.84 111.346L1562.84 99.2217L1541.84 111.346L1541.84 120.331L1562.94 107.724L1583.84 120.212L1583.84 111.346Z" fill="#0F202C"/>
<path fill-rule="evenodd" clip-rule="evenodd" d="M56.9269 165.699L44.8025 144.699L20.5538 144.699L8.42946 165.699L12.4954 172.741L36.6706 186.699L44.8025 186.699L56.9269 165.699Z" fill="#0C1821"/>
<path fill-rule="evenodd" clip-rule="evenodd" d="M56.9261 165.699L44.8018 144.699L20.5531 144.699L16.0605 152.481L40.6366 152.113L52.493 173.378L56.9261 165.699Z" fill="#0F202C"/>
<path fill-rule="evenodd" clip-rule="evenodd" d="M49.2113 179.063L37.0869 158.063L12.8382 158.063L8.34562 165.844L32.9217 165.476L44.7781 186.741L49.2113 179.063Z" fill="#0F202C"/>
<path fill-rule="evenodd" clip-rule="evenodd" d="M40.8656 193.518L28.7412 172.518L4.49251 172.518L-8.10623e-05 180.299L24.576 179.931L36.4324 201.196L40.8656 193.518Z" fill="#0F202C"/>
<path fill-rule="evenodd" clip-rule="evenodd" d="M110.988 146.324L89.9883 134.199L68.9883 146.324L68.9883 170.572L76.0307 174.638L103.946 174.638L110.988 170.572L110.988 146.324Z" fill="#0C1821"/>
<path fill-rule="evenodd" clip-rule="evenodd" d="M110.988 146.324L89.9883 134.199L68.9883 146.324L68.9883 155.309L90.0878 142.702L110.988 155.19L110.988 146.324Z" fill="#0F202C"/>
<path fill-rule="evenodd" clip-rule="evenodd" d="M110.988 161.755L89.9883 149.63L68.9883 161.755L68.9883 170.74L90.0878 158.133L110.988 170.621L110.988 161.755Z" fill="#0F202C"/>
<path fill-rule="evenodd" clip-rule="evenodd" d="M110.988 178.446L89.9883 166.321L68.9883 178.446L68.9883 187.431L90.0878 174.824L110.988 187.312L110.988 178.446Z" fill="#0F202C"/>
<path fill-rule="evenodd" clip-rule="evenodd" d="M173.915 165.699L161.791 144.699L137.542 144.699L125.418 165.699L129.484 172.741L153.659 186.699L161.791 186.699L173.915 165.699Z" fill="#0C1821"/>
<path fill-rule="evenodd" clip-rule="evenodd" d="M173.914 165.699L161.79 144.699L137.541 144.699L133.049 152.481L157.625 152.113L169.481 173.378L173.914 165.699Z" fill="#0F202C"/>
<path fill-rule="evenodd" clip-rule="evenodd" d="M166.2 179.063L154.075 158.063L129.826 158.063L125.334 165.844L149.91 165.476L161.766 186.741L166.2 179.063Z" fill="#0F202C"/>
<path fill-rule="evenodd" clip-rule="evenodd" d="M157.854 193.518L145.729 172.518L121.481 172.518L116.988 180.299L141.564 179.931L153.421 201.196L157.854 193.518Z" fill="#0F202C"/>
<path fill-rule="evenodd" clip-rule="evenodd" d="M227.978 146.324L206.978 134.199L185.978 146.324L185.978 170.572L193.02 174.638L220.935 174.638L227.978 170.572L227.978 146.324Z" fill="#0C1821"/>
<path fill-rule="evenodd" clip-rule="evenodd" d="M227.978 146.324L206.978 134.199L185.978 146.324L185.978 155.309L207.077 142.702L227.978 155.19L227.978 146.324Z" fill="#0F202C"/>
<path fill-rule="evenodd" clip-rule="evenodd" d="M227.978 161.755L206.978 149.63L185.978 161.755L185.978 170.74L207.077 158.133L227.978 170.621L227.978 161.755Z" fill="#0F202C"/>
<path fill-rule="evenodd" clip-rule="evenodd" d="M227.978 178.446L206.978 166.321L185.978 178.446L185.978 187.431L207.077 174.824L227.978 187.312L227.978 178.446Z" fill="#0F202C"/>
<path fill-rule="evenodd" clip-rule="evenodd" d="M290.904 165.699L278.78 144.699L254.531 144.699L242.407 165.699L246.473 172.741L270.648 186.699L278.78 186.699L290.904 165.699Z" fill="#0C1821"/>
<path fill-rule="evenodd" clip-rule="evenodd" d="M290.904 165.699L278.78 144.699L254.531 144.699L250.038 152.481L274.615 152.113L286.471 173.378L290.904 165.699Z" fill="#0F202C"/>
<path fill-rule="evenodd" clip-rule="evenodd" d="M283.189 179.063L271.064 158.063L246.816 158.063L242.323 165.844L266.899 165.476L278.756 186.741L283.189 179.063Z" fill="#0F202C"/>
<path fill-rule="evenodd" clip-rule="evenodd" d="M274.843 193.518L262.719 172.518L238.47 172.518L233.977 180.299L258.554 179.931L270.41 201.196L274.843 193.518Z" fill="#0F202C"/>
<path fill-rule="evenodd" clip-rule="evenodd" d="M359.892 165.699L347.768 144.699L323.519 144.699L311.395 165.699L315.461 172.741L339.636 186.699L347.768 186.699L359.892 165.699Z" fill="#0C1821"/>
<path fill-rule="evenodd" clip-rule="evenodd" d="M359.892 165.699L347.768 144.699L323.519 144.699L319.027 152.481L343.603 152.113L355.459 173.378L359.892 165.699Z" fill="#0F202C"/>
<path fill-rule="evenodd" clip-rule="evenodd" d="M352.177 179.063L340.052 158.063L315.804 158.063L311.311 165.844L335.887 165.476L347.743 186.741L352.177 179.063Z" fill="#0F202C"/>
<path fill-rule="evenodd" clip-rule="evenodd" d="M343.831 193.518L331.707 172.518L307.458 172.518L302.966 180.299L327.542 179.931L339.398 201.196L343.831 193.518Z" fill="#0F202C"/>
<path fill-rule="evenodd" clip-rule="evenodd" d="M413.955 146.324L392.955 134.199L371.955 146.324L371.955 170.572L378.997 174.638L406.912 174.638L413.955 170.572L413.955 146.324Z" fill="#0C1821"/>
<path fill-rule="evenodd" clip-rule="evenodd" d="M413.955 146.324L392.955 134.199L371.955 146.324L371.955 155.309L393.054 142.702L413.955 155.19L413.955 146.324Z" fill="#0F202C"/>
<path fill-rule="evenodd" clip-rule="evenodd" d="M413.955 161.755L392.955 149.63L371.955 161.755L371.955 170.74L393.054 158.133L413.955 170.621L413.955 161.755Z" fill="#0F202C"/>
<path fill-rule="evenodd" clip-rule="evenodd" d="M413.955 178.446L392.955 166.321L371.955 178.446L371.955 187.431L393.054 174.824L413.955 187.312L413.955 178.446Z" fill="#0F202C"/>
<path fill-rule="evenodd" clip-rule="evenodd" d="M476.881 165.699L464.757 144.699L440.508 144.699L428.384 165.699L432.449 172.741L456.625 186.699L464.757 186.699L476.881 165.699Z" fill="#0C1821"/>
<path fill-rule="evenodd" clip-rule="evenodd" d="M476.881 165.699L464.757 144.699L440.508 144.699L436.016 152.481L460.592 152.113L472.448 173.378L476.881 165.699Z" fill="#0F202C"/>
<path fill-rule="evenodd" clip-rule="evenodd" d="M469.165 179.063L457.041 158.063L432.792 158.063L428.3 165.844L452.876 165.476L464.732 186.741L469.165 179.063Z" fill="#0F202C"/>
<path fill-rule="evenodd" clip-rule="evenodd" d="M460.82 193.518L448.696 172.518L424.447 172.518L419.955 180.299L444.531 179.931L456.387 201.196L460.82 193.518Z" fill="#0F202C"/>
<path fill-rule="evenodd" clip-rule="evenodd" d="M530.943 146.324L509.943 134.199L488.943 146.324L488.943 170.572L495.986 174.638L523.901 174.638L530.943 170.572L530.943 146.324Z" fill="#0C1821"/>
<path fill-rule="evenodd" clip-rule="evenodd" d="M530.943 146.324L509.943 134.199L488.943 146.324L488.943 155.309L510.043 142.702L530.943 155.19L530.943 146.324Z" fill="#0F202C"/>
<path fill-rule="evenodd" clip-rule="evenodd" d="M530.943 161.755L509.943 149.63L488.943 161.755L488.943 170.74L510.043 158.133L530.943 170.621L530.943 161.755Z" fill="#0F202C"/>
<path fill-rule="evenodd" clip-rule="evenodd" d="M530.943 178.446L509.943 166.321L488.943 178.446L488.943 187.431L510.043 174.824L530.943 187.312L530.943 178.446Z" fill="#0F202C"/>
<path fill-rule="evenodd" clip-rule="evenodd" d="M593.87 165.699L581.745 144.699L557.497 144.699L545.372 165.699L549.438 172.741L573.614 186.699L581.745 186.699L593.87 165.699Z" fill="#0C1821"/>
<path fill-rule="evenodd" clip-rule="evenodd" d="M593.87 165.699L581.746 144.699L557.497 144.699L553.004 152.481L577.58 152.113L589.437 173.378L593.87 165.699Z" fill="#0F202C"/>
<path fill-rule="evenodd" clip-rule="evenodd" d="M586.154 179.063L574.03 158.063L549.781 158.063L545.288 165.844L569.865 165.476L581.721 186.741L586.154 179.063Z" fill="#0F202C"/>
<path fill-rule="evenodd" clip-rule="evenodd" d="M577.809 193.518L565.685 172.518L541.436 172.518L536.943 180.299L561.519 179.931L573.376 201.196L577.809 193.518Z" fill="#0F202C"/>
<path fill-rule="evenodd" clip-rule="evenodd" d="M647.932 146.324L626.932 134.199L605.932 146.324L605.932 170.572L612.975 174.638L640.89 174.638L647.932 170.572L647.932 146.324Z" fill="#0C1821"/>
<path fill-rule="evenodd" clip-rule="evenodd" d="M647.932 146.324L626.932 134.199L605.932 146.324L605.932 155.309L627.032 142.702L647.932 155.19L647.932 146.324Z" fill="#0F202C"/>
<path fill-rule="evenodd" clip-rule="evenodd" d="M647.932 161.755L626.932 149.63L605.932 161.755L605.932 170.74L627.032 158.133L647.932 170.621L647.932 161.755Z" fill="#0F202C"/>
<path fill-rule="evenodd" clip-rule="evenodd" d="M647.932 178.446L626.932 166.321L605.932 178.446L605.932 187.431L627.032 174.824L647.932 187.312L647.932 178.446Z" fill="#0F202C"/>
<path fill-rule="evenodd" clip-rule="evenodd" d="M710.859 165.699L698.734 144.699L674.485 144.699L662.361 165.699L666.427 172.741L690.602 186.699L698.734 186.699L710.859 165.699Z" fill="#0C1821"/>
<path fill-rule="evenodd" clip-rule="evenodd" d="M710.859 165.699L698.734 144.699L674.486 144.699L669.993 152.481L694.569 152.113L706.426 173.378L710.859 165.699Z" fill="#0F202C"/>
<path fill-rule="evenodd" clip-rule="evenodd" d="M703.143 179.063L691.019 158.063L666.77 158.063L662.277 165.844L686.853 165.476L698.71 186.741L703.143 179.063Z" fill="#0F202C"/>
<path fill-rule="evenodd" clip-rule="evenodd" d="M694.798 193.518L682.673 172.518L658.425 172.518L653.932 180.299L678.508 179.931L690.365 201.196L694.798 193.518Z" fill="#0F202C"/>
<path fill-rule="evenodd" clip-rule="evenodd" d="M764.921 146.324L743.921 134.199L722.921 146.324L722.921 170.572L729.963 174.638L757.878 174.638L764.921 170.572L764.921 146.324Z" fill="#0C1821"/>
<path fill-rule="evenodd" clip-rule="evenodd" d="M764.921 146.324L743.921 134.199L722.921 146.324L722.921 155.309L744.02 142.702L764.921 155.19L764.921 146.324Z" fill="#0F202C"/>
<path fill-rule="evenodd" clip-rule="evenodd" d="M764.921 161.755L743.921 149.63L722.921 161.755L722.921 170.74L744.02 158.133L764.921 170.621L764.921 161.755Z" fill="#0F202C"/>
<path fill-rule="evenodd" clip-rule="evenodd" d="M764.921 178.446L743.921 166.321L722.921 178.446L722.921 187.431L744.02 174.824L764.921 187.312L764.921 178.446Z" fill="#0F202C"/>
<path fill-rule="evenodd" clip-rule="evenodd" d="M827.847 165.699L815.723 144.699L791.474 144.699L779.35 165.699L783.416 172.741L807.591 186.699L815.723 186.699L827.847 165.699Z" fill="#0C1821"/>
<path fill-rule="evenodd" clip-rule="evenodd" d="M827.848 165.699L815.723 144.699L791.474 144.699L786.982 152.481L811.558 152.113L823.414 173.378L827.848 165.699Z" fill="#0F202C"/>
<path fill-rule="evenodd" clip-rule="evenodd" d="M820.132 179.063L808.007 158.063L783.759 158.063L779.266 165.844L803.842 165.476L815.699 186.741L820.132 179.063Z" fill="#0F202C"/>
<path fill-rule="evenodd" clip-rule="evenodd" d="M811.786 193.518L799.662 172.518L775.413 172.518L770.921 180.299L795.497 179.931L807.353 201.196L811.786 193.518Z" fill="#0F202C"/>
<path fill-rule="evenodd" clip-rule="evenodd" d="M881.909 146.324L860.909 134.199L839.909 146.324L839.909 170.572L846.952 174.638L874.867 174.638L881.909 170.572L881.909 146.324Z" fill="#0C1821"/>
<path fill-rule="evenodd" clip-rule="evenodd" d="M881.909 146.324L860.909 134.199L839.909 146.324L839.909 155.309L861.009 142.702L881.909 155.19L881.909 146.324Z" fill="#0F202C"/>
<path fill-rule="evenodd" clip-rule="evenodd" d="M881.909 161.755L860.909 149.63L839.909 161.755L839.909 170.74L861.009 158.133L881.909 170.621L881.909 161.755Z" fill="#0F202C"/>
<path fill-rule="evenodd" clip-rule="evenodd" d="M881.909 178.446L860.909 166.321L839.909 178.446L839.909 187.431L861.009 174.824L881.909 187.312L881.909 178.446Z" fill="#0F202C"/>
<path fill-rule="evenodd" clip-rule="evenodd" d="M944.836 165.699L932.711 144.699L908.462 144.699L896.338 165.699L900.404 172.741L924.579 186.699L932.711 186.699L944.836 165.699Z" fill="#0C1821"/>
<path fill-rule="evenodd" clip-rule="evenodd" d="M944.836 165.699L932.711 144.699L908.463 144.699L903.97 152.481L928.546 152.113L940.403 173.378L944.836 165.699Z" fill="#0F202C"/>
<path fill-rule="evenodd" clip-rule="evenodd" d="M937.12 179.063L924.996 158.063L900.747 158.063L896.254 165.844L920.83 165.476L932.687 186.741L937.12 179.063Z" fill="#0F202C"/>
<path fill-rule="evenodd" clip-rule="evenodd" d="M928.775 193.518L916.65 172.518L892.402 172.518L887.909 180.299L912.485 179.931L924.342 201.196L928.775 193.518Z" fill="#0F202C"/>
<path fill-rule="evenodd" clip-rule="evenodd" d="M998.898 146.324L977.898 134.199L956.898 146.324L956.898 170.572L963.94 174.638L991.856 174.638L998.898 170.572L998.898 146.324Z" fill="#0C1821"/>
<path fill-rule="evenodd" clip-rule="evenodd" d="M998.898 146.324L977.898 134.199L956.898 146.324L956.898 155.309L977.997 142.702L998.898 155.19L998.898 146.324Z" fill="#0F202C"/>
<path fill-rule="evenodd" clip-rule="evenodd" d="M998.898 161.755L977.898 149.63L956.898 161.755L956.898 170.74L977.997 158.133L998.898 170.621L998.898 161.755Z" fill="#0F202C"/>
<path fill-rule="evenodd" clip-rule="evenodd" d="M998.898 178.446L977.898 166.321L956.898 178.446L956.898 187.431L977.997 174.824L998.898 187.312L998.898 178.446Z" fill="#0F202C"/>
<path fill-rule="evenodd" clip-rule="evenodd" d="M1061.82 165.699L1049.7 144.699L1025.45 144.699L1013.33 165.699L1017.39 172.741L1041.57 186.699L1049.7 186.699L1061.82 165.699Z" fill="#0C1821"/>
<path fill-rule="evenodd" clip-rule="evenodd" d="M1061.82 165.699L1049.7 144.699L1025.45 144.699L1020.96 152.481L1045.54 152.113L1057.39 173.378L1061.82 165.699Z" fill="#0F202C"/>
<path fill-rule="evenodd" clip-rule="evenodd" d="M1054.11 179.063L1041.98 158.063L1017.74 158.063L1013.24 165.844L1037.82 165.476L1049.68 186.741L1054.11 179.063Z" fill="#0F202C"/>
<path fill-rule="evenodd" clip-rule="evenodd" d="M1045.76 193.518L1033.64 172.518L1009.39 172.518L1004.9 180.299L1029.47 179.931L1041.33 201.196L1045.76 193.518Z" fill="#0F202C"/>
<path fill-rule="evenodd" clip-rule="evenodd" d="M1115.89 146.324L1094.89 134.199L1073.89 146.324L1073.89 170.572L1080.93 174.638L1108.84 174.638L1115.89 170.572L1115.89 146.324Z" fill="#0C1821"/>
<path fill-rule="evenodd" clip-rule="evenodd" d="M1115.89 146.324L1094.89 134.199L1073.89 146.324L1073.89 155.309L1094.99 142.702L1115.89 155.19L1115.89 146.324Z" fill="#0F202C"/>
<path fill-rule="evenodd" clip-rule="evenodd" d="M1115.89 161.755L1094.89 149.63L1073.89 161.755L1073.89 170.74L1094.99 158.133L1115.89 170.621L1115.89 161.755Z" fill="#0F202C"/>
<path fill-rule="evenodd" clip-rule="evenodd" d="M1115.89 178.446L1094.89 166.321L1073.89 178.446L1073.89 187.431L1094.99 174.824L1115.89 187.312L1115.89 178.446Z" fill="#0F202C"/>
<path fill-rule="evenodd" clip-rule="evenodd" d="M1178.81 165.699L1166.69 144.699L1142.44 144.699L1130.32 165.699L1134.38 172.741L1158.56 186.699L1166.69 186.699L1178.81 165.699Z" fill="#0C1821"/>
<path fill-rule="evenodd" clip-rule="evenodd" d="M1178.81 165.699L1166.69 144.699L1142.44 144.699L1137.95 152.481L1162.52 152.113L1174.38 173.378L1178.81 165.699Z" fill="#0F202C"/>
<path fill-rule="evenodd" clip-rule="evenodd" d="M1171.1 179.063L1158.97 158.063L1134.72 158.063L1130.23 165.844L1154.81 165.476L1166.66 186.741L1171.1 179.063Z" fill="#0F202C"/>
<path fill-rule="evenodd" clip-rule="evenodd" d="M1162.75 193.518L1150.63 172.518L1126.38 172.518L1121.89 180.299L1146.46 179.931L1158.32 201.196L1162.75 193.518Z" fill="#0F202C"/>
<path fill-rule="evenodd" clip-rule="evenodd" d="M1232.88 146.324L1211.88 134.199L1190.88 146.324L1190.88 170.572L1197.92 174.638L1225.83 174.638L1232.88 170.572L1232.88 146.324Z" fill="#0C1821"/>
<path fill-rule="evenodd" clip-rule="evenodd" d="M1232.88 146.324L1211.88 134.199L1190.88 146.324L1190.88 155.309L1211.98 142.702L1232.88 155.19L1232.88 146.324Z" fill="#0F202C"/>
<path fill-rule="evenodd" clip-rule="evenodd" d="M1232.88 161.755L1211.88 149.63L1190.88 161.755L1190.88 170.74L1211.97 158.133L1232.88 170.621L1232.88 161.755Z" fill="#0F202C"/>
<path fill-rule="evenodd" clip-rule="evenodd" d="M1232.88 178.446L1211.88 166.321L1190.88 178.446L1190.88 187.431L1211.97 174.824L1232.88 187.312L1232.88 178.446Z" fill="#0F202C"/>
<path fill-rule="evenodd" clip-rule="evenodd" d="M1295.8 165.699L1283.68 144.699L1259.43 144.699L1247.3 165.699L1251.37 172.741L1275.55 186.699L1283.68 186.699L1295.8 165.699Z" fill="#0C1821"/>
<path fill-rule="evenodd" clip-rule="evenodd" d="M1295.8 165.699L1283.68 144.699L1259.43 144.699L1254.94 152.481L1279.51 152.113L1291.37 173.378L1295.8 165.699Z" fill="#0F202C"/>
<path fill-rule="evenodd" clip-rule="evenodd" d="M1288.09 179.063L1275.96 158.063L1251.71 158.063L1247.22 165.844L1271.8 165.476L1283.65 186.741L1288.09 179.063Z" fill="#0F202C"/>
<path fill-rule="evenodd" clip-rule="evenodd" d="M1279.74 193.518L1267.62 172.518L1243.37 172.518L1238.88 180.299L1263.45 179.931L1275.31 201.196L1279.74 193.518Z" fill="#0F202C"/>
<path fill-rule="evenodd" clip-rule="evenodd" d="M1349.86 146.324L1328.86 134.199L1307.86 146.324L1307.86 170.572L1314.91 174.638L1342.82 174.638L1349.86 170.572L1349.86 146.324Z" fill="#0C1821"/>
<path fill-rule="evenodd" clip-rule="evenodd" d="M1349.86 146.324L1328.86 134.199L1307.86 146.324L1307.86 155.309L1328.96 142.702L1349.86 155.19L1349.86 146.324Z" fill="#0F202C"/>
<path fill-rule="evenodd" clip-rule="evenodd" d="M1349.86 161.755L1328.86 149.63L1307.86 161.755L1307.86 170.74L1328.96 158.133L1349.86 170.621L1349.86 161.755Z" fill="#0F202C"/>
<path fill-rule="evenodd" clip-rule="evenodd" d="M1349.86 178.446L1328.86 166.321L1307.86 178.446L1307.86 187.431L1328.96 174.824L1349.86 187.312L1349.86 178.446Z" fill="#0F202C"/>
<path fill-rule="evenodd" clip-rule="evenodd" d="M1412.79 165.699L1400.67 144.699L1376.42 144.699L1364.29 165.699L1368.36 172.741L1392.53 186.699L1400.67 186.699L1412.79 165.699Z" fill="#0C1821"/>
<path fill-rule="evenodd" clip-rule="evenodd" d="M1412.79 165.699L1400.67 144.699L1376.42 144.699L1371.93 152.481L1396.5 152.113L1408.36 173.378L1412.79 165.699Z" fill="#0F202C"/>
<path fill-rule="evenodd" clip-rule="evenodd" d="M1405.08 179.063L1392.95 158.063L1368.7 158.063L1364.21 165.844L1388.79 165.476L1400.64 186.741L1405.08 179.063Z" fill="#0F202C"/>
<path fill-rule="evenodd" clip-rule="evenodd" d="M1396.73 193.518L1384.61 172.518L1360.36 172.518L1355.86 180.299L1380.44 179.931L1392.3 201.196L1396.73 193.518Z" fill="#0F202C"/>
<path fill-rule="evenodd" clip-rule="evenodd" d="M1466.85 146.324L1445.85 134.199L1424.85 146.324L1424.85 170.572L1431.89 174.638L1459.81 174.638L1466.85 170.572L1466.85 146.324Z" fill="#0C1821"/>
<path fill-rule="evenodd" clip-rule="evenodd" d="M1466.85 146.324L1445.85 134.199L1424.85 146.324L1424.85 155.309L1445.95 142.702L1466.85 155.19L1466.85 146.324Z" fill="#0F202C"/>
<path fill-rule="evenodd" clip-rule="evenodd" d="M1466.85 161.755L1445.85 149.63L1424.85 161.755L1424.85 170.74L1445.95 158.133L1466.85 170.621L1466.85 161.755Z" fill="#0F202C"/>
<path fill-rule="evenodd" clip-rule="evenodd" d="M1466.85 178.446L1445.85 166.321L1424.85 178.446L1424.85 187.431L1445.95 174.824L1466.85 187.312L1466.85 178.446Z" fill="#0F202C"/>
<path fill-rule="evenodd" clip-rule="evenodd" d="M1529.78 165.699L1517.65 144.699L1493.41 144.699L1481.28 165.699L1485.35 172.741L1509.52 186.699L1517.65 186.699L1529.78 165.699Z" fill="#0C1821"/>
<path fill-rule="evenodd" clip-rule="evenodd" d="M1529.78 165.699L1517.65 144.699L1493.41 144.699L1488.91 152.481L1513.49 152.113L1525.35 173.378L1529.78 165.699Z" fill="#0F202C"/>
<path fill-rule="evenodd" clip-rule="evenodd" d="M1522.06 179.063L1509.94 158.063L1485.69 158.063L1481.2 165.844L1505.77 165.476L1517.63 186.741L1522.06 179.063Z" fill="#0F202C"/>
<path fill-rule="evenodd" clip-rule="evenodd" d="M1513.72 193.518L1501.59 172.518L1477.35 172.518L1472.85 180.299L1497.43 179.931L1509.28 201.196L1513.72 193.518Z" fill="#0F202C"/>
<path fill-rule="evenodd" clip-rule="evenodd" d="M1583.84 146.324L1562.84 134.199L1541.84 146.324L1541.84 170.572L1548.88 174.638L1576.8 174.638L1583.84 170.572L1583.84 146.324Z" fill="#0C1821"/>
<path fill-rule="evenodd" clip-rule="evenodd" d="M1583.84 146.324L1562.84 134.199L1541.84 146.324L1541.84 155.309L1562.94 142.702L1583.84 155.19L1583.84 146.324Z" fill="#0F202C"/>
<path fill-rule="evenodd" clip-rule="evenodd" d="M1583.84 161.755L1562.84 149.63L1541.84 161.755L1541.84 170.74L1562.94 158.133L1583.84 170.621L1583.84 161.755Z" fill="#0F202C"/>
<path fill-rule="evenodd" clip-rule="evenodd" d="M1583.84 178.446L1562.84 166.321L1541.84 178.446L1541.84 187.431L1562.94 174.824L1583.84 187.312L1583.84 178.446Z" fill="#0F202C"/>
<path fill-rule="evenodd" clip-rule="evenodd" d="M56.9269 232.799L44.8025 211.799L20.5538 211.799L8.42946 232.799L12.4954 239.841L36.6706 253.799L44.8025 253.799L56.9269 232.799Z" fill="#0C1821"/>
<path fill-rule="evenodd" clip-rule="evenodd" d="M56.9261 232.799L44.8018 211.799L20.5531 211.799L16.0605 219.58L40.6366 219.212L52.493 240.477L56.9261 232.799Z" fill="#0F202C"/>
<path fill-rule="evenodd" clip-rule="evenodd" d="M49.2113 246.163L37.0869 225.163L12.8382 225.163L8.34562 232.944L32.9217 232.576L44.7781 253.841L49.2113 246.163Z" fill="#0F202C"/>
<path fill-rule="evenodd" clip-rule="evenodd" d="M40.8656 260.617L28.7412 239.617L4.49251 239.617L-8.10623e-05 247.399L24.576 247.031L36.4324 268.296L40.8656 260.617Z" fill="#0F202C"/>
<path fill-rule="evenodd" clip-rule="evenodd" d="M110.988 213.423L89.9883 201.299L68.9883 213.423L68.9883 237.672L76.0307 241.738L103.946 241.738L110.988 237.672L110.988 213.423Z" fill="#0C1821"/>
<path fill-rule="evenodd" clip-rule="evenodd" d="M110.988 213.423L89.9883 201.299L68.9883 213.423L68.9883 222.408L90.0878 209.802L110.988 222.289L110.988 213.423Z" fill="#0F202C"/>
<path fill-rule="evenodd" clip-rule="evenodd" d="M110.988 228.854L89.9883 216.73L68.9883 228.854L68.9883 237.84L90.0878 225.233L110.988 237.721L110.988 228.854Z" fill="#0F202C"/>
<path fill-rule="evenodd" clip-rule="evenodd" d="M110.988 245.545L89.9883 233.421L68.9883 245.545L68.9883 254.53L90.0878 241.924L110.988 254.412L110.988 245.545Z" fill="#0F202C"/>
<path fill-rule="evenodd" clip-rule="evenodd" d="M173.915 232.799L161.791 211.799L137.542 211.799L125.418 232.799L129.484 239.841L153.659 253.799L161.791 253.799L173.915 232.799Z" fill="#0C1821"/>
<path fill-rule="evenodd" clip-rule="evenodd" d="M173.914 232.799L161.79 211.799L137.541 211.799L133.049 219.58L157.625 219.212L169.481 240.477L173.914 232.799Z" fill="#0F202C"/>
<path fill-rule="evenodd" clip-rule="evenodd" d="M166.2 246.163L154.075 225.163L129.826 225.163L125.334 232.944L149.91 232.576L161.766 253.841L166.2 246.163Z" fill="#0F202C"/>
<path fill-rule="evenodd" clip-rule="evenodd" d="M157.854 260.617L145.729 239.617L121.481 239.617L116.988 247.399L141.564 247.031L153.421 268.296L157.854 260.617Z" fill="#0F202C"/>
<path fill-rule="evenodd" clip-rule="evenodd" d="M227.978 213.423L206.978 201.299L185.978 213.423L185.978 237.672L193.02 241.738L220.935 241.738L227.978 237.672L227.978 213.423Z" fill="#0C1821"/>
<path fill-rule="evenodd" clip-rule="evenodd" d="M227.978 213.423L206.978 201.299L185.978 213.423L185.978 222.408L207.077 209.802L227.978 222.289L227.978 213.423Z" fill="#0F202C"/>
<path fill-rule="evenodd" clip-rule="evenodd" d="M227.978 228.854L206.978 216.73L185.978 228.854L185.978 237.84L207.077 225.233L227.978 237.721L227.978 228.854Z" fill="#0F202C"/>
<path fill-rule="evenodd" clip-rule="evenodd" d="M227.978 245.545L206.978 233.421L185.978 245.545L185.978 254.53L207.077 241.924L227.978 254.412L227.978 245.545Z" fill="#0F202C"/>
<path fill-rule="evenodd" clip-rule="evenodd" d="M290.904 232.799L278.78 211.799L254.531 211.799L242.407 232.799L246.473 239.841L270.648 253.799L278.78 253.799L290.904 232.799Z" fill="#0C1821"/>
<path fill-rule="evenodd" clip-rule="evenodd" d="M290.904 232.799L278.78 211.799L254.531 211.799L250.038 219.58L274.615 219.212L286.471 240.477L290.904 232.799Z" fill="#0F202C"/>
<path fill-rule="evenodd" clip-rule="evenodd" d="M283.189 246.163L271.064 225.163L246.816 225.163L242.323 232.944L266.899 232.576L278.756 253.841L283.189 246.163Z" fill="#0F202C"/>
<path fill-rule="evenodd" clip-rule="evenodd" d="M274.843 260.617L262.719 239.617L238.47 239.617L233.977 247.399L258.554 247.031L270.41 268.296L274.843 260.617Z" fill="#0F202C"/>
<path fill-rule="evenodd" clip-rule="evenodd" d="M359.892 232.799L347.768 211.799L323.519 211.799L311.395 232.799L315.461 239.841L339.636 253.799L347.768 253.799L359.892 232.799Z" fill="#0C1821"/>
<path fill-rule="evenodd" clip-rule="evenodd" d="M359.892 232.799L347.768 211.799L323.519 211.799L319.027 219.58L343.603 219.212L355.459 240.477L359.892 232.799Z" fill="#0F202C"/>
<path fill-rule="evenodd" clip-rule="evenodd" d="M352.177 246.163L340.052 225.163L315.804 225.163L311.311 232.944L335.887 232.576L347.743 253.841L352.177 246.163Z" fill="#0F202C"/>
<path fill-rule="evenodd" clip-rule="evenodd" d="M343.831 260.617L331.707 239.617L307.458 239.617L302.966 247.399L327.542 247.031L339.398 268.296L343.831 260.617Z" fill="#0F202C"/>
<path fill-rule="evenodd" clip-rule="evenodd" d="M413.955 213.423L392.955 201.299L371.955 213.423L371.955 237.672L378.997 241.738L406.912 241.738L413.955 237.672L413.955 213.423Z" fill="#0C1821"/>
<path fill-rule="evenodd" clip-rule="evenodd" d="M413.955 213.423L392.955 201.299L371.955 213.423L371.955 222.408L393.054 209.802L413.955 222.289L413.955 213.423Z" fill="#0F202C"/>
<path fill-rule="evenodd" clip-rule="evenodd" d="M413.955 228.854L392.955 216.73L371.955 228.854L371.955 237.84L393.054 225.233L413.955 237.721L413.955 228.854Z" fill="#0F202C"/>
<path fill-rule="evenodd" clip-rule="evenodd" d="M413.955 245.545L392.955 233.421L371.955 245.545L371.955 254.53L393.054 241.924L413.955 254.412L413.955 245.545Z" fill="#0F202C"/>
<path fill-rule="evenodd" clip-rule="evenodd" d="M476.881 232.799L464.757 211.799L440.508 211.799L428.384 232.799L432.449 239.841L456.625 253.799L464.757 253.799L476.881 232.799Z" fill="#0C1821"/>
<path fill-rule="evenodd" clip-rule="evenodd" d="M476.881 232.799L464.757 211.799L440.508 211.799L436.016 219.58L460.592 219.212L472.448 240.477L476.881 232.799Z" fill="#0F202C"/>
<path fill-rule="evenodd" clip-rule="evenodd" d="M469.165 246.163L457.041 225.163L432.792 225.163L428.3 232.944L452.876 232.576L464.732 253.841L469.165 246.163Z" fill="#0F202C"/>
<path fill-rule="evenodd" clip-rule="evenodd" d="M460.82 260.617L448.696 239.617L424.447 239.617L419.955 247.399L444.531 247.031L456.387 268.296L460.82 260.617Z" fill="#0F202C"/>
<path fill-rule="evenodd" clip-rule="evenodd" d="M530.943 213.423L509.943 201.299L488.943 213.423L488.943 237.672L495.986 241.738L523.901 241.738L530.943 237.672L530.943 213.423Z" fill="#0C1821"/>
<path fill-rule="evenodd" clip-rule="evenodd" d="M530.943 213.423L509.943 201.299L488.943 213.423L488.943 222.408L510.043 209.802L530.943 222.289L530.943 213.423Z" fill="#0F202C"/>
<path fill-rule="evenodd" clip-rule="evenodd" d="M530.943 228.854L509.943 216.73L488.943 228.854L488.943 237.84L510.043 225.233L530.943 237.721L530.943 228.854Z" fill="#0F202C"/>
<path fill-rule="evenodd" clip-rule="evenodd" d="M530.943 245.545L509.943 233.421L488.943 245.545L488.943 254.53L510.043 241.924L530.943 254.412L530.943 245.545Z" fill="#0F202C"/>
<path fill-rule="evenodd" clip-rule="evenodd" d="M593.87 232.799L581.745 211.799L557.497 211.799L545.372 232.799L549.438 239.841L573.614 253.799L581.745 253.799L593.87 232.799Z" fill="#0C1821"/>
<path fill-rule="evenodd" clip-rule="evenodd" d="M593.87 232.799L581.746 211.799L557.497 211.799L553.004 219.58L577.58 219.212L589.437 240.477L593.87 232.799Z" fill="#0F202C"/>
<path fill-rule="evenodd" clip-rule="evenodd" d="M586.154 246.163L574.03 225.163L549.781 225.163L545.288 232.944L569.865 232.576L581.721 253.841L586.154 246.163Z" fill="#0F202C"/>
<path fill-rule="evenodd" clip-rule="evenodd" d="M577.809 260.617L565.685 239.617L541.436 239.617L536.943 247.399L561.519 247.031L573.376 268.296L577.809 260.617Z" fill="#0F202C"/>
<path fill-rule="evenodd" clip-rule="evenodd" d="M647.932 213.423L626.932 201.299L605.932 213.423L605.932 237.672L612.975 241.738L640.89 241.738L647.932 237.672L647.932 213.423Z" fill="#0C1821"/>
<path fill-rule="evenodd" clip-rule="evenodd" d="M647.932 213.423L626.932 201.299L605.932 213.423L605.932 222.408L627.032 209.802L647.932 222.289L647.932 213.423Z" fill="#0F202C"/>
<path fill-rule="evenodd" clip-rule="evenodd" d="M647.932 228.854L626.932 216.73L605.932 228.854L605.932 237.84L627.032 225.233L647.932 237.721L647.932 228.854Z" fill="#0F202C"/>
<path fill-rule="evenodd" clip-rule="evenodd" d="M647.932 245.545L626.932 233.421L605.932 245.545L605.932 254.53L627.032 241.924L647.932 254.412L647.932 245.545Z" fill="#0F202C"/>
<path fill-rule="evenodd" clip-rule="evenodd" d="M710.859 232.799L698.734 211.799L674.485 211.799L662.361 232.799L666.427 239.841L690.602 253.799L698.734 253.799L710.859 232.799Z" fill="#0C1821"/>
<path fill-rule="evenodd" clip-rule="evenodd" d="M710.859 232.799L698.734 211.799L674.486 211.799L669.993 219.58L694.569 219.212L706.426 240.477L710.859 232.799Z" fill="#0F202C"/>
<path fill-rule="evenodd" clip-rule="evenodd" d="M703.143 246.163L691.019 225.163L666.77 225.163L662.277 232.944L686.853 232.576L698.71 253.841L703.143 246.163Z" fill="#0F202C"/>
<path fill-rule="evenodd" clip-rule="evenodd" d="M694.798 260.617L682.673 239.617L658.425 239.617L653.932 247.399L678.508 247.031L690.365 268.296L694.798 260.617Z" fill="#0F202C"/>
<path fill-rule="evenodd" clip-rule="evenodd" d="M764.921 213.423L743.921 201.299L722.921 213.423L722.921 237.672L729.963 241.738L757.878 241.738L764.921 237.672L764.921 213.423Z" fill="#0C1821"/>
<path fill-rule="evenodd" clip-rule="evenodd" d="M764.921 213.423L743.921 201.299L722.921 213.423L722.921 222.408L744.02 209.802L764.921 222.289L764.921 213.423Z" fill="#0F202C"/>
<path fill-rule="evenodd" clip-rule="evenodd" d="M764.921 228.854L743.921 216.73L722.921 228.854L722.921 237.84L744.02 225.233L764.921 237.721L764.921 228.854Z" fill="#0F202C"/>
<path fill-rule="evenodd" clip-rule="evenodd" d="M764.921 245.545L743.921 233.421L722.921 245.545L722.921 254.53L744.02 241.924L764.921 254.412L764.921 245.545Z" fill="#0F202C"/>
<path fill-rule="evenodd" clip-rule="evenodd" d="M827.847 232.799L815.723 211.799L791.474 211.799L779.35 232.799L783.416 239.841L807.591 253.799L815.723 253.799L827.847 232.799Z" fill="#0C1821"/>
<path fill-rule="evenodd" clip-rule="evenodd" d="M827.848 232.799L815.723 211.799L791.474 211.799L786.982 219.58L811.558 219.212L823.414 240.477L827.848 232.799Z" fill="#0F202C"/>
<path fill-rule="evenodd" clip-rule="evenodd" d="M820.132 246.163L808.007 225.163L783.759 225.163L779.266 232.944L803.842 232.576L815.699 253.841L820.132 246.163Z" fill="#0F202C"/>
<path fill-rule="evenodd" clip-rule="evenodd" d="M811.786 260.617L799.662 239.617L775.413 239.617L770.921 247.399L795.497 247.031L807.353 268.296L811.786 260.617Z" fill="#0F202C"/>
<path fill-rule="evenodd" clip-rule="evenodd" d="M881.909 213.423L860.909 201.299L839.909 213.423L839.909 237.672L846.952 241.738L874.867 241.738L881.909 237.672L881.909 213.423Z" fill="#0C1821"/>
<path fill-rule="evenodd" clip-rule="evenodd" d="M881.909 213.423L860.909 201.299L839.909 213.423L839.909 222.408L861.009 209.802L881.909 222.289L881.909 213.423Z" fill="#0F202C"/>
<path fill-rule="evenodd" clip-rule="evenodd" d="M881.909 228.854L860.909 216.73L839.909 228.854L839.909 237.84L861.009 225.233L881.909 237.721L881.909 228.854Z" fill="#0F202C"/>
<path fill-rule="evenodd" clip-rule="evenodd" d="M881.909 245.545L860.909 233.421L839.909 245.545L839.909 254.53L861.009 241.924L881.909 254.412L881.909 245.545Z" fill="#0F202C"/>
<path fill-rule="evenodd" clip-rule="evenodd" d="M944.836 232.799L932.711 211.799L908.462 211.799L896.338 232.799L900.404 239.841L924.579 253.799L932.711 253.799L944.836 232.799Z" fill="#0C1821"/>
<path fill-rule="evenodd" clip-rule="evenodd" d="M944.836 232.799L932.711 211.799L908.463 211.799L903.97 219.58L928.546 219.212L940.403 240.477L944.836 232.799Z" fill="#0F202C"/>
<path fill-rule="evenodd" clip-rule="evenodd" d="M937.12 246.163L924.996 225.163L900.747 225.163L896.254 232.944L920.83 232.576L932.687 253.841L937.12 246.163Z" fill="#0F202C"/>
<path fill-rule="evenodd" clip-rule="evenodd" d="M928.775 260.617L916.65 239.617L892.402 239.617L887.909 247.399L912.485 247.031L924.342 268.296L928.775 260.617Z" fill="#0F202C"/>
<path fill-rule="evenodd" clip-rule="evenodd" d="M998.898 213.423L977.898 201.299L956.898 213.423L956.898 237.672L963.94 241.738L991.856 241.738L998.898 237.672L998.898 213.423Z" fill="#0C1821"/>
<path fill-rule="evenodd" clip-rule="evenodd" d="M998.898 213.423L977.898 201.299L956.898 213.423L956.898 222.408L977.997 209.802L998.898 222.289L998.898 213.423Z" fill="#0F202C"/>
<path fill-rule="evenodd" clip-rule="evenodd" d="M998.898 228.854L977.898 216.73L956.898 228.854L956.898 237.84L977.997 225.233L998.898 237.721L998.898 228.854Z" fill="#0F202C"/>
<path fill-rule="evenodd" clip-rule="evenodd" d="M998.898 245.545L977.898 233.421L956.898 245.545L956.898 254.53L977.997 241.924L998.898 254.412L998.898 245.545Z" fill="#0F202C"/>
<path fill-rule="evenodd" clip-rule="evenodd" d="M1061.82 232.799L1049.7 211.799L1025.45 211.799L1013.33 232.799L1017.39 239.841L1041.57 253.799L1049.7 253.799L1061.82 232.799Z" fill="#0C1821"/>
<path fill-rule="evenodd" clip-rule="evenodd" d="M1061.82 232.799L1049.7 211.799L1025.45 211.799L1020.96 219.58L1045.54 219.212L1057.39 240.477L1061.82 232.799Z" fill="#0F202C"/>
<path fill-rule="evenodd" clip-rule="evenodd" d="M1054.11 246.163L1041.98 225.163L1017.74 225.163L1013.24 232.944L1037.82 232.576L1049.68 253.841L1054.11 246.163Z" fill="#0F202C"/>
<path fill-rule="evenodd" clip-rule="evenodd" d="M1045.76 260.617L1033.64 239.617L1009.39 239.617L1004.9 247.399L1029.47 247.031L1041.33 268.296L1045.76 260.617Z" fill="#0F202C"/>
<path fill-rule="evenodd" clip-rule="evenodd" d="M1115.89 213.423L1094.89 201.299L1073.89 213.423L1073.89 237.672L1080.93 241.738L1108.84 241.738L1115.89 237.672L1115.89 213.423Z" fill="#0C1821"/>
<path fill-rule="evenodd" clip-rule="evenodd" d="M1115.89 213.423L1094.89 201.299L1073.89 213.423L1073.89 222.408L1094.99 209.802L1115.89 222.289L1115.89 213.423Z" fill="#0F202C"/>
<path fill-rule="evenodd" clip-rule="evenodd" d="M1115.89 228.854L1094.89 216.73L1073.89 228.854L1073.89 237.84L1094.99 225.233L1115.89 237.721L1115.89 228.854Z" fill="#0F202C"/>
<path fill-rule="evenodd" clip-rule="evenodd" d="M1115.89 245.545L1094.89 233.421L1073.89 245.545L1073.89 254.53L1094.99 241.924L1115.89 254.412L1115.89 245.545Z" fill="#0F202C"/>
<path fill-rule="evenodd" clip-rule="evenodd" d="M1178.81 232.799L1166.69 211.799L1142.44 211.799L1130.32 232.799L1134.38 239.841L1158.56 253.799L1166.69 253.799L1178.81 232.799Z" fill="#0C1821"/>
<path fill-rule="evenodd" clip-rule="evenodd" d="M1178.81 232.799L1166.69 211.799L1142.44 211.799L1137.95 219.58L1162.52 219.212L1174.38 240.477L1178.81 232.799Z" fill="#0F202C"/>
<path fill-rule="evenodd" clip-rule="evenodd" d="M1171.1 246.163L1158.97 225.163L1134.72 225.163L1130.23 232.944L1154.81 232.576L1166.66 253.841L1171.1 246.163Z" fill="#0F202C"/>
<path fill-rule="evenodd" clip-rule="evenodd" d="M1162.75 260.617L1150.63 239.617L1126.38 239.617L1121.89 247.399L1146.46 247.031L1158.32 268.296L1162.75 260.617Z" fill="#0F202C"/>
<path fill-rule="evenodd" clip-rule="evenodd" d="M1232.88 213.423L1211.88 201.299L1190.88 213.423L1190.88 237.672L1197.92 241.738L1225.83 241.738L1232.88 237.672L1232.88 213.423Z" fill="#0C1821"/>
<path fill-rule="evenodd" clip-rule="evenodd" d="M1232.88 213.423L1211.88 201.299L1190.88 213.423L1190.88 222.408L1211.98 209.802L1232.88 222.289L1232.88 213.423Z" fill="#0F202C"/>
<path fill-rule="evenodd" clip-rule="evenodd" d="M1232.88 228.854L1211.88 216.73L1190.88 228.854L1190.88 237.84L1211.97 225.233L1232.88 237.721L1232.88 228.854Z" fill="#0F202C"/>
<path fill-rule="evenodd" clip-rule="evenodd" d="M1232.88 245.545L1211.88 233.421L1190.88 245.545L1190.88 254.53L1211.97 241.924L1232.88 254.412L1232.88 245.545Z" fill="#0F202C"/>
<path fill-rule="evenodd" clip-rule="evenodd" d="M1295.8 232.799L1283.68 211.799L1259.43 211.799L1247.3 232.799L1251.37 239.841L1275.55 253.799L1283.68 253.799L1295.8 232.799Z" fill="#0C1821"/>
<path fill-rule="evenodd" clip-rule="evenodd" d="M1295.8 232.799L1283.68 211.799L1259.43 211.799L1254.94 219.58L1279.51 219.212L1291.37 240.477L1295.8 232.799Z" fill="#0F202C"/>
<path fill-rule="evenodd" clip-rule="evenodd" d="M1288.09 246.163L1275.96 225.163L1251.71 225.163L1247.22 232.944L1271.8 232.576L1283.65 253.841L1288.09 246.163Z" fill="#0F202C"/>
<path fill-rule="evenodd" clip-rule="evenodd" d="M1279.74 260.617L1267.62 239.617L1243.37 239.617L1238.88 247.399L1263.45 247.031L1275.31 268.296L1279.74 260.617Z" fill="#0F202C"/>
<path fill-rule="evenodd" clip-rule="evenodd" d="M1349.86 213.423L1328.86 201.299L1307.86 213.423L1307.86 237.672L1314.91 241.738L1342.82 241.738L1349.86 237.672L1349.86 213.423Z" fill="#0C1821"/>
<path fill-rule="evenodd" clip-rule="evenodd" d="M1349.86 213.423L1328.86 201.299L1307.86 213.423L1307.86 222.408L1328.96 209.802L1349.86 222.289L1349.86 213.423Z" fill="#0F202C"/>
<path fill-rule="evenodd" clip-rule="evenodd" d="M1349.86 228.854L1328.86 216.73L1307.86 228.854L1307.86 237.84L1328.96 225.233L1349.86 237.721L1349.86 228.854Z" fill="#0F202C"/>
<path fill-rule="evenodd" clip-rule="evenodd" d="M1349.86 245.545L1328.86 233.421L1307.86 245.545L1307.86 254.53L1328.96 241.924L1349.86 254.412L1349.86 245.545Z" fill="#0F202C"/>
<path fill-rule="evenodd" clip-rule="evenodd" d="M1412.79 232.799L1400.67 211.799L1376.42 211.799L1364.29 232.799L1368.36 239.841L1392.53 253.799L1400.67 253.799L1412.79 232.799Z" fill="#0C1821"/>
<path fill-rule="evenodd" clip-rule="evenodd" d="M1412.79 232.799L1400.67 211.799L1376.42 211.799L1371.93 219.58L1396.5 219.212L1408.36 240.477L1412.79 232.799Z" fill="#0F202C"/>
<path fill-rule="evenodd" clip-rule="evenodd" d="M1405.08 246.163L1392.95 225.163L1368.7 225.163L1364.21 232.944L1388.79 232.576L1400.64 253.841L1405.08 246.163Z" fill="#0F202C"/>
<path fill-rule="evenodd" clip-rule="evenodd" d="M1396.73 260.617L1384.61 239.617L1360.36 239.617L1355.86 247.399L1380.44 247.031L1392.3 268.296L1396.73 260.617Z" fill="#0F202C"/>
<path fill-rule="evenodd" clip-rule="evenodd" d="M1466.85 213.423L1445.85 201.299L1424.85 213.423L1424.85 237.672L1431.89 241.738L1459.81 241.738L1466.85 237.672L1466.85 213.423Z" fill="#0C1821"/>
<path fill-rule="evenodd" clip-rule="evenodd" d="M1466.85 213.423L1445.85 201.299L1424.85 213.423L1424.85 222.408L1445.95 209.802L1466.85 222.289L1466.85 213.423Z" fill="#0F202C"/>
<path fill-rule="evenodd" clip-rule="evenodd" d="M1466.85 228.854L1445.85 216.73L1424.85 228.854L1424.85 237.84L1445.95 225.233L1466.85 237.721L1466.85 228.854Z" fill="#0F202C"/>
<path fill-rule="evenodd" clip-rule="evenodd" d="M1466.85 245.545L1445.85 233.421L1424.85 245.545L1424.85 254.53L1445.95 241.924L1466.85 254.412L1466.85 245.545Z" fill="#0F202C"/>
<path fill-rule="evenodd" clip-rule="evenodd" d="M1529.78 232.799L1517.65 211.799L1493.41 211.799L1481.28 232.799L1485.35 239.841L1509.52 253.799L1517.65 253.799L1529.78 232.799Z" fill="#0C1821"/>
<path fill-rule="evenodd" clip-rule="evenodd" d="M1529.78 232.799L1517.65 211.799L1493.41 211.799L1488.91 219.58L1513.49 219.212L1525.35 240.477L1529.78 232.799Z" fill="#0F202C"/>
<path fill-rule="evenodd" clip-rule="evenodd" d="M1522.06 246.163L1509.94 225.163L1485.69 225.163L1481.2 232.944L1505.77 232.576L1517.63 253.841L1522.06 246.163Z" fill="#0F202C"/>
<path fill-rule="evenodd" clip-rule="evenodd" d="M1513.72 260.617L1501.59 239.617L1477.35 239.617L1472.85 247.399L1497.43 247.031L1509.28 268.296L1513.72 260.617Z" fill="#0F202C"/>
<path fill-rule="evenodd" clip-rule="evenodd" d="M1583.84 213.423L1562.84 201.299L1541.84 213.423L1541.84 237.672L1548.88 241.738L1576.8 241.738L1583.84 237.672L1583.84 213.423Z" fill="#0C1821"/>
<path fill-rule="evenodd" clip-rule="evenodd" d="M1583.84 213.423L1562.84 201.299L1541.84 213.423L1541.84 222.408L1562.94 209.802L1583.84 222.289L1583.84 213.423Z" fill="#0F202C"/>
<path fill-rule="evenodd" clip-rule="evenodd" d="M1583.84 228.854L1562.84 216.73L1541.84 228.854L1541.84 237.84L1562.94 225.233L1583.84 237.721L1583.84 228.854Z" fill="#0F202C"/>
<path fill-rule="evenodd" clip-rule="evenodd" d="M1583.84 245.545L1562.84 233.421L1541.84 245.545L1541.84 254.53L1562.94 241.924L1583.84 254.412L1583.84 245.545Z" fill="#0F202C"/>
</svg>
