<svg width="193" height="122" viewBox="0 0 193 122" fill="none" xmlns="http://www.w3.org/2000/svg">
<path d="M52.6836 2.12002L57.4499 1.30867L67.4788 1L70.6859 1.82016L83.0713 15.8071L84.8344 18.541L89.8045 24.2557L91.8333 25.6491L93.3394 25.4903L94.2608 25.9136L94.5 28.5064L93.8532 32.6073L93.9064 37.3519L94.686 40.5973L95.8377 40.9412L102.544 40.2445L103.288 40.8971L103.669 42.3258L103.501 45.3507L103.811 46.5854L104.396 47.4849L107.24 49.6103L109.933 49.9542L110.881 50.4393L111.678 52.3001L112.334 57.1064L114.008 58.2705L115.78 58.2617L123.895 55.1222L126.031 54.981L131.656 57.6355L132.914 58.6056L138.54 64.9818L140.533 65.5903L144.042 64.5673L148.046 65.2816L151.351 66.7015L151.918 66.4634L162.345 72.9189L166.943 76.1554L167.767 77.4695L169.061 78.0956L170.691 78.6248L175.05 78.907L178.053 78.1044L184.715 77.8311L192.033 79.3391L189.854 82.2935L187.807 89.1634L187.24 94.887L185.849 98.2029L183.165 98.6439L177.584 97.3034L174.111 97.4092L172.224 96.8007L168.937 96.9859L166.492 96.0334L164.861 95.9629L158.624 93.3084L156.702 91.7562L155.134 89.4456L151.944 91.4652L148.658 95.0281L146.629 98.4763L144.733 100.619L144.582 101.492L146.283 104.755L148.418 106.916L148.48 107.507L150.624 109.103L150.739 109.624L154.957 111.899L155.683 114.024L155.019 115.294L149.916 115.373L146.274 116.555L145.548 118.513L145.805 119.069L144.883 120.974L143.741 120.489L142.013 121L139.975 120.453L137.911 120.656L137.069 120.224L135.767 118.407L134.925 118.081L130.956 119.183L130.044 118.751L129.503 117.278L129.14 117.428L128.795 116.952L127.315 117.658L124.223 117.772L122.912 114.977L120.981 114.465L116.781 115.964L114.434 115.629L114.505 116.405L114.345 115.656L114.026 115.735L110.881 117.155L108.578 117.428L101.251 117.234L100.817 116.652L99.5321 116.59L98.9031 115.762L97.2198 111.52L96.8743 109.077L96.1833 108.495L96.1567 107.789L93.0913 105.805L90.4778 102.066L89.3969 99.0319L89.3172 97.1799L88.6173 94.737L86.872 92.4176L84.2142 86.1474L82.7435 84.4629L81.5741 79.7977L80.8565 78.4043L81.769 74.4357L83.6118 73.0688L83.9218 71.6578L84.4268 71.1374L87.2264 69.2943L89.2995 66.5075L89.1577 65.361L87.9972 64.6731L85.49 66.2605L83.532 66.3311L80.1389 65.3786L79.1643 65.4933L77.0381 64.1352L71.9882 62.6006L69.1089 60.4665L67.6117 58.6674L67.1333 56.4803L63.5186 54.3108L61.7113 54.3902L58.327 56.2245L56.8298 59.4964L56.812 61.8334L56.4134 62.8123L52.4975 65.8372L46.6149 68.4124L41.4853 71.3226L39.2793 73.0335L38.2782 73.2628L35.6115 75.2118L29.4099 78.0868L28.586 78.2191L28.1164 77.5577L27.7177 77.6547L26.9115 76.6581L26.3002 76.4906L24.0234 76.7287L17.8838 81.6056L16.4131 82.1876L12.9491 85.2213L12.7808 86.0944L11.4519 86.7912L7.83723 87.4261L5.0288 87.4437L2.20265 89.8954L2.69877 88.3256L2.17607 87.1263L2.16721 84.0043L1.53819 83.2106L1.75082 81.9407L2.23808 80.7149L1.89257 78.3249L1.0332 76.7463L1.6888 75.5117L2.95569 74.7091L2.60132 71.7636L3.21262 71.5607L3.51384 70.0439L3.33665 69.4971L3.35437 68.721L3.96567 67.2747L4.34662 65.899L3.98339 65.2287L3.74418 64.5497L3.4341 63.8618L3.54928 62.8299L3.77076 61.3042L3.91251 60.6957L8.67001 60.8545L9.29903 60.7134L10.2293 59.6728L13.3744 59.1789L13.9591 59.902L15.0576 60.2989L16.3777 60.2107L20.7631 58.685L20.9846 57.1329L22.7122 53.7111L22.8628 50.4128L24.5549 48.7548L24.2537 43.6222L23.1197 40.0858L23.3944 38.8335L24.422 37.1755L26.6103 35.9585L27.3368 34.3446L29.6314 31.1521L30.3844 28.4183L31.3058 27.8979L33.2017 28.1184L35.0533 26.5927L35.1419 25.5168L33.9548 23.2591L33.6713 21.5571L33.9991 20.3753L34.9825 19.2994L40.9626 16.9183L43.9659 17.1299L44.9759 16.8654L46.7655 15.0486L46.8718 13.9022L48.9626 11.6181L49.4676 9.49269L49.6891 5.10965L50.4421 4.13956L52.2849 3.38112L52.6836 2.12002Z" fill="#F9E5E5" stroke="#77121A" stroke-width="0.5"/>
</svg>
