<svg width="206" height="42" viewBox="0 0 206 42" fill="none" xmlns="http://www.w3.org/2000/svg">
<path d="M2.38441 29.1782L4.89302 29.9731L11.7365 29.1186L15.6299 30.8873L22.5737 26.0381V22.8384L23.3965 22.6197L30.521 23.673L58.0354 23.2954L60.1627 21.2882L61.708 13.438L65.8823 10.1588L66.0629 5.48838L68.7923 0.5L72.505 0.996849L79.3485 3.83887L81.7568 5.42877L83.3823 8.27073L92.5538 7.31682L91.5303 4.43507L94.7212 2.32843L170.14 3.10348L172.287 3.52088L173.371 5.30953L167.892 11.0332L167.431 12.9014L168.896 15.3657L168.976 18.2673L173.371 20.4336L179.833 16.1408L186.757 15.326L188.884 18.2673L189.125 20.1554L186.877 22.262L181.258 24.8655L180.134 26.9125L180.576 28.3037L182.422 29.7744L187.981 31.3046L190.249 33.9081L191.413 34.1864L193.661 33.0337L204.237 34.3255L204.939 36.8098L204.217 41.5L185.091 39.2145L180.696 37.8829L156.573 34.2261L139.334 33.3119L119.446 35.1801L89.122 35.4981L87.9781 36.1142L87.5968 38.7375L86.5332 38.5388L87.0148 39.2145L76.1375 37.5848L64.056 37.6047L20.7073 39.0555L1.66193 41.2416L0.939453 35.0609L2.38441 29.1782Z" fill="#F9E5E5" stroke="#77121A" stroke-width="0.5"/>
</svg>
