<svg width="125" height="142" viewBox="0 0 125 142" fill="none" xmlns="http://www.w3.org/2000/svg">
<path d="M5.50815 43.5633L8.87313 40.6308L12.217 40.6097L16.5208 39.8502L18.1031 39.0169L18.3035 37.9726L22.428 34.3439L24.179 33.6477L31.4892 27.8144L34.2001 27.5295L34.928 27.73L35.8879 28.9219L36.3626 28.8059L36.9217 29.5971L37.9027 29.4388L45.2866 26L48.4617 23.6688L49.6537 23.3945L52.2803 21.3481L58.3879 17.8671L65.3921 14.7869L70.0546 11.1688L70.5293 9.99789L70.5503 7.20254L72.333 3.28904L76.3626 1.09493L78.5145 1L82.8183 3.59493L83.3879 6.21097L85.1706 8.36288L88.5989 10.9156L94.6115 12.7511L97.1432 14.3755L98.3035 14.2384L102.344 15.3776L104.675 15.2932L107.66 13.3945L109.042 14.2173L109.211 15.5886L106.742 18.9219L103.409 21.1266L102.808 21.749L102.439 23.4367L100.244 25.0717L99.1579 29.8186L100.012 31.4852L101.405 37.0654L103.156 39.0802L106.32 46.5802L108.398 49.3544L109.232 52.2764L109.327 54.4916L110.614 58.1203L113.725 62.5928L117.375 64.9663L117.407 65.8101L118.23 66.5063L118.641 69.4283L120.645 74.5021L121.394 75.4937L122.924 75.5675L123.441 76.2637L124 79.6392L123.673 80.9895L122.628 82.403L122.365 82.0021L119.949 82.8038L118.019 84.3966L117.723 83.9853L116.69 85.4515L114.527 86.6751L113.841 88.1835L111.595 89.1646L107.808 83.2996L104.633 81.3586L101.668 84.8608L100.55 85.462L100.413 87.8882L99.5904 88.9325L97.1432 89.7236L92.6073 88.3101L91.9744 88.6055L91.0567 98.384L90.2339 100.241L89.0208 101.39L89.1685 102.319L89.4533 103.3L92.7339 105.757L95.9512 110.905L96.8689 111.422L95.1073 120.62L94.6537 126.2L92.1854 136.58L85.9723 137.508L84.3795 138.954L81.025 140.262L77.8183 140.124L74.9702 140.736L68.5461 141L68.1558 140.705L68.5039 139.513L72.6917 135.283L72.2592 132.255L71.0989 129.407L71.2044 127.065L70.5293 125.905L67.3858 124.618L66.9533 123.869L66.6052 117.899L65.371 115.905L58.8309 115.673L56.2255 116.306L55.0335 117.477L53.9575 117.751L52.2803 116.559L50.4343 111.981L47.6917 111.675L45.9828 113.236L44.7803 117.709L41.8478 121.897L40.0124 122.414L35.7402 122.118L33.2719 120.926L30.0968 118.437L26.7212 113.679L25.6453 110.473L22.428 107.867L20.1917 105.219L19.6432 101.359L20.1811 100.757L20.6136 101.011L22.4491 94.7026L22.6179 91.443L22.0482 89.597L21.12 88.9536H19.6748L19.179 89.4283L18.5778 90.7469L17.5862 96.6118L16.7001 96.4747L15.3183 94.1857L14.7276 91.6962L14.5693 84.8608L14.1368 83.3523L12.8288 81.4641L10.8246 80.4831L7.14317 80.7046L0.845703 85.23L1.9744 83.0359L2.74444 78.5L4.14739 74.1224L3.83094 72.9409L4.22123 70.0928L5.41321 67.7089L5.79296 64.6603L3.21912 61.4325L1.98494 57.2236L2.06933 55.0928L3.17693 53.1203L2.71279 50.9578L3.21912 50.2194L4.53769 49.903L5.98283 46.865L5.52925 46.4009L6.29929 45.3776L6.30984 44.2489L5.50815 43.5633Z" fill="#77121A" stroke="#77121A" stroke-width="0.5"/>
</svg>
