<svg width="236" height="23" viewBox="0 0 236 23" fill="none" xmlns="http://www.w3.org/2000/svg">
<path d="M4.38494 22.34C3.90494 22.372 3.45694 22.436 3.04094 22.404C2.68894 22.372 2.36894 22.404 2.04894 22.404C1.56894 22.404 1.08894 22.436 0.640942 22.436C0.576942 22.436 0.512942 22.404 0.416942 22.404C0.416942 22.34 0.416942 22.276 0.416942 22.212C0.384942 21.604 0.384942 20.964 0.384942 20.356C0.384942 20.164 0.384942 19.94 0.416942 19.748C0.448942 18.948 0.480942 18.116 0.480942 17.316C0.480942 16.42 0.480942 15.492 0.480942 14.564C0.480942 14.34 0.448942 14.116 0.448942 13.892C0.448942 13.604 0.480942 13.316 0.640942 13.092C0.768942 12.9 0.896942 12.74 1.05694 12.612C1.34494 12.356 1.47294 12.036 1.53694 11.684C1.56894 11.46 1.60094 11.204 1.63294 10.98C1.63294 10.724 1.60094 10.468 1.47294 10.244C1.31294 9.956 1.15294 9.636 0.928942 9.38C0.832942 9.22 0.736942 9.06 0.640942 8.932C0.448942 8.612 0.384942 8.26 0.352942 7.908C0.224942 6.628 0.192942 5.348 0.192942 4.068C0.224942 3.46 0.192942 2.852 0.192942 2.212C0.192942 1.764 0.192942 1.284 0.192942 0.835999C0.192942 0.74 0.192942 0.612 0.192942 0.515999C0.192942 0.452 0.224942 0.419998 0.256942 0.323999C0.320942 0.323999 0.384942 0.292 0.480942 0.292C1.05694 0.292 1.63294 0.227999 2.20894 0.259998C2.68894 0.259998 3.16894 0.195999 3.64894 0.195999C4.25694 0.164 4.89694 0.0999985 5.50494 0.131998C6.14494 0.164 6.75294 0.195999 7.39294 0.227999C7.96894 0.292 8.54494 0.387999 9.12094 0.547998C9.66494 0.675999 10.1449 0.931999 10.6569 1.156C11.6169 1.636 12.4169 2.308 13.0249 3.172C13.5689 3.94 13.8569 4.804 14.0489 5.7C14.1769 6.372 14.1769 7.076 14.1129 7.78C14.0489 8.164 13.9529 8.548 13.8249 8.932C13.6649 9.316 13.4729 9.668 13.2489 10.02C12.9929 10.468 12.6729 10.82 12.2249 11.108C12.1609 11.172 12.0969 11.236 12.0009 11.3C11.6489 11.62 11.2329 11.844 10.7529 12.004C10.4969 12.1 10.2729 12.228 10.0169 12.292C9.69694 12.42 9.40894 12.516 9.08894 12.58C8.80094 12.676 8.48094 12.74 8.19294 12.804C8.00094 12.836 7.80894 12.868 7.61694 12.868C7.16894 12.868 6.72094 12.836 6.24094 12.836C5.92094 12.836 5.60094 12.868 5.28094 12.868C5.21694 12.868 5.15294 12.9 5.08894 12.932C4.80094 13.252 4.54494 13.54 4.38494 13.924C4.25694 14.212 4.22494 14.532 4.22494 14.852C4.19294 15.684 4.16094 16.516 4.22494 17.348C4.25694 17.732 4.22494 18.116 4.22494 18.5C4.22494 18.724 4.25694 18.916 4.25694 19.14C4.25694 19.364 4.28894 19.556 4.28894 19.748C4.28894 20.004 4.38494 20.196 4.38494 20.42C4.35294 20.964 4.38494 21.476 4.38494 22.02C4.38494 22.116 4.38494 22.212 4.38494 22.34ZM3.96894 3.716C3.93694 3.78 3.93694 3.844 3.93694 3.908C3.93694 4.196 3.93694 4.452 3.93694 4.74C3.90494 5.86 3.96894 6.98 4.06494 8.068C4.12894 8.644 4.38494 9.092 4.70494 9.54C4.73694 9.604 4.80094 9.636 4.86494 9.636C4.92894 9.636 5.02494 9.668 5.08894 9.668C5.47294 9.636 5.82494 9.604 6.20894 9.572C6.91294 9.572 7.61694 9.444 8.28894 9.188C8.35294 9.156 8.41694 9.156 8.51294 9.124C8.83294 8.996 9.15294 8.868 9.40894 8.644C9.60094 8.484 9.76094 8.356 9.95294 8.196C10.2089 7.908 10.3689 7.62 10.4009 7.236C10.4329 6.692 10.3049 6.148 10.1449 5.604C10.1129 5.54 10.0809 5.444 10.0169 5.38C9.44094 4.388 8.48094 3.94 7.36094 3.78C6.91294 3.716 6.43294 3.684 5.95294 3.684C5.60094 3.652 5.24894 3.652 4.89694 3.62C4.60894 3.62 4.28894 3.652 3.96894 3.716ZM16.9942 0.292C17.0582 0.259998 17.0582 0.259998 17.0902 0.259998C17.7302 0.292 18.3382 0.195999 18.9782 0.164C19.4262 0.164 19.9062 0.164 20.3542 0.164C20.6102 0.164 20.8982 0.164 21.1542 0.164C21.6982 0.0999985 22.2422 0.131998 22.7862 0.131998C23.2022 0.131998 23.5862 0.131998 24.0022 0.131998C24.3222 0.131998 24.6422 0.131998 24.9622 0.131998C25.1542 0.164 25.3462 0.195999 25.5702 0.227999C25.9222 0.259998 26.2422 0.323999 26.5942 0.355999C26.8502 0.387999 27.0742 0.452 27.2982 0.579998C27.6502 0.771999 28.0022 0.963999 28.3222 1.22C28.5462 1.38 28.7702 1.572 28.8982 1.796C29.1222 2.116 29.3142 2.404 29.5062 2.724C29.6982 3.044 29.7942 3.364 29.8262 3.716C29.8582 3.908 29.9222 4.1 29.9542 4.292C29.9542 4.356 29.9862 4.42 29.9862 4.516C30.0822 5.252 30.1782 6.02 30.1462 6.788C30.1462 7.076 30.1462 7.396 30.1142 7.716C30.0182 8.356 29.8582 8.996 29.4422 9.54C29.4422 9.572 29.4102 9.572 29.4102 9.604C28.8662 10.212 28.2902 10.756 27.4902 11.044C27.3302 11.108 27.2022 11.172 27.0742 11.236C27.0102 11.236 26.9782 11.268 26.9142 11.3C26.9462 11.396 27.0102 11.492 27.0422 11.556C27.9702 13.38 28.8982 15.172 29.7942 16.996C30.3382 18.052 30.8502 19.172 31.2342 20.292C31.3622 20.708 31.5542 21.124 31.7462 21.508C31.8102 21.668 31.8742 21.828 31.9382 21.988C32.0022 22.148 32.0982 22.308 32.1622 22.436C32.0982 22.532 32.0342 22.564 31.9382 22.564C31.7462 22.564 31.5222 22.532 31.3302 22.532C30.8822 22.532 30.4342 22.532 29.9862 22.5C29.6342 22.5 29.2822 22.5 28.9302 22.5C28.7382 22.5 28.5142 22.5 28.3222 22.532C28.1302 22.532 28.0022 22.436 27.9702 22.276C27.8422 21.892 27.6822 21.508 27.5542 21.156C27.2022 20.164 26.7862 19.236 26.3062 18.308C25.6342 16.964 24.9622 15.652 24.2902 14.308C23.9062 13.572 23.5222 12.836 23.1382 12.068C23.0422 11.908 22.9462 11.876 22.7862 11.876C22.5302 11.876 22.3062 11.876 22.0822 11.844C21.5702 11.78 21.0582 11.844 20.5462 11.876C20.5142 11.876 20.4822 11.876 20.4182 11.908C20.3542 12.036 20.2262 12.196 20.1302 12.356C19.9382 12.676 19.7142 13.028 19.4902 13.38C19.2342 13.764 19.1062 14.212 19.1382 14.66C19.1382 14.788 19.1702 14.916 19.2022 15.012C19.4582 15.62 19.8102 16.164 20.1302 16.708C20.2582 16.868 20.3542 17.06 20.4502 17.22C20.6422 17.604 20.7382 17.988 20.7702 18.404C20.8662 18.98 20.8662 19.524 20.8662 20.1C20.8662 20.292 20.8982 20.484 20.8982 20.676C20.9302 21.156 20.9302 21.636 20.8982 22.084C20.8982 22.212 20.8662 22.34 20.8342 22.5C20.4502 22.596 20.0342 22.468 19.6502 22.5C19.2662 22.532 18.8502 22.5 18.4342 22.468C18.0502 22.468 17.6662 22.468 17.2502 22.468C17.1862 22.276 17.1542 22.052 17.1862 21.86C17.2822 20.996 17.2182 20.164 17.2182 19.3C17.2182 18.884 17.1542 18.436 17.0902 18.02C17.0582 17.604 16.8982 17.252 16.6422 16.932C16.3862 16.612 16.1942 16.26 15.9702 15.908C15.9062 15.78 15.8102 15.62 15.7462 15.46C15.3942 14.916 15.4262 14.372 15.6182 13.796C15.7142 13.508 15.8742 13.252 16.0342 12.964C16.2582 12.612 16.4502 12.26 16.6742 11.908C16.7702 11.716 16.8022 11.556 16.8342 11.364C16.9302 10.788 16.9302 10.212 16.9302 9.604C16.9302 8.964 16.9302 8.292 16.8982 7.652C16.8982 7.332 16.8662 7.012 16.8662 6.692C16.8342 5.476 16.8982 4.26 16.9622 3.076C16.9622 2.564 16.9942 2.02 16.9942 1.508C16.9622 1.156 17.0262 0.771999 16.9622 0.419998C16.9622 0.387999 16.9942 0.323999 16.9942 0.292ZM20.6102 8.228C20.8022 8.228 20.9622 8.26 21.1222 8.228C21.3782 8.196 21.6342 8.228 21.8902 8.228C21.9542 8.228 22.0502 8.26 22.1462 8.228C22.7542 8.228 23.3302 8.26 23.9382 8.196C24.5142 8.132 25.0582 8.068 25.6022 7.908C25.8582 7.844 26.0502 7.684 26.1782 7.428C26.2102 7.332 26.2422 7.236 26.2742 7.14C26.3382 6.916 26.3702 6.66 26.4342 6.404C26.4982 6.148 26.4982 5.86 26.4662 5.572C26.4342 5.54 26.4342 5.476 26.4342 5.412C26.4662 5.092 26.3702 4.804 26.2742 4.484C26.1142 4.004 25.6662 3.684 25.1542 3.684C24.9942 3.684 24.8662 3.684 24.7382 3.652C24.3222 3.652 23.9062 3.652 23.4582 3.62C23.2662 3.62 23.0742 3.652 22.8822 3.652C22.3062 3.652 21.7302 3.748 21.1542 3.716C21.0582 3.716 20.9622 3.716 20.8662 3.748C20.7702 3.748 20.7062 3.78 20.6102 3.812C20.5462 5.284 20.5462 6.724 20.6102 8.228ZM47.5387 5.828C47.5387 6.276 47.5067 6.724 47.5067 7.14C47.5067 7.588 47.6027 7.972 47.8587 8.324C48.1147 8.676 48.3707 9.028 48.6267 9.38C48.7867 9.604 48.9147 9.828 49.0427 10.052C49.4267 10.724 49.3947 11.396 49.0107 12.068C48.7867 12.452 48.5307 12.804 48.3067 13.188C48.0827 13.54 47.8907 13.892 47.8267 14.308C47.7947 14.692 47.7627 15.108 47.7627 15.524C47.7627 16.292 47.7947 17.06 47.8267 17.86C47.8267 18.148 47.7947 18.436 47.6667 18.724C47.6027 18.916 47.5707 19.108 47.4747 19.3C47.3467 19.748 47.0587 20.1 46.7387 20.452C46.2587 20.932 45.6507 21.284 45.0107 21.54C44.6587 21.668 44.3387 21.828 43.9867 21.924C43.6027 21.988 43.2507 22.116 42.8987 22.18C42.6107 22.244 42.3227 22.276 42.0347 22.308C41.8427 22.34 41.6187 22.34 41.4267 22.372C41.1707 22.436 40.9147 22.404 40.6587 22.436C40.4667 22.436 40.2427 22.436 40.0187 22.468C39.3467 22.5 38.6747 22.5 38.0027 22.34C37.6507 22.276 37.2667 22.212 36.9147 22.116C36.4987 21.988 36.1467 21.764 35.8267 21.508C35.2187 21.028 34.7067 20.484 34.2907 19.844C34.0667 19.492 33.8747 19.076 33.7467 18.66C33.6507 18.372 33.5547 18.052 33.5227 17.764C33.4907 17.636 33.4907 17.508 33.4907 17.38C33.4587 17.028 33.3947 16.708 33.4267 16.356C33.4587 16.036 33.4587 15.748 33.4907 15.428C33.5227 15.236 33.5867 15.076 33.7147 14.916C33.7467 14.884 33.7787 14.82 33.7787 14.788C33.9387 14.404 34.2267 14.116 34.5147 13.796C34.7067 13.604 34.8987 13.412 35.0587 13.188C35.5067 12.612 35.6347 12.004 35.4747 11.3C35.3467 10.884 35.1547 10.532 34.8987 10.18C34.7067 9.892 34.4187 9.636 34.1947 9.348C34.1627 9.316 34.0987 9.252 34.0667 9.22C33.7147 8.836 33.6187 8.356 33.5867 7.876C33.5867 7.524 33.6187 7.204 33.6187 6.852C33.6187 6.564 33.6187 6.276 33.6187 5.988C33.6187 5.476 33.6827 4.964 33.8747 4.452C34.0347 3.972 34.3227 3.556 34.5787 3.108C34.6427 3.012 34.7387 2.916 34.8027 2.82C35.4107 2.212 36.0507 1.636 36.8507 1.188C37.6187 0.74 38.4827 0.483999 39.3787 0.323999C40.0507 0.227999 40.7227 0.227999 41.3947 0.259998C41.8747 0.259998 42.3867 0.323999 42.8347 0.452C42.9947 0.483999 43.1867 0.483999 43.3467 0.547998C43.6027 0.612 43.8587 0.675999 44.1467 0.771999C44.3387 0.835999 44.5307 0.9 44.7227 0.995998C44.7547 0.995998 44.7867 0.995998 44.8187 0.995998C45.2027 1.22 45.5867 1.412 45.9067 1.7C46.2587 2.052 46.6107 2.436 46.9307 2.82C47.2187 3.236 47.4107 3.684 47.5387 4.164C47.5707 4.356 47.5707 4.548 47.5707 4.74C47.5707 5.092 47.5707 5.444 47.5707 5.828H47.5387ZM40.8507 3.652C40.7227 3.652 40.5947 3.652 40.4667 3.652C39.7947 3.684 39.1867 3.844 38.6747 4.196C38.5147 4.324 38.3867 4.42 38.2267 4.548C37.7467 4.932 37.5547 5.444 37.4907 6.02C37.4587 6.436 37.4587 6.852 37.4587 7.268C37.4587 7.524 37.4587 7.78 37.4587 8.036C37.4587 8.228 37.5227 8.388 37.6507 8.548C37.9387 9.028 38.2267 9.476 38.5787 9.892C38.7067 10.02 38.8027 10.18 38.8987 10.34C39.1227 10.692 39.2187 11.044 39.2827 11.428C39.4107 12.164 39.2507 12.836 38.7067 13.412C38.6107 13.508 38.5147 13.636 38.4187 13.732C38.1627 14.052 37.9387 14.34 37.7787 14.692C37.6827 14.852 37.6507 15.012 37.5867 15.172C37.4907 15.332 37.4907 15.524 37.4907 15.684C37.5227 16.324 37.6507 16.964 37.8107 17.572C37.9067 17.86 38.0667 18.116 38.3547 18.34C38.5787 18.5 38.8347 18.66 39.1227 18.788C39.6347 18.98 40.1467 19.076 40.6907 18.948C40.8187 18.948 40.9467 18.948 41.0747 18.916C41.3947 18.852 41.6827 18.852 41.9707 18.756C42.3547 18.628 42.7067 18.468 43.0587 18.308C43.1227 18.276 43.1867 18.244 43.2187 18.212C43.4427 17.988 43.6667 17.732 43.7627 17.444C43.8267 17.156 43.8907 16.868 43.9227 16.58C43.9547 15.876 43.9227 15.14 43.9867 14.436C43.9867 14.404 43.9867 14.372 43.9867 14.34C44.0187 13.732 44.2107 13.188 44.5947 12.676C44.7547 12.42 44.9147 12.196 45.0747 11.972C45.2667 11.716 45.3947 11.428 45.4587 11.14C45.5227 10.852 45.4907 10.564 45.3307 10.276C45.2347 10.084 45.1067 9.892 44.9787 9.7C44.6587 9.284 44.3707 8.868 44.0507 8.452C43.9227 8.292 43.8587 8.132 43.7947 7.972C43.7307 7.716 43.6987 7.428 43.7307 7.172C43.7307 6.596 43.7627 6.052 43.7947 5.476C43.8267 5.092 43.6667 4.804 43.3787 4.516C43.0907 4.196 42.6747 3.972 42.2267 3.844C41.7787 3.716 41.3307 3.62 40.8507 3.652ZM59.5017 8.036C59.5977 7.812 59.6617 7.62 59.7257 7.46C59.9817 6.788 60.2377 6.116 60.4937 5.444C60.9417 4.228 61.4537 3.012 62.0617 1.892C62.2537 1.508 62.4457 1.092 62.6057 0.707998C62.7017 0.515999 62.7977 0.355999 62.8937 0.164C63.1497 0.0999985 63.4057 0.0999985 63.6617 0.164C63.8537 0.227999 64.0457 0.227999 64.2377 0.227999C64.5577 0.195999 64.9097 0.227999 65.2297 0.227999C65.4217 0.259998 65.5817 0.259998 65.7737 0.259998C65.9017 0.227999 65.9977 0.259998 66.0937 0.259998C66.1897 0.259998 66.2857 0.227999 66.3177 0.292C66.3497 0.355999 66.3817 0.452 66.3817 0.515999C66.4137 0.771999 66.4137 1.028 66.4457 1.284C66.5097 2.084 66.5417 2.852 66.6057 3.652C66.6377 4.26 66.7337 4.868 66.7977 5.476C66.8297 5.86 66.8617 6.276 66.9257 6.66C66.9577 7.14 67.0217 7.588 67.0537 8.068C67.0537 8.132 67.0857 8.196 67.1177 8.292C67.2777 8.9 67.5337 9.476 67.8217 10.052C67.8857 10.18 67.9817 10.308 68.1097 10.404C68.5257 10.82 68.8457 11.268 69.0697 11.812C69.3897 12.516 69.5177 13.284 69.2937 14.052C69.1977 14.308 69.0697 14.564 68.9097 14.788C68.5897 15.332 68.1417 15.78 67.6617 16.196C67.5017 16.324 67.4057 16.452 67.3097 16.612C66.9897 17.156 66.8297 17.764 66.7977 18.404C66.7337 19.204 66.6697 20.036 66.7337 20.868C66.7337 21.22 66.7657 21.988 66.7977 22.34C66.7657 22.436 66.7017 22.436 66.6057 22.468C66.5417 22.468 66.4777 22.468 66.4137 22.468C66.2217 22.468 65.9977 22.436 65.8057 22.532C65.7417 22.532 65.6777 22.532 65.6457 22.532C65.4537 22.5 65.2617 22.532 65.0697 22.532C64.7497 22.532 64.4297 22.5 64.1097 22.5C63.9497 22.5 63.7897 22.5 63.5977 22.5C63.5657 22.532 63.5337 22.532 63.4697 22.532C63.1817 22.532 63.0537 22.436 63.0537 22.116C63.0217 21.444 62.9897 20.324 62.9897 19.62C62.9577 18.98 63.0537 18.372 63.1497 17.732C63.2137 17.188 63.4057 16.676 63.7257 16.196C63.8217 16.1 63.8857 16.004 63.9817 15.94C64.0777 15.812 64.1737 15.716 64.2697 15.62C64.9097 14.98 64.9097 14.98 65.3577 14.212C65.5497 13.924 65.6457 13.572 65.6457 13.22C65.6777 12.964 65.6777 12.708 65.6137 12.484C65.5817 12.26 65.4857 12.036 65.3897 11.844C65.2617 11.652 65.1657 11.492 65.0377 11.3C64.9097 11.076 64.7497 10.916 64.5577 10.756C64.3337 10.596 64.1737 10.372 64.0457 10.116C63.8537 9.732 63.6617 9.348 63.5337 8.964C63.5017 8.804 63.4377 8.676 63.3417 8.484C63.3097 8.58 63.2457 8.644 63.2457 8.708C62.9897 9.316 62.7657 9.892 62.5417 10.468C62.5097 10.596 62.4777 10.724 62.4137 10.82C62.1257 11.492 61.8697 12.196 61.5817 12.9C61.5497 13.028 61.4537 13.092 61.3257 13.092C61.2937 13.092 61.2937 13.092 61.2617 13.092C60.8457 13.06 60.3977 13.028 59.9817 12.996C59.8217 12.996 59.6617 12.996 59.5017 12.996C59.0217 13.028 58.5737 13.06 58.0937 13.028C57.9337 12.996 57.7737 12.996 57.6137 12.964C57.5497 12.9 57.4857 12.804 57.4537 12.74C57.2937 12.292 57.0697 11.908 56.8457 11.492C56.5257 10.884 56.2057 10.276 55.8857 9.668C55.7897 9.476 55.7257 9.252 55.6297 9.06C55.5977 8.996 55.5657 8.932 55.5017 8.836C55.4377 8.932 55.4377 8.964 55.4057 9.028C55.2457 9.348 55.0857 9.668 54.9577 9.988C54.8297 10.244 54.6697 10.5 54.5737 10.756C54.3497 11.236 54.2537 11.748 54.2537 12.292C54.2537 12.996 54.4777 13.668 54.8297 14.276C55.0537 14.628 55.2777 15.012 55.5337 15.332C55.8537 15.716 56.0457 16.164 56.0777 16.644C56.1097 16.996 56.1417 17.316 56.1417 17.668C56.1417 18.564 56.1097 19.46 56.0777 20.356C56.0457 20.772 56.0137 21.188 55.9817 21.604C55.9817 21.764 55.9817 21.924 55.9817 22.116C55.9497 22.18 55.9817 22.244 55.9497 22.308C55.9497 22.372 55.8857 22.436 55.7897 22.436C55.7577 22.468 55.7257 22.468 55.6617 22.468C55.2777 22.436 54.8617 22.436 54.4457 22.436C53.9657 22.436 53.4857 22.372 52.9737 22.308C52.8137 22.308 52.6217 22.308 52.4297 22.308C52.2377 22.276 52.1737 22.212 52.2057 21.988C52.3017 21.348 52.3337 20.708 52.3657 20.036C52.3657 19.172 52.3977 18.34 52.4297 17.476C52.4297 17.156 52.3977 16.836 52.3657 16.516C52.3017 16.324 52.2697 16.132 52.1417 16.004C52.0777 15.908 52.0137 15.78 51.9177 15.684C51.7257 15.428 51.4697 15.14 51.2777 14.852C51.0857 14.5 50.8937 14.148 50.7657 13.764C50.3817 12.804 50.4137 11.812 50.8297 10.852C51.0217 10.436 51.2137 10.02 51.4057 9.604C51.6937 9.06 51.8537 8.516 51.9177 7.908C51.9497 7.812 51.9497 7.716 51.9497 7.62C51.9497 7.556 51.9497 7.524 51.9497 7.46C51.9817 6.948 51.9497 6.404 51.9177 5.892C51.8857 5.188 51.9177 4.516 51.9177 3.812C51.8857 3.204 51.8857 2.564 51.8857 1.924C51.8857 1.572 51.8857 1.22 51.8537 0.867998C51.8537 0.803999 51.8537 0.74 51.8537 0.707998C51.8537 0.387999 51.9817 0.259998 52.3337 0.292C52.5577 0.323999 52.7817 0.355999 53.0057 0.323999C53.4537 0.292 53.9337 0.292 54.3817 0.292C54.7017 0.292 55.0217 0.292 55.3417 0.292C55.4057 0.292 55.4697 0.292 55.5657 0.292C55.6617 0.323999 55.7257 0.355999 55.7577 0.452C55.8857 0.74 56.0457 1.028 56.0777 1.348C56.1097 1.444 56.1417 1.508 56.1737 1.572C56.4297 2.148 56.6857 2.724 56.9737 3.332C57.4857 4.42 58.0617 5.476 58.6697 6.532C58.8937 6.948 59.1177 7.396 59.3417 7.812C59.3737 7.876 59.4057 7.908 59.5017 8.036ZM74.4997 22.532C73.3477 22.532 71.1717 22.5 71.1077 22.5C71.1077 22.5 71.0117 22.468 70.9797 22.372C70.9477 22.276 70.9477 22.148 70.9157 22.052C70.9157 21.636 70.8837 21.22 70.8837 20.804C70.8517 19.972 70.8517 19.14 70.8837 18.308C70.8837 18.052 70.9157 17.796 70.9477 17.54C71.0117 17.156 71.2037 16.836 71.3957 16.548C71.5877 16.228 71.7797 15.972 72.0037 15.684C72.4197 15.044 72.8677 14.436 73.1557 13.732C73.3477 13.284 73.3797 12.804 73.1877 12.324C73.0917 12.068 72.9637 11.844 72.8357 11.62C72.6117 11.268 72.3557 10.948 72.1317 10.596C71.9397 10.308 71.7797 10.02 71.5877 9.732C71.4277 9.444 71.3637 9.124 71.2997 8.804C71.2357 8.356 71.2037 8.132 71.2037 7.684C71.2357 7.3 71.1717 6.884 71.2037 6.5C71.2357 5.604 71.2037 4.708 71.2357 3.78C71.2357 3.076 71.2677 2.404 71.2997 1.7C71.3317 1.508 71.2997 1.316 71.2997 1.124C71.3317 0.867998 71.3317 0.612 71.3637 0.355999C71.3957 0.164 71.4597 0.0999985 71.6197 0.0999985C72.3557 0.0999985 73.1237 0.0999985 73.8597 0.131998C74.1157 0.131998 74.3717 0.131998 74.6277 0.131998C74.6597 0.131998 74.7237 0.131998 74.7877 0.131998C74.9477 0.131998 74.9797 0.195999 75.0117 0.355999C75.0437 0.452 75.0437 0.547998 75.0437 0.643999C75.0437 1.764 75.0117 2.852 74.9477 3.972C74.8837 4.932 74.9477 5.892 74.9157 6.852C74.9157 7.204 74.9477 7.62 74.9477 7.972C74.9157 8.388 75.0117 8.516 75.1077 8.932C75.1397 9.06 75.1717 9.156 75.2357 9.284C75.4277 9.54 75.5877 9.828 75.7477 10.116C75.9717 10.5 76.2277 10.852 76.4837 11.236C76.7717 11.716 77.0277 12.26 77.0597 12.836C77.1237 13.444 77.0277 14.02 76.7397 14.532C76.6117 14.756 76.4197 14.948 76.2597 15.14C75.9077 15.588 75.5237 16.036 75.2037 16.548C75.0437 16.772 74.9157 17.028 74.7877 17.284C74.6917 17.508 74.6597 17.732 74.6597 17.988C74.5957 19.14 74.6277 20.292 74.6277 21.476C74.6277 21.796 74.6277 22.148 74.4997 22.532ZM78.5969 14.404C78.6929 14.404 78.7569 14.372 78.8529 14.372C78.9169 14.372 79.0129 14.372 79.1089 14.372C80.0369 14.404 80.9649 14.404 81.8929 14.436C81.9569 14.436 82.0209 14.436 82.0849 14.468C82.0849 14.532 82.1169 14.564 82.1169 14.628C82.1169 14.852 82.1169 15.076 82.1169 15.3C82.1169 15.78 82.1169 16.26 82.1169 16.74C82.1169 16.964 82.1489 17.22 82.1809 17.444C82.2449 17.764 82.3729 18.052 82.5329 18.34C82.6609 18.564 82.8849 18.692 83.1089 18.788C83.6209 19.044 84.1649 19.14 84.7089 19.204C85.1249 19.236 85.5409 19.172 85.9569 19.108C87.0129 18.916 86.7889 18.948 87.6849 18.628C87.9729 18.532 88.1649 18.34 88.2929 18.116C88.3569 18.02 88.3569 17.924 88.3569 17.86C88.3569 17.668 88.3889 17.508 88.3569 17.348C88.3249 17.06 88.2609 16.772 88.1649 16.484C88.1329 16.388 88.0689 16.26 88.0049 16.164C87.8129 15.972 87.6529 15.78 87.4289 15.588C86.2769 14.532 84.9969 13.636 83.6529 12.804C82.9809 12.388 82.3089 11.908 81.7329 11.396C81.6049 11.332 81.5089 11.236 81.3809 11.172C80.9329 10.884 80.4529 10.596 80.0689 10.212C79.7809 9.892 79.5569 9.572 79.4289 9.188C79.3649 8.964 79.3009 8.74 79.2049 8.516C79.2049 8.484 79.1729 8.42 79.1729 8.388C79.1089 8.068 79.0449 7.78 78.9489 7.492C78.8849 7.14 78.8849 6.82 78.8529 6.5C78.8209 5.956 78.8529 5.444 78.9169 4.9C78.9809 4.42 79.0769 3.94 79.3009 3.46C79.4289 3.172 79.5889 2.852 79.7489 2.564C79.8129 2.436 79.9089 2.308 80.0049 2.18C80.2609 1.924 80.5169 1.7 80.7729 1.444C81.4449 0.835999 82.2769 0.419998 83.2049 0.259998C84.0049 0.131998 84.8049 0.0999985 85.6049 0.131998C85.8929 0.164 86.1809 0.195999 86.4369 0.292C87.0449 0.515999 87.6209 0.707998 88.2289 0.931999C88.5809 1.028 88.8369 1.22 89.1249 1.412C89.3809 1.636 89.6369 1.892 89.8929 2.148C89.8929 2.148 89.9249 2.148 89.9249 2.18C90.1489 2.628 90.5009 2.948 90.7569 3.396C91.0769 3.94 91.2369 4.516 91.3009 5.124C91.3329 5.636 91.3329 6.148 91.3329 6.692C91.3329 7.012 91.3329 7.332 91.3329 7.652V7.844C91.2689 7.876 91.2049 7.908 91.1409 7.908C90.3089 7.94 89.4769 7.94 88.6769 7.876C88.4209 7.876 88.1649 7.876 87.9409 7.844C87.8769 7.844 87.8129 7.844 87.7489 7.844C87.6529 7.62 87.6529 7.396 87.6529 7.172C87.6529 6.564 87.6209 5.988 87.4929 5.38C87.3969 5.028 87.2049 4.708 86.9489 4.42C86.5009 3.94 85.9569 3.78 85.3489 3.684C84.7089 3.588 84.7089 3.588 84.1009 3.652C83.7169 3.716 83.3969 3.876 83.1089 4.1C82.9809 4.228 82.8849 4.388 82.8209 4.58C82.4049 5.444 82.4049 6.34 82.7249 7.236C82.8209 7.556 83.0449 7.812 83.3009 8.036C83.4609 8.132 83.6209 8.26 83.7809 8.388C83.9409 8.516 84.1329 8.612 84.2929 8.708C84.3569 8.74 84.4209 8.772 84.4849 8.804C84.8689 9.156 85.3489 9.412 85.7649 9.7C85.9249 9.796 86.0849 9.924 86.2449 10.02C86.6289 10.276 87.0449 10.532 87.4289 10.788C87.9729 11.14 88.4849 11.524 88.9649 11.94C89.2529 12.164 89.5409 12.388 89.8609 12.612C89.8929 12.644 89.9249 12.676 89.9569 12.708C90.3409 13.156 90.8209 13.508 91.1729 13.988C91.4289 14.308 91.6529 14.628 91.7809 14.98C91.8769 15.364 92.0049 15.716 92.0689 16.068C92.1649 16.58 92.2289 17.06 92.2609 17.572C92.2609 18.084 92.1329 18.532 91.9409 18.948C91.8129 19.332 91.5889 19.652 91.3649 19.972C91.1729 20.196 91.0449 20.42 90.8209 20.58C90.4689 20.9 90.1489 21.22 89.7649 21.444C89.2529 21.764 88.7089 21.988 88.1329 22.148C88.0049 22.212 87.8769 22.244 87.7169 22.308C87.2369 22.5 86.7249 22.628 86.1809 22.628C85.6689 22.66 85.1249 22.628 84.6129 22.596C84.0369 22.564 83.4929 22.5 82.9489 22.404C82.7569 22.372 82.5649 22.308 82.3729 22.244C81.6689 22.02 81.0289 21.668 80.4209 21.252C79.9729 20.9 79.5569 20.516 79.3009 20.004C79.1409 19.684 78.9809 19.332 78.8529 19.012C78.6609 18.564 78.5969 18.084 78.5649 17.604C78.5329 17.188 78.5329 16.74 78.5329 16.324C78.5009 16.132 78.5329 15.972 78.5329 15.78C78.5329 15.396 78.5649 14.98 78.5649 14.596C78.5969 14.564 78.5969 14.5 78.5969 14.404ZM86.1169 12.484C86.0849 12.484 86.0849 12.484 86.0849 12.484V12.452C86.0849 12.452 86.0849 12.484 86.1169 12.484ZM94.3184 0.292C94.4144 0.259998 94.4784 0.259998 94.5744 0.259998C95.0224 0.259998 95.4384 0.259998 95.8864 0.259998C95.9504 0.259998 96.0464 0.259998 96.1104 0.259998C97.1984 0.227999 98.3184 0.227999 99.4064 0.195999C99.9184 0.195999 100.43 0.131998 100.974 0.0999985C101.326 0.0679989 101.678 0.0679989 102.062 0.0359993C102.862 0.0359993 103.662 0.0359993 104.462 0.0359993C105.038 0.0359993 105.582 0.0679989 106.158 0.0999985C106.414 0.0999985 106.702 0.0999985 106.958 0.0999985C106.99 0.0999985 107.022 0.0679989 107.054 0.0679989C107.406 0.0679989 107.438 0.0999985 107.406 0.452C107.342 1.22 107.374 1.988 107.342 2.788C107.342 3.012 107.374 3.236 107.374 3.492C107.374 3.62 107.374 3.748 107.374 3.876C107.182 3.972 106.99 3.972 106.83 3.972C106.286 4.004 105.774 4.004 105.23 4.004C105.07 4.004 104.91 3.972 104.718 3.94C104.174 3.908 103.662 3.94 103.118 3.94C102.606 3.972 102.062 4.004 101.55 3.972C100.878 3.908 100.238 4.004 99.5984 4.068C99.4704 4.068 99.3744 4.068 99.2784 4.1C98.8304 4.1 98.4144 4.132 97.9344 4.164C97.8704 4.324 97.9024 4.452 97.9664 4.58C98.0944 4.772 98.1904 4.964 98.3184 5.156C98.6064 5.54 98.9264 5.892 99.2464 6.212C99.5024 6.532 99.7584 6.852 99.8864 7.268C99.9504 7.364 99.9504 7.492 99.9824 7.588C100.014 8.036 99.9184 8.484 99.7264 8.868C99.6944 8.932 99.6624 8.996 99.6304 9.028C99.3424 9.348 99.0864 9.7 98.7664 9.956C98.7344 9.988 98.7344 9.988 98.7344 10.02C98.8304 10.084 98.9584 10.052 99.0864 10.052C99.6944 10.02 100.302 9.988 100.91 9.956C101.23 9.956 101.518 9.956 101.838 9.956C102.254 9.956 102.67 9.988 103.086 9.956C103.726 9.956 104.366 9.924 105.006 9.892C105.166 9.892 105.294 9.892 105.454 9.892C105.806 9.892 106.158 9.892 106.51 9.892C106.606 9.892 106.702 9.892 106.83 9.892C106.894 10.02 106.862 10.148 106.862 10.276C106.862 10.436 106.862 10.596 106.862 10.756C106.862 10.788 106.894 10.82 106.894 10.852C106.83 11.3 106.862 11.748 106.894 12.164C106.894 12.58 106.894 12.964 106.894 13.38C106.894 13.476 106.894 13.604 106.83 13.732C106.67 13.764 106.51 13.764 106.35 13.732C106.158 13.7 105.966 13.732 105.806 13.732C105.23 13.7 104.622 13.7 104.046 13.668C103.566 13.668 103.086 13.668 102.574 13.668C102.254 13.636 101.934 13.668 101.614 13.636C100.942 13.572 100.27 13.636 99.5984 13.668C99.1504 13.7 98.6704 13.732 98.2224 13.796C98.1904 13.796 98.1584 13.796 98.1264 13.828C98.1264 13.86 98.0944 13.924 98.0944 13.956C98.1584 14.564 98.0944 15.14 98.0624 15.716C98.0624 16.356 98.0304 16.996 97.9984 17.636C97.9984 18.02 98.0304 18.404 98.0624 18.756C98.1584 18.852 98.2544 18.82 98.3504 18.82C98.8304 18.884 99.2784 18.82 99.7584 18.82C100.59 18.82 101.422 18.82 102.254 18.82C102.67 18.82 103.118 18.82 103.534 18.82C103.726 18.82 103.95 18.788 104.142 18.788C104.974 18.82 105.806 18.852 106.638 18.852C106.83 18.852 107.022 18.852 107.246 18.852C107.278 18.916 107.31 18.98 107.31 19.044C107.31 19.3 107.342 19.556 107.31 19.812C107.246 20.26 107.278 20.708 107.246 21.124C107.214 21.572 107.214 21.988 107.182 22.436C107.182 22.436 107.182 22.468 107.15 22.5C107.118 22.532 107.086 22.564 107.054 22.564C106.798 22.564 106.51 22.596 106.254 22.564C104.942 22.532 103.63 22.5 102.318 22.5C101.87 22.5 101.422 22.468 100.974 22.468C100.046 22.436 99.1184 22.5 98.2224 22.532C97.9664 22.564 97.7424 22.564 97.5184 22.564C96.7184 22.564 95.8864 22.564 95.0544 22.532C94.8304 22.532 94.6384 22.532 94.4144 22.532C94.2544 22.532 94.1904 22.436 94.1584 22.308C94.1584 22.212 94.1584 22.148 94.1584 22.052C94.1264 21.7 94.1264 21.348 94.1264 21.028C94.1904 19.844 94.1584 18.66 94.1584 17.476C94.1584 17.092 94.1264 16.708 94.1264 16.292C94.1584 15.844 94.1264 15.428 94.1264 14.98C94.0944 14.564 94.1264 14.116 94.1584 13.7C94.1584 13.508 94.1584 13.348 94.1584 13.188C94.1264 12.452 94.1904 11.748 94.2864 11.012C94.3184 10.724 94.3824 10.468 94.5104 10.212C94.7024 9.892 94.8944 9.572 95.1504 9.284C95.4064 8.996 95.5984 8.708 95.7904 8.388C95.9504 8.132 96.0464 7.844 95.9824 7.556C95.9504 7.524 95.9504 7.492 95.9504 7.46C95.9824 7.044 95.7904 6.724 95.4704 6.436C95.1504 6.18 94.8624 5.828 94.6064 5.508C94.2864 5.092 94.1264 4.612 94.1584 4.1C94.1584 3.46 94.1584 2.82 94.1904 2.18C94.1904 1.7 94.1904 1.22 94.2224 0.74C94.2224 0.579998 94.2224 0.419998 94.3184 0.292ZM127.744 12.484C127.712 12.484 127.712 12.484 127.712 12.484V12.452C127.712 12.452 127.712 12.484 127.744 12.484ZM124.864 3.972C124.672 3.94 124.512 3.94 124.32 3.94C123.84 3.94 123.36 3.908 122.912 3.908C122.784 3.908 122.656 3.908 122.496 3.908C121.92 3.908 121.344 3.94 120.768 3.876C120.32 3.812 119.872 3.812 119.392 3.812C119.264 3.812 119.136 3.844 119.008 3.812C118.944 3.492 118.976 3.172 118.976 2.884C118.976 2.564 118.976 2.276 118.976 1.956C118.976 1.668 118.976 1.348 118.976 1.028C118.944 0.74 118.976 0.452 118.976 0.131998C119.136 0.0679989 119.264 0.0679989 119.424 0.0679989C119.936 0.0999985 120.48 0.131998 120.992 0.164C121.376 0.195999 121.728 0.227999 122.112 0.227999C122.144 0.227999 122.176 0.227999 122.24 0.227999C123.52 0.195999 124.8 0.227999 126.08 0.259998C126.304 0.292 126.496 0.259998 126.72 0.259998C127.136 0.259998 127.552 0.259998 127.936 0.292C128.576 0.323999 129.216 0.292 129.888 0.259998C130.112 0.227999 130.368 0.227999 130.592 0.227999C131.712 0.227999 132.832 0.227999 133.952 0.227999C134.144 0.227999 134.368 0.227999 134.592 0.227999C134.688 0.227999 134.784 0.227999 134.88 0.227999C134.976 0.387999 134.944 0.515999 134.944 0.675999C134.976 1.572 134.976 2.5 134.976 3.396V3.844C134.848 3.908 134.752 3.908 134.624 3.908C134.176 3.908 133.696 3.908 133.248 3.908C132.992 3.94 132.704 3.908 132.416 3.908C132.192 3.908 131.936 3.908 131.712 3.908C131.456 3.908 131.2 3.876 130.944 3.876C130.368 3.876 129.792 3.876 129.184 3.94C129.024 3.972 128.864 4.004 128.704 4.004C128.64 4.164 128.64 4.292 128.64 4.42C128.64 4.932 128.608 5.444 128.608 5.988C128.608 6.308 128.576 6.66 128.576 7.012C128.544 7.492 128.416 7.94 128.16 8.356C127.968 8.74 127.712 9.092 127.488 9.444C127.104 10.02 126.912 10.628 126.912 11.3C126.912 11.716 127.04 12.1 127.2 12.484C127.296 12.74 127.456 12.964 127.616 13.22C127.872 13.668 128.128 14.116 128.256 14.596C128.416 15.044 128.48 15.492 128.544 15.972C128.768 17.764 128.8 19.556 128.736 21.38C128.736 21.7 128.704 22.052 128.672 22.372C128.544 22.468 128.416 22.436 128.288 22.436C127.872 22.436 127.424 22.436 127.008 22.404C126.464 22.404 125.92 22.404 125.408 22.404C125.28 22.404 125.152 22.404 124.992 22.404C124.96 22.34 124.928 22.276 124.928 22.212C124.928 22.084 124.928 21.924 124.96 21.764C125.024 20.74 125.024 19.684 124.992 18.66C124.96 17.7 124.896 16.74 124.768 15.812C124.672 15.108 124.448 14.468 124.064 13.892C123.904 13.604 123.744 13.316 123.584 13.06C123.232 12.388 123.104 11.716 123.2 10.98C123.296 10.34 123.52 9.796 123.84 9.252C124.064 8.868 124.288 8.484 124.512 8.068C124.704 7.684 124.832 7.268 124.832 6.82C124.864 5.956 124.864 5.092 124.896 4.196C124.896 4.132 124.864 4.068 124.864 3.972ZM137.663 0.292C137.727 0.259998 137.727 0.259998 137.759 0.259998C138.399 0.292 139.007 0.195999 139.647 0.164C140.095 0.164 140.575 0.164 141.023 0.164C141.279 0.164 141.567 0.164 141.823 0.164C142.367 0.0999985 142.911 0.131998 143.455 0.131998C143.871 0.131998 144.255 0.131998 144.671 0.131998C144.991 0.131998 145.311 0.131998 145.631 0.131998C145.823 0.164 146.015 0.195999 146.239 0.227999C146.591 0.259998 146.911 0.323999 147.263 0.355999C147.519 0.387999 147.743 0.452 147.967 0.579998C148.319 0.771999 148.671 0.963999 148.991 1.22C149.215 1.38 149.439 1.572 149.567 1.796C149.791 2.116 149.983 2.404 150.175 2.724C150.367 3.044 150.463 3.364 150.495 3.716C150.527 3.908 150.591 4.1 150.623 4.292C150.623 4.356 150.655 4.42 150.655 4.516C150.751 5.252 150.847 6.02 150.815 6.788C150.815 7.076 150.815 7.396 150.783 7.716C150.687 8.356 150.527 8.996 150.111 9.54C150.111 9.572 150.079 9.572 150.079 9.604C149.535 10.212 148.959 10.756 148.159 11.044C147.999 11.108 147.871 11.172 147.743 11.236C147.679 11.236 147.647 11.268 147.583 11.3C147.615 11.396 147.679 11.492 147.711 11.556C148.639 13.38 149.567 15.172 150.463 16.996C151.007 18.052 151.519 19.172 151.903 20.292C152.031 20.708 152.223 21.124 152.415 21.508C152.479 21.668 152.543 21.828 152.607 21.988C152.671 22.148 152.767 22.308 152.831 22.436C152.767 22.532 152.703 22.564 152.607 22.564C152.415 22.564 152.191 22.532 151.999 22.532C151.551 22.532 151.103 22.532 150.655 22.5C150.303 22.5 149.951 22.5 149.599 22.5C149.407 22.5 149.183 22.5 148.991 22.532C148.799 22.532 148.671 22.436 148.639 22.276C148.511 21.892 148.351 21.508 148.223 21.156C147.871 20.164 147.455 19.236 146.975 18.308C146.303 16.964 145.631 15.652 144.959 14.308C144.575 13.572 144.191 12.836 143.807 12.068C143.711 11.908 143.615 11.876 143.455 11.876C143.199 11.876 142.975 11.876 142.751 11.844C142.239 11.78 141.727 11.844 141.215 11.876C141.183 11.876 141.151 11.876 141.087 11.908C141.023 12.036 140.895 12.196 140.799 12.356C140.607 12.676 140.383 13.028 140.159 13.38C139.903 13.764 139.775 14.212 139.807 14.66C139.807 14.788 139.839 14.916 139.871 15.012C140.127 15.62 140.479 16.164 140.799 16.708C140.927 16.868 141.023 17.06 141.119 17.22C141.311 17.604 141.407 17.988 141.439 18.404C141.535 18.98 141.535 19.524 141.535 20.1C141.535 20.292 141.567 20.484 141.567 20.676C141.599 21.156 141.599 21.636 141.567 22.084C141.567 22.212 141.535 22.34 141.503 22.5C141.119 22.596 140.703 22.468 140.319 22.5C139.935 22.532 139.519 22.5 139.103 22.468C138.719 22.468 138.335 22.468 137.919 22.468C137.855 22.276 137.823 22.052 137.855 21.86C137.951 20.996 137.887 20.164 137.887 19.3C137.887 18.884 137.823 18.436 137.759 18.02C137.727 17.604 137.567 17.252 137.311 16.932C137.055 16.612 136.863 16.26 136.639 15.908C136.575 15.78 136.479 15.62 136.415 15.46C136.063 14.916 136.095 14.372 136.287 13.796C136.383 13.508 136.543 13.252 136.703 12.964C136.927 12.612 137.119 12.26 137.343 11.908C137.439 11.716 137.471 11.556 137.503 11.364C137.599 10.788 137.599 10.212 137.599 9.604C137.599 8.964 137.599 8.292 137.567 7.652C137.567 7.332 137.535 7.012 137.535 6.692C137.503 5.476 137.567 4.26 137.631 3.076C137.631 2.564 137.663 2.02 137.663 1.508C137.631 1.156 137.695 0.771999 137.631 0.419998C137.631 0.387999 137.663 0.323999 137.663 0.292ZM141.279 8.228C141.471 8.228 141.631 8.26 141.791 8.228C142.047 8.196 142.303 8.228 142.559 8.228C142.623 8.228 142.719 8.26 142.815 8.228C143.423 8.228 143.999 8.26 144.607 8.196C145.183 8.132 145.727 8.068 146.271 7.908C146.527 7.844 146.719 7.684 146.847 7.428C146.879 7.332 146.911 7.236 146.943 7.14C147.007 6.916 147.039 6.66 147.103 6.404C147.167 6.148 147.167 5.86 147.135 5.572C147.103 5.54 147.103 5.476 147.103 5.412C147.135 5.092 147.039 4.804 146.943 4.484C146.783 4.004 146.335 3.684 145.823 3.684C145.663 3.684 145.535 3.684 145.407 3.652C144.991 3.652 144.575 3.652 144.127 3.62C143.935 3.62 143.743 3.652 143.551 3.652C142.975 3.652 142.399 3.748 141.823 3.716C141.727 3.716 141.631 3.716 141.535 3.748C141.439 3.748 141.375 3.78 141.279 3.812C141.215 5.284 141.215 6.724 141.279 8.228ZM169.103 22.404C168.975 22.468 168.879 22.468 168.751 22.468C168.527 22.404 168.303 22.436 168.047 22.468C167.823 22.5 167.567 22.5 167.311 22.5C166.863 22.5 166.415 22.5 165.967 22.468C165.615 22.468 165.295 22.436 164.943 22.404C164.847 22.404 164.783 22.34 164.783 22.276C164.847 22.052 164.751 21.86 164.751 21.636C164.655 20.836 164.527 20.068 164.399 19.3C164.399 19.108 164.367 18.916 164.367 18.692C164.335 18.34 164.399 18.02 164.591 17.7C164.655 17.604 164.687 17.508 164.751 17.412C164.719 17.348 164.655 17.348 164.591 17.348C163.919 17.316 163.215 17.284 162.511 17.284C162.159 17.284 161.775 17.284 161.423 17.284C161.199 17.284 160.943 17.284 160.719 17.316C160.559 17.316 160.431 17.38 160.335 17.508C160.207 17.7 160.047 17.828 159.855 17.956C159.791 18.02 159.695 18.084 159.631 18.148C159.471 18.244 159.343 18.34 159.183 18.436C159.055 18.532 158.895 18.596 158.735 18.692C158.639 18.756 158.575 18.82 158.511 18.916C158.383 19.044 158.287 19.172 158.191 19.3C158.095 19.492 158.063 19.684 158.031 19.876C157.967 20.196 157.967 20.516 157.935 20.804C157.903 20.996 157.903 21.7 157.903 21.892C157.903 22.084 157.903 22.148 157.807 22.436C157.519 22.5 157.263 22.5 156.975 22.5C156.591 22.436 156.207 22.5 155.823 22.5C155.247 22.5 154.671 22.5 154.095 22.532C154.063 22.532 154.031 22.532 153.967 22.532C153.871 22.5 153.839 22.468 153.807 22.372C153.775 22.212 153.743 22.02 153.775 21.86C153.935 21.22 153.967 20.036 154.063 19.364C154.095 19.172 154.159 18.98 154.223 18.788C154.319 18.468 154.543 18.212 154.831 17.988C154.959 17.924 155.087 17.828 155.215 17.732C155.503 17.572 155.823 17.38 156.143 17.188C156.527 16.9 156.911 16.58 157.167 16.132C157.359 15.844 157.455 15.492 157.551 15.14C157.583 14.948 157.519 14.756 157.487 14.596C157.455 14.404 157.391 14.212 157.295 14.052C157.071 13.668 156.815 13.252 156.591 12.836C156.399 12.548 156.303 12.228 156.271 11.876C156.239 11.588 156.303 11.3 156.367 11.012C156.623 9.892 156.911 8.74 157.199 7.62C157.423 6.628 157.647 5.668 157.903 4.676C158.159 3.652 158.415 2.596 158.703 1.572C158.767 1.252 158.863 0.963999 158.927 0.643999C158.959 0.515999 158.991 0.387999 159.055 0.259998C159.215 0.195999 159.407 0.164 159.599 0.164C160.111 0.131998 160.655 0.0999985 161.199 0.0999985C161.455 0.0999985 161.743 0.0679989 161.999 0.0359993C162.063 0.0359993 162.127 0.0359993 162.159 0.0359993C162.511 0.0359993 162.607 0.0999985 162.703 0.419998C162.863 1.188 163.055 1.956 163.311 2.692C163.439 3.108 163.599 3.492 163.759 3.876C163.855 4.1 163.919 4.324 164.015 4.548C164.271 5.124 164.527 5.668 164.783 6.244C165.071 6.884 165.327 7.556 165.551 8.228C165.743 8.836 165.935 9.412 166.127 10.02C166.191 10.18 166.255 10.372 166.287 10.532C166.383 10.916 166.511 11.236 166.671 11.588V11.62C166.959 12.036 167.215 12.452 167.631 12.772C167.887 12.996 168.143 13.188 168.367 13.412C168.751 13.796 169.039 14.212 169.231 14.724C169.327 14.916 169.391 15.14 169.391 15.396C169.391 15.46 169.391 15.524 169.423 15.62C169.455 15.812 169.391 15.972 169.327 16.164C169.199 16.452 169.071 16.708 168.847 16.932C168.719 17.092 168.591 17.22 168.495 17.38C168.367 17.572 168.303 17.764 168.303 17.988C168.271 18.468 168.335 18.948 168.399 19.428C168.399 19.524 168.431 19.588 168.463 19.684C168.527 19.94 168.591 20.164 168.655 20.388C168.719 20.772 168.815 21.156 168.879 21.508C168.943 21.796 169.039 22.084 169.103 22.404ZM161.199 7.684C161.135 7.812 161.103 7.876 161.103 7.94C160.815 9.124 160.527 10.308 160.239 11.46C160.111 11.94 160.175 12.388 160.335 12.836C160.399 12.964 160.463 13.028 160.623 12.996C161.103 12.996 161.583 13.028 162.063 12.996C162.383 12.964 162.735 12.964 163.055 12.996C163.119 12.996 163.151 12.964 163.215 12.932C162.767 12.356 162.575 11.716 162.351 11.044C162.095 10.308 161.871 9.54 161.615 8.772C161.519 8.42 161.391 8.068 161.199 7.684ZM184.787 7.716C184.563 7.812 184.371 7.812 184.179 7.812C183.667 7.748 183.187 7.716 182.675 7.748C182.611 7.748 182.547 7.748 182.483 7.748C182.099 7.684 181.715 7.684 181.331 7.684C181.203 7.684 181.139 7.62 181.139 7.46C181.139 7.332 181.139 7.204 181.139 7.076C181.107 6.5 181.107 5.956 181.043 5.38C181.011 4.996 180.851 4.676 180.595 4.356C180.499 4.228 180.339 4.164 180.211 4.1C179.763 3.908 179.315 3.812 178.803 3.876C178.483 3.908 178.163 3.94 177.875 3.972C177.139 4.068 176.627 4.484 176.307 5.092C176.147 5.38 176.147 5.668 176.179 5.956C176.179 6.116 176.179 6.308 176.179 6.468C176.179 6.5 176.179 6.564 176.179 6.596C176.211 7.204 176.211 7.78 176.147 8.388C176.147 8.708 176.083 9.06 175.987 9.38C175.795 9.892 175.539 10.372 175.283 10.852C175.027 11.268 174.867 11.748 174.803 12.26C174.771 12.58 174.803 12.868 174.899 13.188C174.995 13.508 175.155 13.796 175.347 14.084C175.635 14.532 175.891 15.012 176.019 15.556C176.051 15.652 176.051 15.748 176.115 15.876C176.147 16.004 176.179 16.164 176.147 16.324C176.115 16.74 176.211 17.156 176.211 17.572C176.243 17.764 176.307 17.924 176.467 18.052C176.627 18.212 176.755 18.404 176.947 18.564C177.139 18.756 177.395 18.884 177.651 18.884C177.939 18.916 178.227 18.98 178.483 18.98C179.155 18.98 179.795 18.916 180.435 18.756C180.531 18.756 180.595 18.692 180.691 18.66C180.819 18.596 180.947 18.5 181.075 18.468C181.267 18.404 181.363 18.244 181.459 18.116C181.523 18.02 181.587 17.892 181.619 17.764C181.683 17.444 181.811 17.124 181.811 16.772C181.811 16.516 181.843 16.292 181.843 16.068C181.843 15.748 181.811 15.428 181.811 15.108C181.811 15.044 181.779 14.98 181.747 14.948C181.715 14.82 181.715 14.788 181.779 14.564C181.907 14.5 182.035 14.5 182.195 14.5C182.323 14.532 182.483 14.532 182.611 14.532C183.251 14.5 183.859 14.5 184.467 14.5C184.659 14.5 184.819 14.5 185.011 14.5C185.171 14.5 185.331 14.5 185.491 14.564C185.523 14.756 185.555 14.948 185.555 15.172C185.555 15.748 185.587 16.356 185.491 16.932C185.491 17.06 185.491 17.22 185.491 17.348C185.491 17.7 185.427 18.02 185.331 18.34C185.267 18.596 185.203 18.852 185.107 19.14C185.107 19.204 185.075 19.268 185.043 19.332C184.883 19.62 184.723 19.908 184.531 20.196C184.211 20.644 183.827 20.964 183.379 21.252C183.027 21.508 182.643 21.732 182.259 21.956C182.003 22.052 181.747 22.18 181.491 22.244C181.299 22.308 181.075 22.372 180.883 22.436C180.723 22.468 180.595 22.5 180.435 22.5C180.051 22.5 179.667 22.532 179.315 22.532C178.899 22.532 178.515 22.5 178.131 22.5C177.651 22.5 177.171 22.436 176.723 22.34C176.627 22.34 176.531 22.308 176.467 22.276C175.891 22.052 175.283 21.796 174.739 21.476C174.515 21.316 174.323 21.156 174.131 20.996C173.843 20.74 173.587 20.452 173.363 20.132C172.979 19.524 172.659 18.884 172.563 18.148C172.563 18.02 172.531 17.892 172.531 17.732C172.531 17.284 172.531 16.804 172.531 16.356C172.531 16.1 172.499 15.844 172.403 15.62C172.179 15.172 171.987 14.788 171.699 14.404C171.347 13.956 171.059 13.476 170.867 12.964C170.707 12.644 170.675 12.292 170.771 11.972C170.803 11.748 170.867 11.556 170.899 11.364C171.027 10.916 171.283 10.564 171.571 10.212C171.827 9.892 172.051 9.54 172.211 9.156C172.275 8.932 172.339 8.708 172.339 8.484C172.339 7.492 172.371 6.5 172.435 5.476C172.435 5.06 172.499 4.644 172.627 4.26C172.755 3.812 172.915 3.396 173.203 3.044C173.491 2.596 173.843 2.212 174.259 1.86C174.579 1.572 174.899 1.348 175.251 1.124C175.443 0.995998 175.699 0.9 175.923 0.835999C176.531 0.675999 177.139 0.515999 177.779 0.419998C177.843 0.387999 177.907 0.387999 177.971 0.355999C178.195 0.292 178.451 0.259998 178.707 0.259998C179.027 0.259998 179.315 0.227999 179.635 0.195999C179.859 0.195999 180.115 0.195999 180.371 0.227999C180.563 0.227999 180.755 0.292 180.947 0.323999C181.427 0.452 181.875 0.579998 182.323 0.803999C182.547 0.931999 182.739 1.092 182.963 1.22C183.251 1.444 183.539 1.668 183.699 2.02C183.731 2.052 183.763 2.116 183.795 2.148C184.083 2.532 184.307 2.98 184.467 3.428C184.627 3.876 184.691 4.324 184.723 4.772C184.819 5.572 184.819 6.372 184.787 7.172C184.787 7.364 184.787 7.524 184.787 7.716ZM193.606 12.9C193.51 12.996 193.414 13.092 193.35 13.156C192.87 13.7 192.422 14.212 192.006 14.788C191.91 14.916 191.814 15.012 191.718 15.14C191.59 15.3 191.526 15.46 191.526 15.652C191.526 16.26 191.494 16.868 191.462 17.476C191.43 18.116 191.43 18.788 191.398 19.428C191.398 19.844 191.398 20.26 191.366 20.644C191.366 20.868 191.334 21.06 191.334 21.284C191.302 21.636 191.302 21.892 191.302 22.244C191.27 22.34 191.27 22.404 191.238 22.468C191.174 22.5 191.11 22.532 191.046 22.532C190.758 22.532 190.438 22.532 190.15 22.532C190.054 22.532 189.958 22.5 189.83 22.5C189.222 22.5 188.614 22.532 188.006 22.532C187.974 22.532 187.91 22.532 187.878 22.532C187.75 22.5 187.686 22.468 187.686 22.34C187.686 22.212 187.686 22.052 187.686 21.924C187.718 21.316 187.75 20.804 187.75 20.196C187.782 19.78 187.782 19.332 187.814 18.884C187.846 17.444 187.878 15.972 187.974 14.532C188.07 13.444 188.134 12.356 188.198 11.268C188.23 10.66 188.23 10.02 188.262 9.412C188.262 9.124 188.198 8.868 188.07 8.644C187.91 8.356 187.75 8.068 187.59 7.748C187.462 7.556 187.366 7.332 187.238 7.14C187.142 6.916 187.11 6.724 187.078 6.5C187.078 6.404 187.078 6.276 187.046 6.18C186.982 5.764 187.078 5.38 187.238 4.996C187.398 4.58 187.622 4.196 187.846 3.844C188.166 3.396 188.326 2.916 188.294 2.372C188.294 2.052 188.326 1.956 188.294 1.636C188.294 1.412 188.294 1.188 188.262 0.963999C188.262 0.835999 188.23 0.707998 188.23 0.612C188.23 0.483999 188.198 0.355999 188.326 0.227999C188.742 0.227999 189.158 0.195999 189.606 0.195999C190.022 0.164 190.438 0.131998 190.822 0.131998C191.11 0.0999985 191.43 0.131998 191.718 0.131998C191.878 0.131998 191.91 0.195999 191.91 0.323999C191.942 0.483999 191.942 0.675999 191.942 0.835999C191.942 0.931999 191.942 1.06 191.942 1.156C191.974 1.7 192.006 2.02 191.974 2.596C191.974 2.692 191.974 2.82 191.974 2.916C191.942 3.204 191.846 3.492 191.686 3.748C191.558 3.876 191.462 4.036 191.366 4.164C191.11 4.58 190.886 4.964 190.79 5.412C190.726 5.732 190.758 6.02 190.79 6.308C190.79 6.372 190.822 6.436 190.854 6.5C190.95 6.66 191.046 6.788 191.11 6.948C191.238 7.172 191.366 7.428 191.494 7.652C191.75 8.1 191.846 8.58 191.878 9.06C191.878 9.124 191.878 9.188 191.91 9.252V9.284C192.006 9.284 192.038 9.22 192.07 9.188C192.614 8.548 193.158 7.908 193.638 7.204C193.926 6.852 194.214 6.5 194.502 6.148C194.822 5.764 195.142 5.412 195.398 4.996C195.526 4.804 195.686 4.612 195.814 4.42C196.422 3.684 196.966 2.884 197.446 2.084C197.67 1.7 197.926 1.348 198.182 0.995998C198.342 0.771999 198.534 0.547998 198.694 0.323999C198.79 0.227999 198.886 0.0999985 199.014 0.0999985C199.59 0.0999985 200.198 0.0999985 200.774 0.131998C201.254 0.0999985 202.022 0.0999985 202.246 0.131998C202.502 0.0999985 202.758 0.131998 202.982 0.0999985C203.014 0.0999985 203.046 0.131998 203.046 0.164C203.046 0.164 203.046 0.195999 203.014 0.227999C202.598 0.835999 202.15 1.412 201.702 2.02C201.542 2.244 201.35 2.5 201.19 2.756C201.094 2.884 201.03 3.076 200.966 3.236C200.678 3.684 200.39 4.132 200.07 4.58C199.942 4.772 199.814 4.964 199.686 5.156C199.558 5.38 199.398 5.572 199.238 5.764C199.078 5.924 198.95 6.116 198.822 6.308C198.694 6.532 198.502 6.756 198.31 6.948C197.862 7.46 197.446 7.972 197.03 8.516C196.774 8.9 196.486 9.252 196.198 9.636C196.166 9.668 196.134 9.732 196.102 9.796C196.166 9.892 196.198 10.02 196.294 10.116C196.902 11.076 197.446 12.068 197.926 13.092C198.726 14.724 199.494 16.388 200.262 18.052C200.582 18.724 200.902 19.364 201.222 20.036C201.35 20.324 201.51 20.612 201.67 20.932C201.926 21.348 202.182 21.892 202.406 22.34C202.438 22.372 202.47 22.436 202.502 22.5C202.502 22.564 202.438 22.468 202.406 22.468C201.958 22.5 201.542 22.5 201.126 22.5C200.838 22.532 200.582 22.5 200.294 22.5C199.974 22.5 199.622 22.5 199.27 22.5C199.078 22.5 198.854 22.5 198.662 22.532C198.47 22.532 198.374 22.468 198.278 22.308C197.926 21.828 197.67 21.188 197.414 20.644C196.742 19.236 196.07 17.796 195.43 16.388C195.078 15.684 194.758 14.98 194.406 14.276C194.182 13.828 193.958 13.412 193.702 12.996C193.67 12.964 193.67 12.964 193.606 12.9ZM204.743 0.292C204.839 0.259998 204.903 0.259998 204.999 0.259998C205.447 0.259998 205.863 0.259998 206.311 0.259998C206.375 0.259998 206.471 0.259998 206.535 0.259998C207.623 0.227999 208.743 0.227999 209.831 0.195999C210.343 0.195999 210.855 0.131998 211.399 0.0999985C211.751 0.0679989 212.103 0.0679989 212.487 0.0359993C213.287 0.0359993 214.087 0.0359993 214.887 0.0359993C215.463 0.0359993 216.007 0.0679989 216.583 0.0999985C216.839 0.0999985 217.127 0.0999985 217.383 0.0999985C217.415 0.0999985 217.447 0.0679989 217.479 0.0679989C217.831 0.0679989 217.863 0.0999985 217.831 0.452C217.767 1.22 217.799 1.988 217.767 2.788C217.767 3.012 217.799 3.236 217.799 3.492C217.799 3.62 217.799 3.748 217.799 3.876C217.607 3.972 217.415 3.972 217.255 3.972C216.711 4.004 216.199 4.004 215.655 4.004C215.495 4.004 215.335 3.972 215.143 3.94C214.599 3.908 214.087 3.94 213.543 3.94C213.031 3.972 212.487 4.004 211.975 3.972C211.303 3.908 210.663 4.004 210.023 4.068C209.895 4.068 209.799 4.068 209.703 4.1C209.255 4.1 208.839 4.132 208.359 4.164C208.295 4.324 208.327 4.452 208.391 4.58C208.519 4.772 208.615 4.964 208.743 5.156C209.031 5.54 209.351 5.892 209.671 6.212C209.927 6.532 210.183 6.852 210.311 7.268C210.375 7.364 210.375 7.492 210.407 7.588C210.439 8.036 210.343 8.484 210.151 8.868C210.119 8.932 210.087 8.996 210.055 9.028C209.767 9.348 209.511 9.7 209.191 9.956C209.159 9.988 209.159 9.988 209.159 10.02C209.255 10.084 209.383 10.052 209.511 10.052C210.119 10.02 210.727 9.988 211.335 9.956C211.655 9.956 211.943 9.956 212.263 9.956C212.679 9.956 213.095 9.988 213.511 9.956C214.151 9.956 214.791 9.924 215.431 9.892C215.591 9.892 215.719 9.892 215.879 9.892C216.231 9.892 216.583 9.892 216.935 9.892C217.031 9.892 217.127 9.892 217.255 9.892C217.319 10.02 217.287 10.148 217.287 10.276C217.287 10.436 217.287 10.596 217.287 10.756C217.287 10.788 217.319 10.82 217.319 10.852C217.255 11.3 217.287 11.748 217.319 12.164C217.319 12.58 217.319 12.964 217.319 13.38C217.319 13.476 217.319 13.604 217.255 13.732C217.095 13.764 216.935 13.764 216.775 13.732C216.583 13.7 216.391 13.732 216.231 13.732C215.655 13.7 215.047 13.7 214.471 13.668C213.991 13.668 213.511 13.668 212.999 13.668C212.679 13.636 212.359 13.668 212.039 13.636C211.367 13.572 210.695 13.636 210.023 13.668C209.575 13.7 209.095 13.732 208.647 13.796C208.615 13.796 208.583 13.796 208.551 13.828C208.551 13.86 208.519 13.924 208.519 13.956C208.583 14.564 208.519 15.14 208.487 15.716C208.487 16.356 208.455 16.996 208.423 17.636C208.423 18.02 208.455 18.404 208.487 18.756C208.583 18.852 208.679 18.82 208.775 18.82C209.255 18.884 209.703 18.82 210.183 18.82C211.015 18.82 211.847 18.82 212.679 18.82C213.095 18.82 213.543 18.82 213.959 18.82C214.151 18.82 214.375 18.788 214.567 18.788C215.399 18.82 216.231 18.852 217.063 18.852C217.255 18.852 217.447 18.852 217.671 18.852C217.703 18.916 217.735 18.98 217.735 19.044C217.735 19.3 217.767 19.556 217.735 19.812C217.671 20.26 217.703 20.708 217.671 21.124C217.639 21.572 217.639 21.988 217.607 22.436C217.607 22.436 217.607 22.468 217.575 22.5C217.543 22.532 217.511 22.564 217.479 22.564C217.223 22.564 216.935 22.596 216.679 22.564C215.367 22.532 214.055 22.5 212.743 22.5C212.295 22.5 211.847 22.468 211.399 22.468C210.471 22.436 209.543 22.5 208.647 22.532C208.391 22.564 208.167 22.564 207.943 22.564C207.143 22.564 206.311 22.564 205.479 22.532C205.255 22.532 205.063 22.532 204.839 22.532C204.679 22.532 204.615 22.436 204.583 22.308C204.583 22.212 204.583 22.148 204.583 22.052C204.551 21.7 204.551 21.348 204.551 21.028C204.615 19.844 204.583 18.66 204.583 17.476C204.583 17.092 204.551 16.708 204.551 16.292C204.583 15.844 204.551 15.428 204.551 14.98C204.519 14.564 204.551 14.116 204.583 13.7C204.583 13.508 204.583 13.348 204.583 13.188C204.551 12.452 204.615 11.748 204.711 11.012C204.743 10.724 204.807 10.468 204.935 10.212C205.127 9.892 205.319 9.572 205.575 9.284C205.831 8.996 206.023 8.708 206.215 8.388C206.375 8.132 206.471 7.844 206.407 7.556C206.375 7.524 206.375 7.492 206.375 7.46C206.407 7.044 206.215 6.724 205.895 6.436C205.575 6.18 205.287 5.828 205.031 5.508C204.711 5.092 204.551 4.612 204.583 4.1C204.583 3.46 204.583 2.82 204.615 2.18C204.615 1.7 204.615 1.22 204.647 0.74C204.647 0.579998 204.647 0.419998 204.743 0.292ZM220.725 0.292C220.789 0.259998 220.789 0.259998 220.821 0.259998C221.461 0.292 222.069 0.195999 222.709 0.164C223.157 0.164 223.637 0.164 224.085 0.164C224.341 0.164 224.629 0.164 224.885 0.164C225.429 0.0999985 225.973 0.131998 226.517 0.131998C226.933 0.131998 227.317 0.131998 227.733 0.131998C228.053 0.131998 228.373 0.131998 228.693 0.131998C228.885 0.164 229.077 0.195999 229.301 0.227999C229.653 0.259998 229.973 0.323999 230.325 0.355999C230.581 0.387999 230.805 0.452 231.029 0.579998C231.381 0.771999 231.733 0.963999 232.053 1.22C232.277 1.38 232.501 1.572 232.629 1.796C232.853 2.116 233.045 2.404 233.237 2.724C233.429 3.044 233.525 3.364 233.557 3.716C233.589 3.908 233.653 4.1 233.685 4.292C233.685 4.356 233.717 4.42 233.717 4.516C233.813 5.252 233.909 6.02 233.877 6.788C233.877 7.076 233.877 7.396 233.845 7.716C233.749 8.356 233.589 8.996 233.173 9.54C233.173 9.572 233.141 9.572 233.141 9.604C232.597 10.212 232.021 10.756 231.221 11.044C231.061 11.108 230.933 11.172 230.805 11.236C230.741 11.236 230.709 11.268 230.645 11.3C230.677 11.396 230.741 11.492 230.773 11.556C231.701 13.38 232.629 15.172 233.525 16.996C234.069 18.052 234.581 19.172 234.965 20.292C235.093 20.708 235.285 21.124 235.477 21.508C235.541 21.668 235.605 21.828 235.669 21.988C235.733 22.148 235.829 22.308 235.893 22.436C235.829 22.532 235.765 22.564 235.669 22.564C235.477 22.564 235.253 22.532 235.061 22.532C234.613 22.532 234.165 22.532 233.717 22.5C233.365 22.5 233.013 22.5 232.661 22.5C232.469 22.5 232.245 22.5 232.053 22.532C231.861 22.532 231.733 22.436 231.701 22.276C231.573 21.892 231.413 21.508 231.285 21.156C230.933 20.164 230.517 19.236 230.037 18.308C229.365 16.964 228.693 15.652 228.021 14.308C227.637 13.572 227.253 12.836 226.869 12.068C226.773 11.908 226.677 11.876 226.517 11.876C226.261 11.876 226.037 11.876 225.813 11.844C225.301 11.78 224.789 11.844 224.277 11.876C224.245 11.876 224.213 11.876 224.149 11.908C224.085 12.036 223.957 12.196 223.861 12.356C223.669 12.676 223.445 13.028 223.221 13.38C222.965 13.764 222.837 14.212 222.869 14.66C222.869 14.788 222.901 14.916 222.933 15.012C223.189 15.62 223.541 16.164 223.861 16.708C223.989 16.868 224.085 17.06 224.181 17.22C224.373 17.604 224.469 17.988 224.501 18.404C224.597 18.98 224.597 19.524 224.597 20.1C224.597 20.292 224.629 20.484 224.629 20.676C224.661 21.156 224.661 21.636 224.629 22.084C224.629 22.212 224.597 22.34 224.565 22.5C224.181 22.596 223.765 22.468 223.381 22.5C222.997 22.532 222.581 22.5 222.165 22.468C221.781 22.468 221.397 22.468 220.981 22.468C220.917 22.276 220.885 22.052 220.917 21.86C221.013 20.996 220.949 20.164 220.949 19.3C220.949 18.884 220.885 18.436 220.821 18.02C220.789 17.604 220.629 17.252 220.373 16.932C220.117 16.612 219.925 16.26 219.701 15.908C219.637 15.78 219.541 15.62 219.477 15.46C219.125 14.916 219.157 14.372 219.349 13.796C219.445 13.508 219.605 13.252 219.765 12.964C219.989 12.612 220.181 12.26 220.405 11.908C220.501 11.716 220.533 11.556 220.565 11.364C220.661 10.788 220.661 10.212 220.661 9.604C220.661 8.964 220.661 8.292 220.629 7.652C220.629 7.332 220.597 7.012 220.597 6.692C220.565 5.476 220.629 4.26 220.693 3.076C220.693 2.564 220.725 2.02 220.725 1.508C220.693 1.156 220.757 0.771999 220.693 0.419998C220.693 0.387999 220.725 0.323999 220.725 0.292ZM224.341 8.228C224.533 8.228 224.693 8.26 224.853 8.228C225.109 8.196 225.365 8.228 225.621 8.228C225.685 8.228 225.781 8.26 225.877 8.228C226.485 8.228 227.061 8.26 227.669 8.196C228.245 8.132 228.789 8.068 229.333 7.908C229.589 7.844 229.781 7.684 229.909 7.428C229.941 7.332 229.973 7.236 230.005 7.14C230.069 6.916 230.101 6.66 230.165 6.404C230.229 6.148 230.229 5.86 230.197 5.572C230.165 5.54 230.165 5.476 230.165 5.412C230.197 5.092 230.101 4.804 230.005 4.484C229.845 4.004 229.397 3.684 228.885 3.684C228.725 3.684 228.597 3.684 228.469 3.652C228.053 3.652 227.637 3.652 227.189 3.62C226.997 3.62 226.805 3.652 226.613 3.652C226.037 3.652 225.461 3.748 224.885 3.716C224.789 3.716 224.693 3.716 224.597 3.748C224.501 3.748 224.437 3.78 224.341 3.812C224.277 5.284 224.277 6.724 224.341 8.228Z" fill="white"/>
</svg>
