<svg width="54" height="42" viewBox="0 0 54 42" fill="none" xmlns="http://www.w3.org/2000/svg">
<path fill-rule="evenodd" clip-rule="evenodd" d="M41.1071 42L53.2315 21L41.1071 0H16.8584L12.7925 7.04242V34.9576L16.8584 42H41.1071Z" fill="#510800"/>
<path fill-rule="evenodd" clip-rule="evenodd" d="M41.1071 42L53.2314 21L41.1071 -4.11945e-07L32.1219 -7.17233e-07L44.7287 21.0995L32.2409 42L41.1071 42Z" fill="#77121A"/>
<path fill-rule="evenodd" clip-rule="evenodd" d="M25.6759 42L37.8003 21L25.6759 -4.11945e-07L16.6908 -7.17232e-07L29.2975 21.0995L16.8097 42L25.6759 42Z" fill="#77121A"/>
<path fill-rule="evenodd" clip-rule="evenodd" d="M8.98502 42L21.1094 21L8.98502 -4.11945e-07L-0.000162125 -7.17232e-07L12.6066 21.0995L0.118746 42L8.98502 42Z" fill="#77121A"/>
</svg>
