<svg width="83" height="116" viewBox="0 0 83 116" fill="none" xmlns="http://www.w3.org/2000/svg">
<g filter="url(#filter0_i_347_25995)">
<path d="M2.58366 45.9776C2.36835 39.479 3.12192 33.4678 4.84436 27.944C6.5668 22.3119 9.15045 17.4379 12.5953 13.3221C16.0402 9.09804 20.3463 5.84875 25.5136 3.57423C30.7886 1.19141 36.8171 0 43.5992 0C48.7665 0 53.6647 0.812326 58.2938 2.43697C63.0305 4.06163 67.1751 6.39029 70.7276 9.42297C74.2802 12.4557 77.0791 16.1923 79.1245 20.6331C81.2776 25.0738 82.3541 30.056 82.3541 35.5798C82.3541 41.3203 81.439 46.2484 79.6089 50.3641C77.7789 54.4799 75.3567 58.1625 72.3424 61.4118C69.3281 64.5527 65.8833 67.423 62.0078 70.0224C58.2399 72.6218 54.4183 75.2213 50.5428 77.8207C46.6673 80.3119 42.8995 83.0196 39.2393 85.944C35.5791 88.8683 32.3495 92.2801 29.5506 96.1793H83V116H0C0 109.393 0.915045 103.653 2.74514 98.7787C4.68288 93.9048 7.26654 89.5724 10.4961 85.7815C13.7257 81.8824 17.4935 78.3081 21.7996 75.0588C26.2134 71.8095 30.8424 68.5061 35.6868 65.1485C38.1628 63.4155 40.8003 61.6825 43.5992 59.9496C46.3982 58.1083 48.928 56.1046 51.1887 53.9384C53.5571 51.7722 55.4948 49.3352 57.0019 46.6275C58.6167 43.9197 59.4241 40.8329 59.4241 37.3669C59.4241 31.8431 57.8093 27.5649 54.5798 24.5322C51.4578 21.3912 47.4209 19.8207 42.4689 19.8207C39.1316 19.8207 36.2789 20.6331 33.9105 22.2577C31.6498 23.774 29.8197 25.8319 28.4202 28.4314C27.0208 30.9225 25.9981 33.7386 25.3521 36.8796C24.8139 39.9122 24.5447 42.9449 24.5447 45.9776H2.58366Z" fill="black" fill-opacity="0.18"/>
</g>
<defs>
<filter id="filter0_i_347_25995" x="0" y="0" width="83" height="120" filterUnits="userSpaceOnUse" color-interpolation-filters="sRGB">
<feFlood flood-opacity="0" result="BackgroundImageFix"/>
<feBlend mode="normal" in="SourceGraphic" in2="BackgroundImageFix" result="shape"/>
<feColorMatrix in="SourceAlpha" type="matrix" values="0 0 0 0 0 0 0 0 0 0 0 0 0 0 0 0 0 0 127 0" result="hardAlpha"/>
<feOffset dy="4"/>
<feGaussianBlur stdDeviation="2"/>
<feComposite in2="hardAlpha" operator="arithmetic" k2="-1" k3="1"/>
<feColorMatrix type="matrix" values="0 0 0 0 0 0 0 0 0 0 0 0 0 0 0 0 0 0 0.25 0"/>
<feBlend mode="normal" in2="shape" result="effect1_innerShadow_347_25995"/>
</filter>
</defs>
</svg>
