<svg width="83" height="116" viewBox="0 0 83 116" fill="none" xmlns="http://www.w3.org/2000/svg">
<g filter="url(#filter0_i_347_25996)">
<path d="M33.516 47.3893C35.9625 47.602 38.5687 47.602 41.3344 47.3893C44.1001 47.1765 46.653 46.5915 48.9933 45.6341C51.4398 44.5704 53.4077 43.0812 54.897 41.1664C56.4926 39.2517 57.2904 36.6988 57.2904 33.5076C57.2904 28.7208 55.6948 25.0509 52.5036 22.4979C49.3124 19.945 45.6425 18.6685 41.494 18.6685C35.7498 18.6685 31.3885 20.5832 28.41 24.4126C25.538 28.1357 24.1551 32.8693 24.2615 38.6135H2.72091C2.93366 32.8693 3.94421 27.657 5.75255 22.9766C7.66727 18.1898 10.2734 14.0945 13.571 10.6905C16.9749 7.28657 21.0171 4.68043 25.6975 2.87208C30.3779 0.95736 35.5902 0 41.3344 0C45.8021 0 50.2697 0.691426 54.7374 2.07428C59.2051 3.35076 63.1941 5.31867 66.7044 7.978C70.3211 10.6373 73.2464 13.8817 75.4802 17.7111C77.714 21.5406 78.8309 25.9551 78.8309 30.9546C78.8309 36.3796 77.5013 41.1664 74.8419 45.315C72.289 49.4635 68.4064 52.2824 63.1941 53.7717V54.0908C69.3637 55.4736 74.2037 58.4521 77.714 63.0261C81.2243 67.6002 82.9795 73.0784 82.9795 79.4608C82.9795 85.3113 81.8094 90.5236 79.4692 95.0976C77.2353 99.6717 74.2037 103.501 70.3743 106.586C66.5448 109.671 62.1304 112.011 57.1308 113.607C52.1313 115.202 46.919 116 41.494 116C35.2179 116 29.4738 115.096 24.2615 113.287C19.1556 111.479 14.7943 108.873 11.1776 105.469C7.5609 101.959 4.74201 97.7038 2.72091 92.7043C0.806197 87.7047 -0.0979753 81.9606 0.00839789 75.4718H21.549C21.6553 78.4502 22.134 81.3223 22.985 84.088C23.836 86.7474 25.0593 89.0876 26.6549 91.1087C28.2505 93.0234 30.2184 94.5658 32.5586 95.7359C35.0052 96.906 37.8773 97.4911 41.1748 97.4911C46.2807 97.4911 50.5889 95.9486 54.0992 92.8638C57.6095 89.6726 59.3646 85.3645 59.3646 79.9395C59.3646 75.6845 58.5137 72.4402 56.8117 70.2063C55.2161 67.9725 53.1418 66.3769 50.5889 65.4195C48.0359 64.3558 45.217 63.7707 42.1322 63.6644C39.1537 63.4516 36.2817 63.3453 33.516 63.3453V47.3893Z" fill="black" fill-opacity="0.18"/>
</g>
<defs>
<filter id="filter0_i_347_25996" x="0" y="0" width="82.9795" height="120" filterUnits="userSpaceOnUse" color-interpolation-filters="sRGB">
<feFlood flood-opacity="0" result="BackgroundImageFix"/>
<feBlend mode="normal" in="SourceGraphic" in2="BackgroundImageFix" result="shape"/>
<feColorMatrix in="SourceAlpha" type="matrix" values="0 0 0 0 0 0 0 0 0 0 0 0 0 0 0 0 0 0 127 0" result="hardAlpha"/>
<feOffset dy="4"/>
<feGaussianBlur stdDeviation="2"/>
<feComposite in2="hardAlpha" operator="arithmetic" k2="-1" k3="1"/>
<feColorMatrix type="matrix" values="0 0 0 0 0 0 0 0 0 0 0 0 0 0 0 0 0 0 0.25 0"/>
<feBlend mode="normal" in2="shape" result="effect1_innerShadow_347_25996"/>
</filter>
</defs>
</svg>
