<svg width="490" height="52" viewBox="0 0 490 52" fill="none" xmlns="http://www.w3.org/2000/svg">
<path d="M35 13V40.5" stroke="#D9D9D9"/>
<path d="M121 13V40.5" stroke="#D9D9D9"/>
<circle cx="35" cy="46" r="6" fill="#D9D9D9"/>
<circle cx="121" cy="46" r="6" fill="#D9D9D9"/>
<path d="M323 13V35" stroke="#D9D9D9" stroke-dasharray="1 1"/>
<path d="M383 13V35" stroke="#D9D9D9" stroke-dasharray="1 1"/>
<path d="M287 10V32" stroke="#D9D9D9" stroke-dasharray="1 1"/>
<circle cx="323" cy="39" r="6" fill="#D9D9D9"/>
<circle cx="383" cy="39" r="6" fill="#D9D9D9"/>
<circle cx="287" cy="36" r="6" fill="#D9D9D9"/>
<rect y="10" width="490" height="4" rx="2" fill="#D9D9D9"/>
<rect x="157" y="10" width="333" height="4" rx="2" fill="#FFA500"/>
<path d="M70 23.377C76.2132 23.377 81.25 18.3402 81.25 12.127C81.25 5.91375 76.2132 0.876953 70 0.876953C63.7868 0.876953 58.75 5.91375 58.75 12.127C58.75 18.3402 63.7868 23.377 70 23.377Z" fill="#555555"/>
<path d="M70 17.127C72.7615 17.127 75 14.8884 75 12.127C75 9.36553 72.7615 7.12695 70 7.12695C67.2386 7.12695 65 9.36553 65 12.127C65 14.8884 67.2386 17.127 70 17.127Z" fill="white"/>
<path d="M156 24C162.627 24 168 18.6274 168 12C168 5.37258 162.627 0 156 0C149.373 0 144 5.37258 144 12C144 18.6274 149.373 24 156 24Z" fill="#FFA500"/>
<path d="M155.639 24.127C162.267 24.127 167.639 18.7544 167.639 12.127C167.639 5.49954 162.267 0.126953 155.639 0.126953C149.012 0.126953 143.639 5.49954 143.639 12.127C143.639 18.7544 149.012 24.127 155.639 24.127Z" fill="#FFA500"/>
<path fill-rule="evenodd" clip-rule="evenodd" d="M157.237 18.127V6.12695H159.637V18.127H157.237Z" fill="white"/>
<path fill-rule="evenodd" clip-rule="evenodd" d="M151.637 18.127V6.12695H154.037V18.127H151.637Z" fill="white"/>
<path d="M191 13.5V31.5" stroke="#D9D9D9"/>
<path d="M195.438 31C195.483 30.1569 195.656 29.4232 195.957 28.7988C196.262 28.1745 196.855 27.6071 197.734 27.0967L199.047 26.3379C199.635 25.9961 200.047 25.7044 200.284 25.4629C200.658 25.0846 200.845 24.6517 200.845 24.1641C200.845 23.5944 200.674 23.1432 200.332 22.8105C199.99 22.4733 199.535 22.3047 198.965 22.3047C198.122 22.3047 197.538 22.6237 197.215 23.2617C197.042 23.6035 196.946 24.0775 196.928 24.6836H195.677C195.69 23.8314 195.848 23.1364 196.148 22.5986C196.682 21.6507 197.623 21.1768 198.972 21.1768C200.093 21.1768 200.911 21.4798 201.426 22.0859C201.945 22.6921 202.205 23.3665 202.205 24.1094C202.205 24.8932 201.929 25.5632 201.378 26.1191C201.059 26.4427 200.487 26.8346 199.662 27.2949L198.726 27.8145C198.279 28.0605 197.928 28.2952 197.673 28.5186C197.217 28.915 196.93 29.3548 196.812 29.8379H202.157V31H195.438ZM206.58 21.2109C207.847 21.2109 208.763 21.7327 209.328 22.7764C209.766 23.583 209.984 24.6882 209.984 26.0918C209.984 27.4225 209.786 28.5231 209.39 29.3936C208.815 30.6423 207.877 31.2666 206.573 31.2666C205.397 31.2666 204.522 30.7562 203.948 29.7354C203.47 28.8831 203.23 27.7393 203.23 26.3037C203.23 25.1917 203.374 24.237 203.661 23.4395C204.199 21.9538 205.172 21.2109 206.58 21.2109ZM206.566 30.1455C207.204 30.1455 207.713 29.863 208.091 29.2979C208.469 28.7327 208.658 27.68 208.658 26.1396C208.658 25.0277 208.521 24.1139 208.248 23.3984C207.975 22.6784 207.444 22.3184 206.655 22.3184C205.931 22.3184 205.4 22.6602 205.062 23.3438C204.73 24.0228 204.563 25.0254 204.563 26.3516C204.563 27.3496 204.671 28.1517 204.885 28.7578C205.213 29.6829 205.773 30.1455 206.566 30.1455ZM211.023 31C211.069 30.1569 211.242 29.4232 211.543 28.7988C211.848 28.1745 212.441 27.6071 213.32 27.0967L214.633 26.3379C215.221 25.9961 215.633 25.7044 215.87 25.4629C216.244 25.0846 216.431 24.6517 216.431 24.1641C216.431 23.5944 216.26 23.1432 215.918 22.8105C215.576 22.4733 215.12 22.3047 214.551 22.3047C213.708 22.3047 213.124 22.6237 212.801 23.2617C212.628 23.6035 212.532 24.0775 212.514 24.6836H211.263C211.276 23.8314 211.434 23.1364 211.734 22.5986C212.268 21.6507 213.209 21.1768 214.558 21.1768C215.679 21.1768 216.497 21.4798 217.012 22.0859C217.531 22.6921 217.791 23.3665 217.791 24.1094C217.791 24.8932 217.515 25.5632 216.964 26.1191C216.645 26.4427 216.073 26.8346 215.248 27.2949L214.312 27.8145C213.865 28.0605 213.514 28.2952 213.259 28.5186C212.803 28.915 212.516 29.3548 212.397 29.8379H217.743V31H211.023ZM223.007 27.5342V23.0977L219.869 27.5342H223.007ZM223.027 31V28.6074H218.734V27.4043L223.219 21.1836H224.258V27.5342H225.7V28.6074H224.258V31H223.027Z" fill="black"/>
</svg>
